<?xml version="1.0" encoding="UTF-8" standalone="no"?>
<!-- Created with Inkscape (http://www.inkscape.org/) -->

<svg
   xmlns:dc="http://purl.org/dc/elements/1.1/"
   xmlns:cc="http://creativecommons.org/ns#"
   xmlns:rdf="http://www.w3.org/1999/02/22-rdf-syntax-ns#"
   xmlns:svg="http://www.w3.org/2000/svg"
   xmlns="http://www.w3.org/2000/svg"
   xmlns:sodipodi="http://sodipodi.sourceforge.net/DTD/sodipodi-0.dtd"
   xmlns:inkscape="http://www.inkscape.org/namespaces/inkscape"
   sodipodi:docname="heart_surround_filled_alternating.svg"
   inkscape:version="0.48.0 r9654"
   version="1.1"
   id="svg2"
   height="1000"
   width="3200">
  <sodipodi:namedview
     id="base"
     pagecolor="#ffffff"
     bordercolor="#666666"
     borderopacity="1.0"
     inkscape:pageopacity="0.0"
     inkscape:pageshadow="2"
     inkscape:zoom="0.396875"
     inkscape:cx="1928.5126"
     inkscape:cy="400"
     inkscape:document-units="px"
     inkscape:current-layer="svg2"
     showgrid="false"
     inkscape:window-width="1400"
     inkscape:window-height="975"
     inkscape:window-x="-9"
     inkscape:window-y="-9"
     inkscape:window-maximized="1" />
  <defs
     id="defs4">
    <inkscape:path-effect
       effect="rough_hatches"
       id="path-effect3018"
       is_visible="true"
       direction="1600,647.36218 , 27.191148,0"
       dist_rdm="0;1"
       growth="0"
       do_bend="true"
       bender="1600,652.36218 , 5,0"
       bottom_edge_variation="0;1"
       top_edge_variation="0;1"
       bottom_tgt_variation="0;1"
       top_tgt_variation="0;1"
       scale_bf="2"
       scale_bb="2"
       scale_tf="2"
       scale_tb="2"
       top_smth_variation="0;1"
       bottom_smth_variation="0;1"
       fat_output="false"
       stroke_width_top="1"
       stroke_width_bottom="1"
       front_thickness="1"
       back_thickness="0.25" />
  </defs>
  <metadata
     id="metadata7">
    <rdf:RDF>
      <cc:Work
         rdf:about="">
        <dc:format>image/svg+xml</dc:format>
        <dc:type
           rdf:resource="http://purl.org/dc/dcmitype/StillImage" />
        <dc:title></dc:title>
      </cc:Work>
    </rdf:RDF>
  </metadata>
  <g
     inkscape:label="Layer 1"
     inkscape:groupmode="layer"
     id="layer1"
     transform="translate(0,-52.36218)">
    <g
       id="g3049"
       transform="translate(-1200,-100)">
      <path
         id="path3026"
         sodipodi:nodetypes="scscs"
         inkscape:connector-curvature="0"
         d="m 1906.6793,513.93662 c 0,218.04332 -306.6793,318.2144 -306.6793,445.91518 0,-127.66281 -306.6793,-227.87186 -306.6793,-445.91518 0,-218.04333 308.4419,-246.83956 306.6793,47.58775 0,-296.1018 306.6793,-265.63108 306.6793,-47.58775 z"
         style="fill:none;stroke:#ff0000;stroke-width:4;stroke-miterlimit:4;stroke-opacity:1" />
      <path
         inkscape:original-d="m 1906.6793,513.93662 c 0,218.04332 -306.6793,318.2144 -306.6793,445.91518 0,-127.66281 -306.6793,-227.87186 -306.6793,-445.91518 0,-218.04333 308.4419,-246.83956 306.6793,47.58775 0,-296.1018 306.6793,-265.63108 306.6793,-47.58775 z"
         inkscape:path-effect="#path-effect3018"
         id="path3016"
         style="fill:none;stroke:#ff0000;stroke-width:4;stroke-miterlimit:4;stroke-opacity:1"
         d="m 1905.612,536.06213 c 0,0 2.6246,-30.60098 -2.9541,-60.62318 -2.7893,-15.0111 -2.6833,5.70359 -2.5809,32.52104 0.1023,26.81746 0.182,59.73767 -2.5184,69.13761 -2.7004,9.39994 -2.7534,-22.42507 -2.8797,-58.20439 -0.1263,-35.77933 -0.3413,-75.51298 -3.097,-81.93031 -2.7557,-6.41733 -2.5211,33.0851 -2.3636,75.75155 0.1576,42.66644 0.2238,88.49691 -2.4879,94.73565 -2.7117,6.23874 -2.7557,-39.49409 -2.9257,-87.90013 -0.17,-48.40603 -0.4799,-99.48528 -3.2269,-103.93936 -2.747,-4.45408 -2.4186,46.57354 -2.2255,99.96074 0.1931,53.38721 0.2376,109.13399 -2.4785,114.11824 -2.7161,4.98425 -2.7394,-50.7309 -2.94,-108.54822 -0.2006,-57.81731 -0.5916,-117.73679 -3.3335,-121.16121 -2.742,-3.42442 -2.3339,56.47429 -2.1147,118.29668 0.1096,30.9112 0.1773,62.30332 -0.1322,86.50143 -0.3094,24.19811 -0.9902,41.20221 -2.3495,43.33737 -2.7186,4.27032 -2.7158,-59.46111 -2.9395,-124.94692 -0.1119,-32.74291 -0.2742,-65.92442 -0.7618,-91.2636 -0.4876,-25.33919 -1.2936,-42.83605 -2.6628,-44.20968 -1.3691,-1.37362 -1.9307,14.74693 -2.1215,39.81915 -0.1908,25.07223 -0.019,59.09612 0.1005,93.52917 0.1196,34.43305 0.1865,69.27526 -0.1284,95.98411 -0.3149,26.70886 -1.0044,45.28436 -2.3646,47.18399 -1.3601,1.89964 -2.0285,-14.7742 -2.3885,-40.92372 -0.36,-26.14952 -0.4207,-61.77471 -0.5415,-97.7778 -0.1207,-36.00308 -0.3019,-72.38406 -0.8078,-100.04512 -0.5058,-27.66106 -1.3279,-46.60221 -2.6956,-47.72566 -1.3677,-1.12345 -1.9119,16.69265 -2.0844,44.15694 -0.1725,27.46429 0.017,64.57676 0.1443,102.04606 0.1272,37.4693 0.1918,75.29542 -0.1296,104.187 -0.3214,28.89158 -1.0199,48.84862 -2.3807,50.57976 -1.3607,1.73113 -2.0208,-16.49353 -2.3745,-44.86207 -0.3538,-28.36854 -0.4119,-66.88096 -0.5395,-105.72534 -0.1276,-38.84438 -0.3251,-78.02072 -0.8471,-107.7171 -0.522,-29.69638 -1.3587,-49.9128 -2.7252,-50.83734 -1.3665,-0.92454 -1.8949,18.36629 -2.0512,47.92286 -0.1564,29.55657 0.049,69.37889 0.1816,109.51732 0.1331,40.13844 0.1938,80.59299 -0.1347,111.41404 -0.3285,30.82105 -1.0362,52.0086 -2.3974,53.61302 -1.3613,1.60441 -2.0126,-17.97791 -2.3595,-48.30124 -0.3468,-30.32334 -0.4009,-71.3877 -0.5336,-112.74736 -0.1328,-41.35966 -0.3444,-83.01463 -0.8808,-114.51918 -0.5364,-31.50456 -1.3863,-52.8587 -2.7517,-53.61672 -1.3653,-0.75802 -1.8796,19.83737 -2.0216,51.25096 -0.142,31.41359 0.076,73.64539 0.2135,116.16019 0.1373,42.5148 0.1932,85.3126 -0.143,117.8582 -0.3363,32.5456 -1.0533,54.839 -2.4149,56.345 -1.3616,1.506 -2.0041,-19.28085 -2.3433,-51.34657 -0.3393,-32.06572 -0.3885,-75.4103 -0.5248,-119.01976 -0.1364,-43.60946 -0.3603,-87.4838 -0.9094,-120.60904 -0.5491,-33.12523 -1.4109,-55.50136 -2.7752,-56.11439 -1.3644,-0.61303 -1.8659,21.14952 -1.9952,54.22742 -0.1293,33.0779 0.1003,77.47115 0.2404,122.11953 0.14,44.64837 0.1902,89.55188 -0.1542,123.65028 -0.3444,34.0984 -1.0708,57.39171 -2.4327,58.81968 -1.362,1.42798 -1.9954,-20.43697 -2.3266,-54.0678 -0.3313,-33.63083 -0.3746,-79.02755 -0.5132,-124.6631 -0.1387,-45.63556 -0.3729,-91.50995 -0.9332,-126.09615 -0.5603,-34.58619 -1.4328,-57.88418 -2.7962,-58.36693 -1.3634,-0.48275 -1.8534,22.33207 -1.9716,56.91118 -0.1182,34.57911 0.121,80.92252 0.2626,127.49695 0.1416,46.57442 0.1852,93.37986 -0.1678,128.88305 -0.3529,35.50319 -1.0887,59.70412 -2.451,61.06952 -1.3622,1.3654 -1.9866,-21.46987 -2.3094,-56.51348 -0.3227,-35.04361 -0.3594,-82.29555 -0.499,-129.76349 -0.1397,-47.46793 -0.3827,-95.15186 -0.9526,-131.05943 -0.57,-35.90758 -1.4521,-60.03881 -2.8145,-60.40135 -1.3625,-0.36254 -1.8422,23.40581 -1.9508,59.34445 -0.1086,35.93864 0.1385,84.04757 0.2804,132.36619 0.1418,48.31863 0.1782,96.84695 -0.1837,133.62438 -0.3619,36.77742 -1.1071,61.80395 -2.4696,63.11898 -1.3625,1.31504 -1.9778,-22.39629 -2.2917,-58.71855 -0.314,-36.32226 -0.3433,-85.25546 -0.4828,-134.38417 -0.1395,-49.1287 -0.3895,-98.45291 -0.9677,-135.55721 -0.5782,-37.10429 -1.4687,-61.98867 -2.8302,-62.2377 -1.3616,-0.24903 -1.8322,24.38603 -1.9326,61.55836 -0.1005,37.17234 0.1529,86.88195 0.2939,136.78203 0.1409,49.90008 0.1693,99.99063 -0.2018,137.92484 -0.371,37.9342 -1.1257,63.71206 -2.4884,64.98677 -1.3628,1.27471 -1.9689,-23.22836 -2.2738,-60.7087 -0.3048,-37.48034 -0.326,-87.93796 -0.4642,-138.57237 -0.1382,-50.63441 -0.3936,-101.44561 -0.9787,-139.63311 -0.5851,-38.1875 -1.4828,-63.75129 -2.8435,-63.8909 -1.3607,-0.1396 -1.8233,25.28434 -1.917,63.57646 -0.094,38.29213 0.1643,89.45244 0.3033,140.78556 0.1389,51.33313 0.1586,102.83908 -0.2219,141.82248 -0.3806,38.98341 -1.1446,65.44427 -2.5076,66.68722 -1.3631,1.24296 -1.96,-23.97492 -2.2555,-62.50291 -0.2954,-38.52798 -0.3078,-90.36607 -0.4436,-142.36354 -0.1357,-51.99747 -0.395,-104.15431 -0.9856,-143.31981 -0.5905,-39.16549 -1.4943,-65.33964 -2.8541,-65.3717 -1.3598,-0.0321 -1.8157,26.10978 -1.904,65.41677 -0.088,39.30699 0.1726,91.77912 0.3084,144.40761 0.1358,52.62849 0.1462,105.41334 -0.2441,145.34577 -0.3903,39.93243 -1.1636,67.01244 -2.5269,68.23125 -1.3633,1.21882 -1.9512,-24.64242 -2.2369,-64.11512 -0.2858,-39.47271 -0.2888,-92.55689 -0.421,-145.78398 -0.1322,-53.22709 -0.3937,-106.59708 -0.9883,-146.64141 -0.5946,-40.04434 -1.5033,-66.76301 -2.8622,-66.68745 -1.359,0.0756 -1.8092,26.86958 -1.8937,67.09321 -0.084,40.22362 0.178,93.87687 0.3095,147.67087 0.1316,53.79401 0.132,107.72879 -0.2683,148.51549 -0.4003,40.7867 -1.1829,68.42532 -2.5465,69.62702 -1.3635,1.2017 -1.9424,-25.23532 -2.2182,-65.55522 -0.2758,-40.3199 -0.2688,-94.5227 -0.3963,-148.85255 -0.1275,-54.32986 -0.3897,-108.78678 -0.9869,-149.61493 -0.5972,-40.82815 -1.5096,-68.02754 -2.8677,-67.84233 -1.358,0.1852 -1.8039,27.56958 -1.8859,68.61644 -0.082,41.04685 0.1802,95.75618 0.3064,150.59128 0.1261,54.83509 0.116,109.79596 -0.2946,151.34589 -0.4106,41.54994 -1.2024,69.68894 -2.5662,70.8803 -1.3638,1.19136 -1.9337,-25.75643 -2.1993,-66.82959 -0.2657,-41.07316 -0.2479,-96.27167 -0.3696,-151.58174 -0.1216,-55.31007 -0.3828,-110.7317 -0.9812,-152.25108 -0.5984,-41.51938 -1.5133,-69.13652 -2.8704,-68.83761 -1.3572,0.29891 -1.7998,28.21474 -1.8809,69.99459 -0.081,41.77985 0.1793,97.42372 0.2988,153.1787 0.1196,55.75499 0.098,111.62109 -0.3229,153.84541 -0.4211,42.22432 -1.2221,70.80686 -2.5862,71.99472 -1.3641,1.18785 -1.9251,-26.20707 -2.1802,-67.94144 -0.2552,-41.73436 -0.2261,-97.80817 -0.3407,-153.97808 -0.1146,-56.16992 -0.3731,-112.43594 -0.9711,-154.55473 -0.598,-42.11879 -1.5141,-70.09035 -2.8703,-69.67135 -1.3562,0.419 -1.7969,28.80933 -1.8786,71.23361 -0.082,42.42427 0.1749,98.8825 0.2867,155.4373 0.1117,56.5548 0.079,113.20617 -0.3534,156.01673 -0.4319,42.81056 -1.242,71.78031 -2.6065,72.97188 -1.3644,1.19156 -1.9165,-26.58696 -2.161,-68.89074 -0.2444,-42.30377 -0.2032,-99.1328 -0.3096,-156.04223 -0.1063,-56.90944 -0.3603,-113.89928 -0.9563,-156.52469 -0.5959,-42.62541 -1.5119,-70.88639 -2.8672,-70.3381 -1.3552,0.5483 -1.7953,29.3573 -1.8793,72.3376 -0.084,42.9803 0.1672,100.13189 0.2698,157.36536 0.1027,57.23347 0.057,114.54881 -0.3862,157.8566 -0.4429,43.3078 -1.2621,72.60806 -2.6269,73.81135 -1.3648,1.20329 -1.9082,-26.89414 -2.1416,-69.67398 -0.2334,-42.77985 -0.1794,-100.24211 -0.2762,-157.76848 -0.097,-57.52637 -0.3443,-115.11684 -0.9366,-158.15311 -0.5922,-43.03627 -1.5066,-71.51834 -2.8608,-70.82789 -1.3542,0.69045 -1.7952,29.86264 -1.8831,73.30908 -0.088,43.44643 0.1555,101.16711 0.2477,158.95454 0.092,57.78742 0.033,115.64159 -0.4214,159.355 -0.4544,43.71341 -1.2826,73.28607 -2.6477,74.51046 -1.3652,1.2244 -1.9,-27.12451 -2.1221,-70.28345 -0.222,-43.15894 -0.1545,-101.1279 -0.2402,-159.14361 -0.086,-58.0157 -0.3249,-116.07815 -0.9115,-159.42405 -0.5867,-43.34591 -1.498,-71.97527 -2.8511,-71.12481 -1.3531,0.85046 -1.7964,30.32988 -1.8903,74.14919 -0.094,43.81931 0.1399,101.97851 0.2201,160.18854 0.08,58.21003 0.01,116.47088 -0.4594,160.4935 -0.466,44.02262 -1.3031,73.807 -2.6688,75.06408 -1.3657,1.25708 -1.8919,-27.27115 -2.1024,-70.70588 -0.2104,-43.43473 -0.1283,-101.77596 -0.2015,-160.14487 -0.073,-58.36892 -0.3015,-116.76551 -0.8806,-160.31098 -0.579,-43.54546 -1.4853,-72.23979 -2.8373,-71.20418 -1.3519,1.0356 -1.7992,30.765 -1.9012,74.85812 -0.102,44.09312 0.1196,102.54996 0.1861,161.04047 0.067,58.49051 -0.022,117.01469 -0.5002,161.24247 -0.4781,44.22778 -1.3242,74.15917 -2.6904,75.4641 -1.3663,1.30493 -1.8842,-27.3229 -2.0825,-70.92009 -0.1984,-43.59719 -0.1009,-102.16375 -0.1597,-160.73627 -0.059,-58.57253 -0.2739,-117.15104 -0.843,-160.77212 -0.5691,-43.62108 -1.4686,-72.28475 -2.8192,-71.0276 -1.3505,1.25715 -1.8039,31.17716 -1.9163,75.43591 -0.1125,44.25876 0.094,102.85625 0.145,161.46836 0.051,58.6121 -0.054,117.23882 -0.5445,161.55602 -0.4907,44.3172 -1.3456,74.32488 -2.7126,75.69891 -1.367,1.37404 -1.8767,-27.26174 -2.0625,-70.89244 -0.1859,-43.6307 -0.072,-102.25632 -0.1142,-160.86195 -0.042,-58.60564 -0.2413,-117.19129 -0.7978,-160.74206 -0.5565,-43.55078 -1.4467,-72.06666 -2.7958,-70.53277 -1.349,1.5339 -1.8106,31.58241 -1.9364,75.88459 -0.1258,44.30218 0.063,102.85803 0.096,161.40656 0.033,58.54854 -0.089,117.08978 -0.593,161.36274 -0.5038,44.27297 -1.3676,74.27767 -2.7356,75.75314 -1.3679,1.47546 -1.8696,-27.05739 -2.0424,-70.56783 -0.1729,-43.51045 -0.041,-101.99848 -0.064,-160.43336 -0.024,-58.43487 -0.2027,-116.8166 -0.7433,-160.11444 -0.5407,-43.29784 -1.4188,-71.51178 -2.766,-69.61111 -1.3473,1.90068 -1.8198,32.01303 -1.9624,76.21442 -0.1427,44.20139 0.023,102.49181 0.036,160.74862 0.012,58.25681 -0.1291,116.48001 -0.6468,160.54696 -0.5176,44.06695 -1.3904,73.97765 -2.7598,75.60946 -1.3694,1.6318 -1.8632,-26.65414 -2.0223,-69.84895 -0.1591,-43.1948 -0.01,-101.29847 -0.01,-159.30211 -0,-58.00364 -0.1565,-115.90726 -0.677,-158.70195 -0.5206,-42.7947 -1.3829,-70.48048 -2.7278,-68.04845 -1.3449,2.43202 -1.8319,32.54483 -1.9961,76.46468 -0.1642,43.91985 -0.026,101.64675 -0.038,159.30697 -0.012,57.66022 -0.1749,115.25377 -0.7075,158.9069 -0.5326,43.65314 -1.4146,73.36586 -2.7863,75.26446 -1.3717,1.89859 -1.8582,-25.93309 -2.0024,-68.54039 -0.1443,-42.60731 0.03,-99.99024 0.055,-157.19415 0.025,-57.20392 -0.1,-114.22881 -0.5941,-156.12004 -0.4946,-41.89123 -1.3353,-68.64879 -2.6768,-65.31804 -1.3415,3.33074 -1.8482,33.40262 -2.041,76.79137 -0.1929,43.38875 -0.091,100.09436 -0.1335,156.69259 -0.043,56.59823 -0.2299,113.08906 -0.7795,156.04825 -0.5495,42.95918 -1.4421,72.38672 -2.8186,74.85834 -1.3765,2.47162 -1.8559,-24.56269 -1.9833,-66.15923 -0.1273,-41.59653 0.074,-97.75527 0.1331,-153.53251 0.059,-55.77723 -0.025,-111.17295 -0.4834,-151.24344 -0.4581,-40.07048 -1.2659,-64.81573 -2.6005,-59.29202 -1.3347,5.52372 -1.873,35.32261 -2.1089,77.38991 -0.236,42.06729 -0.1853,96.40298 -0.2684,151.00029 -0.083,54.59731 -0.3005,109.45624 -0.88,152.57 -0.5794,43.11376 -1.5061,74.48235 -2.9245,82.099 -1.4184,7.61665 -1.9209,-13.38388 -2.0281,-49.6532 -0.1073,-36.26932 0.1592,-87.80742 0.3024,-141.26593 0.1433,-53.45851 0.1606,-108.83742 -0.2391,-152.78834 -0.3997,-43.95091 -1.2002,-76.47384 -2.5876,-84.22039 -1.3873,-7.74655 -1.9707,14.6496 -2.2275,52.40363 -0.2568,37.75404 -0.2109,90.86595 -0.2979,144.55091 -0.087,53.68496 -0.3077,107.94298 -0.8692,147.98922 -0.5615,40.04624 -1.4415,65.88071 -2.7783,62.71859 -1.3368,-3.16213 -1.7977,-32.25054 -1.9174,-74.3864 -0.1197,-42.13587 0.084,-97.3192 0.1496,-152.67117 0.066,-55.35198 -0.01,-110.8726 -0.4695,-153.68305 -0.463,-42.81045 -1.2993,-72.91073 -2.6811,-77.42203 -1.3818,-4.51129 -1.9192,21.12022 -2.1249,61.9728 -0.2058,40.85258 -0.1038,96.92624 -0.1472,153.29923 -0.043,56.37299 -0.2325,113.04531 -0.7772,155.09523 -0.5447,42.04992 -1.4218,69.47744 -2.7673,67.36082 -1.3455,-2.11662 -1.8175,-31.61574 -1.9554,-74.85808 -0.1379,-43.24234 0.039,-100.2279 0.068,-157.3174 0.029,-57.0895 -0.089,-114.28294 -0.5887,-157.94104 -0.4999,-43.65811 -1.3619,-73.78087 -2.7382,-76.72902 -1.3763,-2.94815 -1.8855,24.23489 -2.0589,66.55892 -0.1735,42.32404 -0.035,99.78906 -0.048,157.40486 -0.013,57.61581 -0.1782,115.3824 -0.7076,158.30958 -0.5294,42.92718 -1.3998,71.01494 -2.7485,69.27309 -1.3487,-1.74186 -1.8299,-31.55864 -1.9832,-75.44165 -0.1533,-43.88301 5e-4,-101.83226 0,-159.83906 0,-58.0068 -0.1494,-116.07116 -0.675,-160.18438 -0.5256,-44.11323 -1.4052,-74.27532 -2.7785,-76.4776 -1.3732,-2.20228 -1.863,25.7608 -2.0128,68.84791 -0.1498,43.0871 0.016,101.29824 0.027,159.59207 0.011,58.29382 -0.1327,116.67034 -0.648,160.08822 -0.5154,43.41788 -1.3785,71.87712 -2.7289,70.33639 -1.3505,-1.54074 -1.8405,-31.53507 -2.008,-75.7684 -0.1675,-44.23333 -0.034,-102.70566 -0.055,-161.2024 -0.021,-58.49674 -0.1977,-117.01789 -0.7429,-161.34886 -0.5451,-44.33097 -1.4378,-74.47175 -2.8089,-76.20776 -1.3711,-1.73601 -1.8464,26.67042 -1.978,70.16812 -0.1315,43.4977 0.057,102.08666 0.089,160.71569 0.032,58.62903 -0.093,117.29813 -0.5953,160.95612 -0.5021,43.65798 -1.3574,72.30485 -2.709,70.88941 -1.3516,-1.41544 -1.8505,-31.47471 -2.0313,-75.85519 -0.1809,-44.38048 -0.065,-103.08218 -0.1062,-161.78249 -0.041,-58.70032 -0.2377,-117.39924 -0.7982,-161.77417 -0.5605,-44.37493 -1.4629,-74.42587 -2.8323,-75.83021 -1.3693,-1.40434 -1.8338,27.24325 -1.9509,70.92135 -0.117,43.6781 0.089,102.38671 0.1389,161.10442 0.049,58.7177 -0.058,117.4445 -0.5476,161.15897 -0.4894,43.71448 -1.3366,72.41663 -2.6891,71.08504 -1.3525,-1.33159 -1.8601,-31.36349 -2.0538,-75.73414 -0.1936,-44.37065 -0.095,-103.08006 -0.1525,-161.76668 -0.058,-58.68661 -0.2713,-117.35043 -0.8438,-161.62991 -0.5726,-44.27948 -1.4822,-74.17462 -2.85,-75.32386 -1.3679,-1.14925 -1.8242,27.5973 -1.9299,71.28397 -0.1057,43.68666 0.1156,102.31345 0.1805,160.92469 0.065,58.61124 -0.027,117.20694 -0.504,160.83141 -0.4771,43.62447 -1.3161,72.27773 -2.6693,71.0041 -1.3531,-1.27363 -1.8696,-31.19932 -2.0755,-75.43031 -0.2059,-44.231 -0.1229,-102.76731 -0.1951,-161.26219 -0.072,-58.49489 -0.2996,-116.94835 -0.8815,-161.01366 -0.5819,-44.06531 -1.4965,-73.74245 -2.8631,-74.68471 -1.3666,-0.94225 -1.817,27.79311 -1.9138,71.34908 -0.097,43.55597 0.1366,101.93255 0.2149,160.27274 0.078,58.34018 0,116.64397 -0.4637,160.05435 -0.4654,43.41038 -1.2959,71.92735 -2.6496,70.69391 -1.3537,-1.23343 -1.879,-30.98302 -2.0968,-74.96155 -0.2178,-43.97853 -0.1495,-102.18602 -0.2345,-160.33525 -0.085,-58.14924 -0.3234,-116.24023 -0.9123,-159.98578 -0.5889,-43.74555 -1.5068,-73.14565 -2.8722,-73.91311 -1.3655,-0.76747 -1.8118,27.86553 -1.902,71.17133 -0.09,43.3058 0.1528,101.28439 0.2429,159.20813 0.09,57.92374 0.027,115.79262 -0.4264,158.87897 -0.4539,43.08635 -1.2759,71.39019 -2.63,70.18383 -1.3541,-1.20635 -1.8884,-30.71594 -2.1177,-74.34021 -0.2293,-43.62427 -0.1748,-101.36321 -0.271,-159.02824 -0.096,-57.66504 -0.3433,-115.25617 -0.9372,-158.58483 -0.5939,-43.32865 -1.5134,-72.39483 -2.8777,-73.00996 -1.3644,-0.61513 -1.8083,27.83621 -1.8939,70.78488 -0.086,42.94868 0.1649,100.39468 0.2653,157.76888 0.1004,57.3742 0.051,114.6766 -0.3918,157.33806 -0.4427,42.66146 -1.2561,70.68197 -2.6106,69.49241 -1.3545,-1.18956 -1.8977,-30.39921 -2.1382,-73.57449 -0.2405,-43.17528 -0.199,-100.31619 -0.305,-157.36826 -0.1061,-57.05206 -0.3596,-114.01529 -0.9566,-156.8352 -0.5971,-42.81992 -1.5166,-71.49653 -2.88,-71.97536 -1.3633,-0.47883 -1.8064,27.71919 -1.8891,70.21174 -0.083,42.49254 0.1732,99.27961 0.2825,155.97887 0.1093,56.69926 0.072,113.31071 -0.3597,155.45201 -0.4318,42.14131 -1.2364,69.81247 -2.5912,68.63116 -1.3549,-1.18132 -1.9072,-30.03349 -2.1586,-72.66939 -0.2514,-42.6359 -0.2221,-99.05552 -0.3366,-155.37175 -0.1145,-56.31622 -0.3726,-112.52903 -0.971,-154.75131 -0.5985,-42.22228 -1.5168,-70.45402 -2.8792,-70.8081 -1.3624,-0.35407 -1.806,27.52382 -1.8875,69.46604 -0.082,41.94222 0.1779,97.94876 0.2949,153.852 0.1169,55.90324 0.091,111.70316 -0.3298,153.23215 -0.4213,41.52898 -1.217,68.78702 -2.5721,67.60647 -1.3552,-1.18054 -1.9166,-29.61891 -2.1787,-71.62726 -0.262,-42.00834 -0.2442,-97.58666 -0.3659,-153.0471 -0.1216,-55.46044 -0.3825,-110.803 -0.9808,-152.33983 -0.5983,-41.53683 -1.5141,-69.26793 -2.8755,-69.50545 -1.3615,-0.23752 -1.807,27.25627 -1.8889,68.5564 -0.082,41.30012 0.1794,96.40658 0.3028,151.3944 0.1233,54.98782 0.1089,109.85699 -0.302,150.68255 -0.411,40.82556 -1.1978,67.6075 -2.5532,66.42085 -1.3554,-1.18666 -1.9261,-29.15511 -2.1985,-70.44821 -0.2724,-41.2931 -0.2655,-95.91085 -0.3931,-150.39608 -0.1276,-54.48523 -0.3896,-108.83794 -0.9862,-149.60099 -0.5966,-40.76304 -1.5086,-67.93641 -2.8691,-68.06295 -1.3606,-0.12655 -1.8092,26.92049 -1.893,67.48726 -0.084,40.56678 0.1777,94.65329 0.3063,148.60569 0.1287,53.9524 0.1246,107.77069 -0.2763,147.80104 -0.4009,40.03034 -1.1787,66.27274 -2.5344,65.07334 -1.3557,-1.1994 -1.9356,-28.64112 -2.2181,-69.13022 -0.2825,-40.4891 -0.2859,-94.02558 -0.4183,-147.41451 -0.1325,-53.38892 -0.3938,-106.63029 -0.9873,-146.52916 -0.5935,-39.89887 -1.5004,-66.45524 -2.8601,-66.47417 -1.3597,-0.0189 -1.8126,26.51871 -1.8997,66.25966 -0.087,39.74095 0.1729,92.68519 0.3057,145.47945 0.1327,52.79426 0.1384,105.43853 -0.2527,144.57952 -0.3911,39.141 -1.1599,64.77871 -2.5158,63.55987 -1.3559,-1.21885 -1.9451,-28.0754 -2.2375,-67.66917 -0.2924,-39.59377 -0.3054,-91.92476 -0.4415,-144.09248 -0.1362,-52.16772 -0.3953,-104.17218 -0.9842,-143.11289 -0.5889,-38.94071 -1.4897,-64.81767 -2.8485,-64.73039 -1.3589,0.0873 -1.8173,26.05174 -1.9091,64.8715 -0.092,38.81977 0.1652,90.49484 0.301,142.00334 0.1358,51.50849 0.1505,102.8504 -0.2311,141.00385 -0.3816,38.15345 -1.1413,63.11843 -2.4974,61.87307 -1.3562,-1.24537 -1.9547,-27.45577 -2.2567,-66.05872 -0.302,-38.60295 -0.3239,-89.59845 -0.4627,-140.41403 -0.1387,-50.81559 -0.3941,-101.45125 -0.977,-139.33451 -0.5829,-37.88326 -1.4764,-63.01412 -2.8344,-62.82011 -1.358,0.19401 -1.823,25.51914 -1.9209,63.31773 -0.098,37.79859 0.1546,88.07063 0.2922,138.15847 0.1377,50.08783 0.1609,99.99146 -0.2114,137.05321 -0.3724,37.06176 -1.123,61.28164 -2.4794,60.00198 -1.3564,-1.27966 -1.9643,-26.77931 -2.2756,-64.29002 -0.3113,-37.51071 -0.3416,-87.03249 -0.4818,-136.3564 -0.1403,-49.32391 -0.3903,-98.44995 -0.9659,-135.16919 -0.5755,-36.71925 -1.4605,-61.03169 -2.8177,-60.7284 -1.3571,0.30328 -1.8298,24.91931 -1.9352,61.59008 -0.1054,36.67077 0.141,85.39628 0.2794,133.91852 0.1385,48.52225 0.1694,96.84123 -0.1939,132.69894 -0.3634,35.85771 -1.1049,59.25415 -2.4616,57.93132 -1.3566,-1.32282 -1.9739,-26.04229 -2.2942,-62.3513 -0.3204,-36.30902 -0.3583,-84.20759 -0.499,-131.88863 -0.1406,-47.68104 -0.3837,-95.14456 -0.9504,-130.58347 -0.5668,-35.4389 -1.4423,-58.8532 -2.7985,-58.43581 -1.3563,0.41739 -1.8378,24.24944 -1.9521,59.6767 -0.1142,35.42726 0.1244,82.44973 0.2625,129.24796 0.1382,46.79824 0.1762,93.37223 -0.1786,127.90253 -0.3547,34.5303 -1.0871,57.01691 -2.4441,55.64037 -1.3569,-1.37653 -1.9835,-25.23996 -2.3126,-60.22711 -0.3291,-34.98715 -0.374,-81.09803 -0.5139,-126.96944 -0.1398,-45.87142 -0.3743,-91.50338 -0.9309,-125.5327 -0.5566,-34.02932 -1.4213,-56.45601 -2.7766,-55.91689 -1.3553,0.53912 -1.8469,23.50539 -1.9714,57.56133 -0.1245,34.05594 0.1047,79.20156 0.2413,124.09938 0.1367,44.89783 0.181,89.54786 -0.1655,122.61263 -0.3465,33.06477 -1.0698,54.54429 -2.4271,53.10107 -1.3572,-1.44322 -1.9932,-24.36637 -2.3307,-57.89728 -0.3375,-33.5309 -0.3886,-77.66957 -0.5264,-121.54381 -0.1378,-43.87424 -0.3621,-87.48406 -0.907,-119.95728 -0.5449,-32.47321 -1.3977,-53.80983 -2.752,-53.13767 -1.3544,0.67217 -1.8571,22.68154 -1.9933,55.2221 -0.1363,32.54056 0.082,75.6123 0.2157,118.40921 0.1339,42.7969 0.1837,85.31897 -0.1549,116.76018 -0.3387,31.4412 -1.0531,51.80154 -2.4107,50.275 -1.3575,-1.52655 -2.0029,-23.41405 -2.3483,-55.33527 -0.3455,-31.92122 -0.402,-73.87615 -0.5365,-115.53756 -0.1345,-41.66141 -0.3467,-83.02929 -0.8784,-113.77639 -0.5316,-30.74711 -1.3712,-50.87345 -2.7245,-50.05177 -1.3534,0.82168 -1.8684,21.77051 -2.0179,52.62955 -0.1496,30.85903 0.056,71.62828 0.1855,112.09079 0.1296,40.46251 0.184,80.61829 -0.1473,110.2504 -0.3312,29.6321 -1.0369,48.74054 -2.3949,47.10835 -1.3579,-1.63218 -2.0125,-22.37372 -2.3655,-52.5057 -0.3529,-30.13198 -0.4138,-69.6544 -0.5436,-108.84837 -0.1298,-39.19397 -0.328,-78.05949 -0.8448,-106.87764 -0.5167,-28.81816 -1.3416,-47.58895 -2.6938,-46.59348 -1.3522,0.99547 -1.881,20.76291 -2.0454,49.74354 -0.1645,28.98063 0.026,67.17445 0.15,105.02267 0.1241,37.84821 0.1819,75.35082 -0.1426,102.94904 -0.3246,27.59822 -1.0217,45.29205 -2.3802,43.5227 -1.3585,-1.76936 -2.0221,-21.23397 -2.382,-49.36024 -0.3598,-28.12626 -0.4241,-64.91418 -0.5474,-101.33015 -0.1234,-36.41596 -0.3056,-72.45998 -0.8055,-99.09844 -0.5,-26.63846 -1.3087,-43.87137 -2.6597,-42.66512 -1.3509,1.20625 -1.8947,19.64726 -2.0759,46.50812 -0.1812,26.86086 -0.01,62.14157 0.1088,97.02723 0.1166,34.88566 0.1766,69.37626 -0.1421,94.65691 -0.3187,25.28064 -1.0075,41.35132 -2.3667,39.39714 -1.3591,-1.95418 -2.0317,-19.98145 -2.3977,-45.83081 -0.3659,-25.84935 -0.4321,-59.52081 -0.5472,-92.76337 -0.2301,-66.48512 -0.682,-131.25469 -3.3808,-128.30079 -1.3495,1.47694 -1.9098,18.41103 -2.1099,42.84274 -0.2001,24.43172 -0.046,56.36108 0.061,87.82856 0.2139,62.93496 0.2184,124.02243 -2.5017,119.58636 -2.7202,-4.43606 -2.7453,-65.54169 -2.9539,-124.61085 -0.2086,-59.06916 -0.5881,-116.10185 -3.2831,-112.39205 -2.6949,3.70981 -2.333,60.76905 -2.144,115.58444 0.1889,54.8154 0.2181,107.38696 -2.505,102.1214 -2.723,-5.26555 -2.7735,-57.87974 -2.9538,-107.94668 -0.1803,-50.06694 -0.477,-97.58663 -3.1663,-92.66319 -2.6893,4.92345 -2.4114,52.51797 -2.2559,97.17217 0.1555,44.65419 0.2027,86.36806 -2.5258,79.53018 -2.7286,-6.83788 -2.7983,-48.71338 -2.9392,-86.98963 -0.1408,-38.27624 -0.338,-72.95323 -3.0162,-65.3941 -2.6783,7.55913 -2.4999,42.7563 -2.3946,73.04565 0.1053,30.28934 0.1545,55.67086 -2.5927,43.59867 -2.7472,-12.07218 -3.4876,-33.69699 -3.5566,-52.30376 -0.069,-18.60677 0.5376,-34.19549 0.5376,-34.19549"
         inkscape:connector-curvature="0"
         sodipodi:nodetypes="scscs" />
    </g>
    <g
       transform="matrix(1,0,0,-1,-400.00003,1204.7244)"
       id="g3063">
      <path
         style="fill:none;stroke:#ff0000;stroke-width:4;stroke-miterlimit:4;stroke-opacity:1"
         d="m 1906.6793,513.93662 c 0,218.04332 -306.6793,318.2144 -306.6793,445.91518 0,-127.66281 -306.6793,-227.87186 -306.6793,-445.91518 0,-218.04333 308.4419,-246.83956 306.6793,47.58775 0,-296.1018 306.6793,-265.63108 306.6793,-47.58775 z"
         inkscape:connector-curvature="0"
         sodipodi:nodetypes="scscs"
         id="path3065" />
      <path
         sodipodi:nodetypes="scscs"
         inkscape:connector-curvature="0"
         d="m 1905.612,536.06213 c 0,0 2.6246,-30.60098 -2.9541,-60.62318 -2.7893,-15.0111 -2.6833,5.70359 -2.5809,32.52104 0.1023,26.81746 0.182,59.73767 -2.5184,69.13761 -2.7004,9.39994 -2.7534,-22.42507 -2.8797,-58.20439 -0.1263,-35.77933 -0.3413,-75.51298 -3.097,-81.93031 -2.7557,-6.41733 -2.5211,33.0851 -2.3636,75.75155 0.1576,42.66644 0.2238,88.49691 -2.4879,94.73565 -2.7117,6.23874 -2.7557,-39.49409 -2.9257,-87.90013 -0.17,-48.40603 -0.4799,-99.48528 -3.2269,-103.93936 -2.747,-4.45408 -2.4186,46.57354 -2.2255,99.96074 0.1931,53.38721 0.2376,109.13399 -2.4785,114.11824 -2.7161,4.98425 -2.7394,-50.7309 -2.94,-108.54822 -0.2006,-57.81731 -0.5916,-117.73679 -3.3335,-121.16121 -2.742,-3.42442 -2.3339,56.47429 -2.1147,118.29668 0.1096,30.9112 0.1773,62.30332 -0.1322,86.50143 -0.3094,24.19811 -0.9902,41.20221 -2.3495,43.33737 -2.7186,4.27032 -2.7158,-59.46111 -2.9395,-124.94692 -0.1119,-32.74291 -0.2742,-65.92442 -0.7618,-91.2636 -0.4876,-25.33919 -1.2936,-42.83605 -2.6628,-44.20968 -1.3691,-1.37362 -1.9307,14.74693 -2.1215,39.81915 -0.1908,25.07223 -0.019,59.09612 0.1005,93.52917 0.1196,34.43305 0.1865,69.27526 -0.1284,95.98411 -0.3149,26.70886 -1.0044,45.28436 -2.3646,47.18399 -1.3601,1.89964 -2.0285,-14.7742 -2.3885,-40.92372 -0.36,-26.14952 -0.4207,-61.77471 -0.5415,-97.7778 -0.1207,-36.00308 -0.3019,-72.38406 -0.8078,-100.04512 -0.5058,-27.66106 -1.3279,-46.60221 -2.6956,-47.72566 -1.3677,-1.12345 -1.9119,16.69265 -2.0844,44.15694 -0.1725,27.46429 0.017,64.57676 0.1443,102.04606 0.1272,37.4693 0.1918,75.29542 -0.1296,104.187 -0.3214,28.89158 -1.0199,48.84862 -2.3807,50.57976 -1.3607,1.73113 -2.0208,-16.49353 -2.3745,-44.86207 -0.3538,-28.36854 -0.4119,-66.88096 -0.5395,-105.72534 -0.1276,-38.84438 -0.3251,-78.02072 -0.8471,-107.7171 -0.522,-29.69638 -1.3587,-49.9128 -2.7252,-50.83734 -1.3665,-0.92454 -1.8949,18.36629 -2.0512,47.92286 -0.1564,29.55657 0.049,69.37889 0.1816,109.51732 0.1331,40.13844 0.1938,80.59299 -0.1347,111.41404 -0.3285,30.82105 -1.0362,52.0086 -2.3974,53.61302 -1.3613,1.60441 -2.0126,-17.97791 -2.3595,-48.30124 -0.3468,-30.32334 -0.4009,-71.3877 -0.5336,-112.74736 -0.1328,-41.35966 -0.3444,-83.01463 -0.8808,-114.51918 -0.5364,-31.50456 -1.3863,-52.8587 -2.7517,-53.61672 -1.3653,-0.75802 -1.8796,19.83737 -2.0216,51.25096 -0.142,31.41359 0.076,73.64539 0.2135,116.16019 0.1373,42.5148 0.1932,85.3126 -0.143,117.8582 -0.3363,32.5456 -1.0533,54.839 -2.4149,56.345 -1.3616,1.506 -2.0041,-19.28085 -2.3433,-51.34657 -0.3393,-32.06572 -0.3885,-75.4103 -0.5248,-119.01976 -0.1364,-43.60946 -0.3603,-87.4838 -0.9094,-120.60904 -0.5491,-33.12523 -1.4109,-55.50136 -2.7752,-56.11439 -1.3644,-0.61303 -1.8659,21.14952 -1.9952,54.22742 -0.1293,33.0779 0.1003,77.47115 0.2404,122.11953 0.14,44.64837 0.1902,89.55188 -0.1542,123.65028 -0.3444,34.0984 -1.0708,57.39171 -2.4327,58.81968 -1.362,1.42798 -1.9954,-20.43697 -2.3266,-54.0678 -0.3313,-33.63083 -0.3746,-79.02755 -0.5132,-124.6631 -0.1387,-45.63556 -0.3729,-91.50995 -0.9332,-126.09615 -0.5603,-34.58619 -1.4328,-57.88418 -2.7962,-58.36693 -1.3634,-0.48275 -1.8534,22.33207 -1.9716,56.91118 -0.1182,34.57911 0.121,80.92252 0.2626,127.49695 0.1416,46.57442 0.1852,93.37986 -0.1678,128.88305 -0.3529,35.50319 -1.0887,59.70412 -2.451,61.06952 -1.3622,1.3654 -1.9866,-21.46987 -2.3094,-56.51348 -0.3227,-35.04361 -0.3594,-82.29555 -0.499,-129.76349 -0.1397,-47.46793 -0.3827,-95.15186 -0.9526,-131.05943 -0.57,-35.90758 -1.4521,-60.03881 -2.8145,-60.40135 -1.3625,-0.36254 -1.8422,23.40581 -1.9508,59.34445 -0.1086,35.93864 0.1385,84.04757 0.2804,132.36619 0.1418,48.31863 0.1782,96.84695 -0.1837,133.62438 -0.3619,36.77742 -1.1071,61.80395 -2.4696,63.11898 -1.3625,1.31504 -1.9778,-22.39629 -2.2917,-58.71855 -0.314,-36.32226 -0.3433,-85.25546 -0.4828,-134.38417 -0.1395,-49.1287 -0.3895,-98.45291 -0.9677,-135.55721 -0.5782,-37.10429 -1.4687,-61.98867 -2.8302,-62.2377 -1.3616,-0.24903 -1.8322,24.38603 -1.9326,61.55836 -0.1005,37.17234 0.1529,86.88195 0.2939,136.78203 0.1409,49.90008 0.1693,99.99063 -0.2018,137.92484 -0.371,37.9342 -1.1257,63.71206 -2.4884,64.98677 -1.3628,1.27471 -1.9689,-23.22836 -2.2738,-60.7087 -0.3048,-37.48034 -0.326,-87.93796 -0.4642,-138.57237 -0.1382,-50.63441 -0.3936,-101.44561 -0.9787,-139.63311 -0.5851,-38.1875 -1.4828,-63.75129 -2.8435,-63.8909 -1.3607,-0.1396 -1.8233,25.28434 -1.917,63.57646 -0.094,38.29213 0.1643,89.45244 0.3033,140.78556 0.1389,51.33313 0.1586,102.83908 -0.2219,141.82248 -0.3806,38.98341 -1.1446,65.44427 -2.5076,66.68722 -1.3631,1.24296 -1.96,-23.97492 -2.2555,-62.50291 -0.2954,-38.52798 -0.3078,-90.36607 -0.4436,-142.36354 -0.1357,-51.99747 -0.395,-104.15431 -0.9856,-143.31981 -0.5905,-39.16549 -1.4943,-65.33964 -2.8541,-65.3717 -1.3598,-0.0321 -1.8157,26.10978 -1.904,65.41677 -0.088,39.30699 0.1726,91.77912 0.3084,144.40761 0.1358,52.62849 0.1462,105.41334 -0.2441,145.34577 -0.3903,39.93243 -1.1636,67.01244 -2.5269,68.23125 -1.3633,1.21882 -1.9512,-24.64242 -2.2369,-64.11512 -0.2858,-39.47271 -0.2888,-92.55689 -0.421,-145.78398 -0.1322,-53.22709 -0.3937,-106.59708 -0.9883,-146.64141 -0.5946,-40.04434 -1.5033,-66.76301 -2.8622,-66.68745 -1.359,0.0756 -1.8092,26.86958 -1.8937,67.09321 -0.084,40.22362 0.178,93.87687 0.3095,147.67087 0.1316,53.79401 0.132,107.72879 -0.2683,148.51549 -0.4003,40.7867 -1.1829,68.42532 -2.5465,69.62702 -1.3635,1.2017 -1.9424,-25.23532 -2.2182,-65.55522 -0.2758,-40.3199 -0.2688,-94.5227 -0.3963,-148.85255 -0.1275,-54.32986 -0.3897,-108.78678 -0.9869,-149.61493 -0.5972,-40.82815 -1.5096,-68.02754 -2.8677,-67.84233 -1.358,0.1852 -1.8039,27.56958 -1.8859,68.61644 -0.082,41.04685 0.1802,95.75618 0.3064,150.59128 0.1261,54.83509 0.116,109.79596 -0.2946,151.34589 -0.4106,41.54994 -1.2024,69.68894 -2.5662,70.8803 -1.3638,1.19136 -1.9337,-25.75643 -2.1993,-66.82959 -0.2657,-41.07316 -0.2479,-96.27167 -0.3696,-151.58174 -0.1216,-55.31007 -0.3828,-110.7317 -0.9812,-152.25108 -0.5984,-41.51938 -1.5133,-69.13652 -2.8704,-68.83761 -1.3572,0.29891 -1.7998,28.21474 -1.8809,69.99459 -0.081,41.77985 0.1793,97.42372 0.2988,153.1787 0.1196,55.75499 0.098,111.62109 -0.3229,153.84541 -0.4211,42.22432 -1.2221,70.80686 -2.5862,71.99472 -1.3641,1.18785 -1.9251,-26.20707 -2.1802,-67.94144 -0.2552,-41.73436 -0.2261,-97.80817 -0.3407,-153.97808 -0.1146,-56.16992 -0.3731,-112.43594 -0.9711,-154.55473 -0.598,-42.11879 -1.5141,-70.09035 -2.8703,-69.67135 -1.3562,0.419 -1.7969,28.80933 -1.8786,71.23361 -0.082,42.42427 0.1749,98.8825 0.2867,155.4373 0.1117,56.5548 0.079,113.20617 -0.3534,156.01673 -0.4319,42.81056 -1.242,71.78031 -2.6065,72.97188 -1.3644,1.19156 -1.9165,-26.58696 -2.161,-68.89074 -0.2444,-42.30377 -0.2032,-99.1328 -0.3096,-156.04223 -0.1063,-56.90944 -0.3603,-113.89928 -0.9563,-156.52469 -0.5959,-42.62541 -1.5119,-70.88639 -2.8672,-70.3381 -1.3552,0.5483 -1.7953,29.3573 -1.8793,72.3376 -0.084,42.9803 0.1672,100.13189 0.2698,157.36536 0.1027,57.23347 0.057,114.54881 -0.3862,157.8566 -0.4429,43.3078 -1.2621,72.60806 -2.6269,73.81135 -1.3648,1.20329 -1.9082,-26.89414 -2.1416,-69.67398 -0.2334,-42.77985 -0.1794,-100.24211 -0.2762,-157.76848 -0.097,-57.52637 -0.3443,-115.11684 -0.9366,-158.15311 -0.5922,-43.03627 -1.5066,-71.51834 -2.8608,-70.82789 -1.3542,0.69045 -1.7952,29.86264 -1.8831,73.30908 -0.088,43.44643 0.1555,101.16711 0.2477,158.95454 0.092,57.78742 0.033,115.64159 -0.4214,159.355 -0.4544,43.71341 -1.2826,73.28607 -2.6477,74.51046 -1.3652,1.2244 -1.9,-27.12451 -2.1221,-70.28345 -0.222,-43.15894 -0.1545,-101.1279 -0.2402,-159.14361 -0.086,-58.0157 -0.3249,-116.07815 -0.9115,-159.42405 -0.5867,-43.34591 -1.498,-71.97527 -2.8511,-71.12481 -1.3531,0.85046 -1.7964,30.32988 -1.8903,74.14919 -0.094,43.81931 0.1399,101.97851 0.2201,160.18854 0.08,58.21003 0.01,116.47088 -0.4594,160.4935 -0.466,44.02262 -1.3031,73.807 -2.6688,75.06408 -1.3657,1.25708 -1.8919,-27.27115 -2.1024,-70.70588 -0.2104,-43.43473 -0.1283,-101.77596 -0.2015,-160.14487 -0.073,-58.36892 -0.3015,-116.76551 -0.8806,-160.31098 -0.579,-43.54546 -1.4853,-72.23979 -2.8373,-71.20418 -1.3519,1.0356 -1.7992,30.765 -1.9012,74.85812 -0.102,44.09312 0.1196,102.54996 0.1861,161.04047 0.067,58.49051 -0.022,117.01469 -0.5002,161.24247 -0.4781,44.22778 -1.3242,74.15917 -2.6904,75.4641 -1.3663,1.30493 -1.8842,-27.3229 -2.0825,-70.92009 -0.1984,-43.59719 -0.1009,-102.16375 -0.1597,-160.73627 -0.059,-58.57253 -0.2739,-117.15104 -0.843,-160.77212 -0.5691,-43.62108 -1.4686,-72.28475 -2.8192,-71.0276 -1.3505,1.25715 -1.8039,31.17716 -1.9163,75.43591 -0.1125,44.25876 0.094,102.85625 0.145,161.46836 0.051,58.6121 -0.054,117.23882 -0.5445,161.55602 -0.4907,44.3172 -1.3456,74.32488 -2.7126,75.69891 -1.367,1.37404 -1.8767,-27.26174 -2.0625,-70.89244 -0.1859,-43.6307 -0.072,-102.25632 -0.1142,-160.86195 -0.042,-58.60564 -0.2413,-117.19129 -0.7978,-160.74206 -0.5565,-43.55078 -1.4467,-72.06666 -2.7958,-70.53277 -1.349,1.5339 -1.8106,31.58241 -1.9364,75.88459 -0.1258,44.30218 0.063,102.85803 0.096,161.40656 0.033,58.54854 -0.089,117.08978 -0.593,161.36274 -0.5038,44.27297 -1.3676,74.27767 -2.7356,75.75314 -1.3679,1.47546 -1.8696,-27.05739 -2.0424,-70.56783 -0.1729,-43.51045 -0.041,-101.99848 -0.064,-160.43336 -0.024,-58.43487 -0.2027,-116.8166 -0.7433,-160.11444 -0.5407,-43.29784 -1.4188,-71.51178 -2.766,-69.61111 -1.3473,1.90068 -1.8198,32.01303 -1.9624,76.21442 -0.1427,44.20139 0.023,102.49181 0.036,160.74862 0.012,58.25681 -0.1291,116.48001 -0.6468,160.54696 -0.5176,44.06695 -1.3904,73.97765 -2.7598,75.60946 -1.3694,1.6318 -1.8632,-26.65414 -2.0223,-69.84895 -0.1591,-43.1948 -0.01,-101.29847 -0.01,-159.30211 -0,-58.00364 -0.1565,-115.90726 -0.677,-158.70195 -0.5206,-42.7947 -1.3829,-70.48048 -2.7278,-68.04845 -1.3449,2.43202 -1.8319,32.54483 -1.9961,76.46468 -0.1642,43.91985 -0.026,101.64675 -0.038,159.30697 -0.012,57.66022 -0.1749,115.25377 -0.7075,158.9069 -0.5326,43.65314 -1.4146,73.36586 -2.7863,75.26446 -1.3717,1.89859 -1.8582,-25.93309 -2.0024,-68.54039 -0.1443,-42.60731 0.03,-99.99024 0.055,-157.19415 0.025,-57.20392 -0.1,-114.22881 -0.5941,-156.12004 -0.4946,-41.89123 -1.3353,-68.64879 -2.6768,-65.31804 -1.3415,3.33074 -1.8482,33.40262 -2.041,76.79137 -0.1929,43.38875 -0.091,100.09436 -0.1335,156.69259 -0.043,56.59823 -0.2299,113.08906 -0.7795,156.04825 -0.5495,42.95918 -1.4421,72.38672 -2.8186,74.85834 -1.3765,2.47162 -1.8559,-24.56269 -1.9833,-66.15923 -0.1273,-41.59653 0.074,-97.75527 0.1331,-153.53251 0.059,-55.77723 -0.025,-111.17295 -0.4834,-151.24344 -0.4581,-40.07048 -1.2659,-64.81573 -2.6005,-59.29202 -1.3347,5.52372 -1.873,35.32261 -2.1089,77.38991 -0.236,42.06729 -0.1853,96.40298 -0.2684,151.00029 -0.083,54.59731 -0.3005,109.45624 -0.88,152.57 -0.5794,43.11376 -1.5061,74.48235 -2.9245,82.099 -1.4184,7.61665 -1.9209,-13.38388 -2.0281,-49.6532 -0.1073,-36.26932 0.1592,-87.80742 0.3024,-141.26593 0.1433,-53.45851 0.1606,-108.83742 -0.2391,-152.78834 -0.3997,-43.95091 -1.2002,-76.47384 -2.5876,-84.22039 -1.3873,-7.74655 -1.9707,14.6496 -2.2275,52.40363 -0.2568,37.75404 -0.2109,90.86595 -0.2979,144.55091 -0.087,53.68496 -0.3077,107.94298 -0.8692,147.98922 -0.5615,40.04624 -1.4415,65.88071 -2.7783,62.71859 -1.3368,-3.16213 -1.7977,-32.25054 -1.9174,-74.3864 -0.1197,-42.13587 0.084,-97.3192 0.1496,-152.67117 0.066,-55.35198 -0.01,-110.8726 -0.4695,-153.68305 -0.463,-42.81045 -1.2993,-72.91073 -2.6811,-77.42203 -1.3818,-4.51129 -1.9192,21.12022 -2.1249,61.9728 -0.2058,40.85258 -0.1038,96.92624 -0.1472,153.29923 -0.043,56.37299 -0.2325,113.04531 -0.7772,155.09523 -0.5447,42.04992 -1.4218,69.47744 -2.7673,67.36082 -1.3455,-2.11662 -1.8175,-31.61574 -1.9554,-74.85808 -0.1379,-43.24234 0.039,-100.2279 0.068,-157.3174 0.029,-57.0895 -0.089,-114.28294 -0.5887,-157.94104 -0.4999,-43.65811 -1.3619,-73.78087 -2.7382,-76.72902 -1.3763,-2.94815 -1.8855,24.23489 -2.0589,66.55892 -0.1735,42.32404 -0.035,99.78906 -0.048,157.40486 -0.013,57.61581 -0.1782,115.3824 -0.7076,158.30958 -0.5294,42.92718 -1.3998,71.01494 -2.7485,69.27309 -1.3487,-1.74186 -1.8299,-31.55864 -1.9832,-75.44165 -0.1533,-43.88301 5e-4,-101.83226 0,-159.83906 0,-58.0068 -0.1494,-116.07116 -0.675,-160.18438 -0.5256,-44.11323 -1.4052,-74.27532 -2.7785,-76.4776 -1.3732,-2.20228 -1.863,25.7608 -2.0128,68.84791 -0.1498,43.0871 0.016,101.29824 0.027,159.59207 0.011,58.29382 -0.1327,116.67034 -0.648,160.08822 -0.5154,43.41788 -1.3785,71.87712 -2.7289,70.33639 -1.3505,-1.54074 -1.8405,-31.53507 -2.008,-75.7684 -0.1675,-44.23333 -0.034,-102.70566 -0.055,-161.2024 -0.021,-58.49674 -0.1977,-117.01789 -0.7429,-161.34886 -0.5451,-44.33097 -1.4378,-74.47175 -2.8089,-76.20776 -1.3711,-1.73601 -1.8464,26.67042 -1.978,70.16812 -0.1315,43.4977 0.057,102.08666 0.089,160.71569 0.032,58.62903 -0.093,117.29813 -0.5953,160.95612 -0.5021,43.65798 -1.3574,72.30485 -2.709,70.88941 -1.3516,-1.41544 -1.8505,-31.47471 -2.0313,-75.85519 -0.1809,-44.38048 -0.065,-103.08218 -0.1062,-161.78249 -0.041,-58.70032 -0.2377,-117.39924 -0.7982,-161.77417 -0.5605,-44.37493 -1.4629,-74.42587 -2.8323,-75.83021 -1.3693,-1.40434 -1.8338,27.24325 -1.9509,70.92135 -0.117,43.6781 0.089,102.38671 0.1389,161.10442 0.049,58.7177 -0.058,117.4445 -0.5476,161.15897 -0.4894,43.71448 -1.3366,72.41663 -2.6891,71.08504 -1.3525,-1.33159 -1.8601,-31.36349 -2.0538,-75.73414 -0.1936,-44.37065 -0.095,-103.08006 -0.1525,-161.76668 -0.058,-58.68661 -0.2713,-117.35043 -0.8438,-161.62991 -0.5726,-44.27948 -1.4822,-74.17462 -2.85,-75.32386 -1.3679,-1.14925 -1.8242,27.5973 -1.9299,71.28397 -0.1057,43.68666 0.1156,102.31345 0.1805,160.92469 0.065,58.61124 -0.027,117.20694 -0.504,160.83141 -0.4771,43.62447 -1.3161,72.27773 -2.6693,71.0041 -1.3531,-1.27363 -1.8696,-31.19932 -2.0755,-75.43031 -0.2059,-44.231 -0.1229,-102.76731 -0.1951,-161.26219 -0.072,-58.49489 -0.2996,-116.94835 -0.8815,-161.01366 -0.5819,-44.06531 -1.4965,-73.74245 -2.8631,-74.68471 -1.3666,-0.94225 -1.817,27.79311 -1.9138,71.34908 -0.097,43.55597 0.1366,101.93255 0.2149,160.27274 0.078,58.34018 0,116.64397 -0.4637,160.05435 -0.4654,43.41038 -1.2959,71.92735 -2.6496,70.69391 -1.3537,-1.23343 -1.879,-30.98302 -2.0968,-74.96155 -0.2178,-43.97853 -0.1495,-102.18602 -0.2345,-160.33525 -0.085,-58.14924 -0.3234,-116.24023 -0.9123,-159.98578 -0.5889,-43.74555 -1.5068,-73.14565 -2.8722,-73.91311 -1.3655,-0.76747 -1.8118,27.86553 -1.902,71.17133 -0.09,43.3058 0.1528,101.28439 0.2429,159.20813 0.09,57.92374 0.027,115.79262 -0.4264,158.87897 -0.4539,43.08635 -1.2759,71.39019 -2.63,70.18383 -1.3541,-1.20635 -1.8884,-30.71594 -2.1177,-74.34021 -0.2293,-43.62427 -0.1748,-101.36321 -0.271,-159.02824 -0.096,-57.66504 -0.3433,-115.25617 -0.9372,-158.58483 -0.5939,-43.32865 -1.5134,-72.39483 -2.8777,-73.00996 -1.3644,-0.61513 -1.8083,27.83621 -1.8939,70.78488 -0.086,42.94868 0.1649,100.39468 0.2653,157.76888 0.1004,57.3742 0.051,114.6766 -0.3918,157.33806 -0.4427,42.66146 -1.2561,70.68197 -2.6106,69.49241 -1.3545,-1.18956 -1.8977,-30.39921 -2.1382,-73.57449 -0.2405,-43.17528 -0.199,-100.31619 -0.305,-157.36826 -0.1061,-57.05206 -0.3596,-114.01529 -0.9566,-156.8352 -0.5971,-42.81992 -1.5166,-71.49653 -2.88,-71.97536 -1.3633,-0.47883 -1.8064,27.71919 -1.8891,70.21174 -0.083,42.49254 0.1732,99.27961 0.2825,155.97887 0.1093,56.69926 0.072,113.31071 -0.3597,155.45201 -0.4318,42.14131 -1.2364,69.81247 -2.5912,68.63116 -1.3549,-1.18132 -1.9072,-30.03349 -2.1586,-72.66939 -0.2514,-42.6359 -0.2221,-99.05552 -0.3366,-155.37175 -0.1145,-56.31622 -0.3726,-112.52903 -0.971,-154.75131 -0.5985,-42.22228 -1.5168,-70.45402 -2.8792,-70.8081 -1.3624,-0.35407 -1.806,27.52382 -1.8875,69.46604 -0.082,41.94222 0.1779,97.94876 0.2949,153.852 0.1169,55.90324 0.091,111.70316 -0.3298,153.23215 -0.4213,41.52898 -1.217,68.78702 -2.5721,67.60647 -1.3552,-1.18054 -1.9166,-29.61891 -2.1787,-71.62726 -0.262,-42.00834 -0.2442,-97.58666 -0.3659,-153.0471 -0.1216,-55.46044 -0.3825,-110.803 -0.9808,-152.33983 -0.5983,-41.53683 -1.5141,-69.26793 -2.8755,-69.50545 -1.3615,-0.23752 -1.807,27.25627 -1.8889,68.5564 -0.082,41.30012 0.1794,96.40658 0.3028,151.3944 0.1233,54.98782 0.1089,109.85699 -0.302,150.68255 -0.411,40.82556 -1.1978,67.6075 -2.5532,66.42085 -1.3554,-1.18666 -1.9261,-29.15511 -2.1985,-70.44821 -0.2724,-41.2931 -0.2655,-95.91085 -0.3931,-150.39608 -0.1276,-54.48523 -0.3896,-108.83794 -0.9862,-149.60099 -0.5966,-40.76304 -1.5086,-67.93641 -2.8691,-68.06295 -1.3606,-0.12655 -1.8092,26.92049 -1.893,67.48726 -0.084,40.56678 0.1777,94.65329 0.3063,148.60569 0.1287,53.9524 0.1246,107.77069 -0.2763,147.80104 -0.4009,40.03034 -1.1787,66.27274 -2.5344,65.07334 -1.3557,-1.1994 -1.9356,-28.64112 -2.2181,-69.13022 -0.2825,-40.4891 -0.2859,-94.02558 -0.4183,-147.41451 -0.1325,-53.38892 -0.3938,-106.63029 -0.9873,-146.52916 -0.5935,-39.89887 -1.5004,-66.45524 -2.8601,-66.47417 -1.3597,-0.0189 -1.8126,26.51871 -1.8997,66.25966 -0.087,39.74095 0.1729,92.68519 0.3057,145.47945 0.1327,52.79426 0.1384,105.43853 -0.2527,144.57952 -0.3911,39.141 -1.1599,64.77871 -2.5158,63.55987 -1.3559,-1.21885 -1.9451,-28.0754 -2.2375,-67.66917 -0.2924,-39.59377 -0.3054,-91.92476 -0.4415,-144.09248 -0.1362,-52.16772 -0.3953,-104.17218 -0.9842,-143.11289 -0.5889,-38.94071 -1.4897,-64.81767 -2.8485,-64.73039 -1.3589,0.0873 -1.8173,26.05174 -1.9091,64.8715 -0.092,38.81977 0.1652,90.49484 0.301,142.00334 0.1358,51.50849 0.1505,102.8504 -0.2311,141.00385 -0.3816,38.15345 -1.1413,63.11843 -2.4974,61.87307 -1.3562,-1.24537 -1.9547,-27.45577 -2.2567,-66.05872 -0.302,-38.60295 -0.3239,-89.59845 -0.4627,-140.41403 -0.1387,-50.81559 -0.3941,-101.45125 -0.977,-139.33451 -0.5829,-37.88326 -1.4764,-63.01412 -2.8344,-62.82011 -1.358,0.19401 -1.823,25.51914 -1.9209,63.31773 -0.098,37.79859 0.1546,88.07063 0.2922,138.15847 0.1377,50.08783 0.1609,99.99146 -0.2114,137.05321 -0.3724,37.06176 -1.123,61.28164 -2.4794,60.00198 -1.3564,-1.27966 -1.9643,-26.77931 -2.2756,-64.29002 -0.3113,-37.51071 -0.3416,-87.03249 -0.4818,-136.3564 -0.1403,-49.32391 -0.3903,-98.44995 -0.9659,-135.16919 -0.5755,-36.71925 -1.4605,-61.03169 -2.8177,-60.7284 -1.3571,0.30328 -1.8298,24.91931 -1.9352,61.59008 -0.1054,36.67077 0.141,85.39628 0.2794,133.91852 0.1385,48.52225 0.1694,96.84123 -0.1939,132.69894 -0.3634,35.85771 -1.1049,59.25415 -2.4616,57.93132 -1.3566,-1.32282 -1.9739,-26.04229 -2.2942,-62.3513 -0.3204,-36.30902 -0.3583,-84.20759 -0.499,-131.88863 -0.1406,-47.68104 -0.3837,-95.14456 -0.9504,-130.58347 -0.5668,-35.4389 -1.4423,-58.8532 -2.7985,-58.43581 -1.3563,0.41739 -1.8378,24.24944 -1.9521,59.6767 -0.1142,35.42726 0.1244,82.44973 0.2625,129.24796 0.1382,46.79824 0.1762,93.37223 -0.1786,127.90253 -0.3547,34.5303 -1.0871,57.01691 -2.4441,55.64037 -1.3569,-1.37653 -1.9835,-25.23996 -2.3126,-60.22711 -0.3291,-34.98715 -0.374,-81.09803 -0.5139,-126.96944 -0.1398,-45.87142 -0.3743,-91.50338 -0.9309,-125.5327 -0.5566,-34.02932 -1.4213,-56.45601 -2.7766,-55.91689 -1.3553,0.53912 -1.8469,23.50539 -1.9714,57.56133 -0.1245,34.05594 0.1047,79.20156 0.2413,124.09938 0.1367,44.89783 0.181,89.54786 -0.1655,122.61263 -0.3465,33.06477 -1.0698,54.54429 -2.4271,53.10107 -1.3572,-1.44322 -1.9932,-24.36637 -2.3307,-57.89728 -0.3375,-33.5309 -0.3886,-77.66957 -0.5264,-121.54381 -0.1378,-43.87424 -0.3621,-87.48406 -0.907,-119.95728 -0.5449,-32.47321 -1.3977,-53.80983 -2.752,-53.13767 -1.3544,0.67217 -1.8571,22.68154 -1.9933,55.2221 -0.1363,32.54056 0.082,75.6123 0.2157,118.40921 0.1339,42.7969 0.1837,85.31897 -0.1549,116.76018 -0.3387,31.4412 -1.0531,51.80154 -2.4107,50.275 -1.3575,-1.52655 -2.0029,-23.41405 -2.3483,-55.33527 -0.3455,-31.92122 -0.402,-73.87615 -0.5365,-115.53756 -0.1345,-41.66141 -0.3467,-83.02929 -0.8784,-113.77639 -0.5316,-30.74711 -1.3712,-50.87345 -2.7245,-50.05177 -1.3534,0.82168 -1.8684,21.77051 -2.0179,52.62955 -0.1496,30.85903 0.056,71.62828 0.1855,112.09079 0.1296,40.46251 0.184,80.61829 -0.1473,110.2504 -0.3312,29.6321 -1.0369,48.74054 -2.3949,47.10835 -1.3579,-1.63218 -2.0125,-22.37372 -2.3655,-52.5057 -0.3529,-30.13198 -0.4138,-69.6544 -0.5436,-108.84837 -0.1298,-39.19397 -0.328,-78.05949 -0.8448,-106.87764 -0.5167,-28.81816 -1.3416,-47.58895 -2.6938,-46.59348 -1.3522,0.99547 -1.881,20.76291 -2.0454,49.74354 -0.1645,28.98063 0.026,67.17445 0.15,105.02267 0.1241,37.84821 0.1819,75.35082 -0.1426,102.94904 -0.3246,27.59822 -1.0217,45.29205 -2.3802,43.5227 -1.3585,-1.76936 -2.0221,-21.23397 -2.382,-49.36024 -0.3598,-28.12626 -0.4241,-64.91418 -0.5474,-101.33015 -0.1234,-36.41596 -0.3056,-72.45998 -0.8055,-99.09844 -0.5,-26.63846 -1.3087,-43.87137 -2.6597,-42.66512 -1.3509,1.20625 -1.8947,19.64726 -2.0759,46.50812 -0.1812,26.86086 -0.01,62.14157 0.1088,97.02723 0.1166,34.88566 0.1766,69.37626 -0.1421,94.65691 -0.3187,25.28064 -1.0075,41.35132 -2.3667,39.39714 -1.3591,-1.95418 -2.0317,-19.98145 -2.3977,-45.83081 -0.3659,-25.84935 -0.4321,-59.52081 -0.5472,-92.76337 -0.2301,-66.48512 -0.682,-131.25469 -3.3808,-128.30079 -1.3495,1.47694 -1.9098,18.41103 -2.1099,42.84274 -0.2001,24.43172 -0.046,56.36108 0.061,87.82856 0.2139,62.93496 0.2184,124.02243 -2.5017,119.58636 -2.7202,-4.43606 -2.7453,-65.54169 -2.9539,-124.61085 -0.2086,-59.06916 -0.5881,-116.10185 -3.2831,-112.39205 -2.6949,3.70981 -2.333,60.76905 -2.144,115.58444 0.1889,54.8154 0.2181,107.38696 -2.505,102.1214 -2.723,-5.26555 -2.7735,-57.87974 -2.9538,-107.94668 -0.1803,-50.06694 -0.477,-97.58663 -3.1663,-92.66319 -2.6893,4.92345 -2.4114,52.51797 -2.2559,97.17217 0.1555,44.65419 0.2027,86.36806 -2.5258,79.53018 -2.7286,-6.83788 -2.7983,-48.71338 -2.9392,-86.98963 -0.1408,-38.27624 -0.338,-72.95323 -3.0162,-65.3941 -2.6783,7.55913 -2.4999,42.7563 -2.3946,73.04565 0.1053,30.28934 0.1545,55.67086 -2.5927,43.59867 -2.7472,-12.07218 -3.4876,-33.69699 -3.5566,-52.30376 -0.069,-18.60677 0.5376,-34.19549 0.5376,-34.19549"
         style="fill:none;stroke:#ff0000;stroke-width:4;stroke-miterlimit:4;stroke-opacity:1"
         id="path3067"
         inkscape:path-effect="#path-effect3018"
         inkscape:original-d="m 1906.6793,513.93662 c 0,218.04332 -306.6793,318.2144 -306.6793,445.91518 0,-127.66281 -306.6793,-227.87186 -306.6793,-445.91518 0,-218.04333 308.4419,-246.83956 306.6793,47.58775 0,-296.1018 306.6793,-265.63108 306.6793,-47.58775 z" />
    </g>
    <g
       id="g3069"
       transform="translate(399.99998,-100)">
      <path
         id="path3071"
         sodipodi:nodetypes="scscs"
         inkscape:connector-curvature="0"
         d="m 1906.6793,513.93662 c 0,218.04332 -306.6793,318.2144 -306.6793,445.91518 0,-127.66281 -306.6793,-227.87186 -306.6793,-445.91518 0,-218.04333 308.4419,-246.83956 306.6793,47.58775 0,-296.1018 306.6793,-265.63108 306.6793,-47.58775 z"
         style="fill:none;stroke:#ff0000;stroke-width:4;stroke-miterlimit:4;stroke-opacity:1" />
      <path
         inkscape:original-d="m 1906.6793,513.93662 c 0,218.04332 -306.6793,318.2144 -306.6793,445.91518 0,-127.66281 -306.6793,-227.87186 -306.6793,-445.91518 0,-218.04333 308.4419,-246.83956 306.6793,47.58775 0,-296.1018 306.6793,-265.63108 306.6793,-47.58775 z"
         inkscape:path-effect="#path-effect3018"
         id="path3073"
         style="fill:none;stroke:#ff0000;stroke-width:4;stroke-miterlimit:4;stroke-opacity:1"
         d="m 1905.612,536.06213 c 0,0 2.6246,-30.60098 -2.9541,-60.62318 -2.7893,-15.0111 -2.6833,5.70359 -2.5809,32.52104 0.1023,26.81746 0.182,59.73767 -2.5184,69.13761 -2.7004,9.39994 -2.7534,-22.42507 -2.8797,-58.20439 -0.1263,-35.77933 -0.3413,-75.51298 -3.097,-81.93031 -2.7557,-6.41733 -2.5211,33.0851 -2.3636,75.75155 0.1576,42.66644 0.2238,88.49691 -2.4879,94.73565 -2.7117,6.23874 -2.7557,-39.49409 -2.9257,-87.90013 -0.17,-48.40603 -0.4799,-99.48528 -3.2269,-103.93936 -2.747,-4.45408 -2.4186,46.57354 -2.2255,99.96074 0.1931,53.38721 0.2376,109.13399 -2.4785,114.11824 -2.7161,4.98425 -2.7394,-50.7309 -2.94,-108.54822 -0.2006,-57.81731 -0.5916,-117.73679 -3.3335,-121.16121 -2.742,-3.42442 -2.3339,56.47429 -2.1147,118.29668 0.1096,30.9112 0.1773,62.30332 -0.1322,86.50143 -0.3094,24.19811 -0.9902,41.20221 -2.3495,43.33737 -2.7186,4.27032 -2.7158,-59.46111 -2.9395,-124.94692 -0.1119,-32.74291 -0.2742,-65.92442 -0.7618,-91.2636 -0.4876,-25.33919 -1.2936,-42.83605 -2.6628,-44.20968 -1.3691,-1.37362 -1.9307,14.74693 -2.1215,39.81915 -0.1908,25.07223 -0.019,59.09612 0.1005,93.52917 0.1196,34.43305 0.1865,69.27526 -0.1284,95.98411 -0.3149,26.70886 -1.0044,45.28436 -2.3646,47.18399 -1.3601,1.89964 -2.0285,-14.7742 -2.3885,-40.92372 -0.36,-26.14952 -0.4207,-61.77471 -0.5415,-97.7778 -0.1207,-36.00308 -0.3019,-72.38406 -0.8078,-100.04512 -0.5058,-27.66106 -1.3279,-46.60221 -2.6956,-47.72566 -1.3677,-1.12345 -1.9119,16.69265 -2.0844,44.15694 -0.1725,27.46429 0.017,64.57676 0.1443,102.04606 0.1272,37.4693 0.1918,75.29542 -0.1296,104.187 -0.3214,28.89158 -1.0199,48.84862 -2.3807,50.57976 -1.3607,1.73113 -2.0208,-16.49353 -2.3745,-44.86207 -0.3538,-28.36854 -0.4119,-66.88096 -0.5395,-105.72534 -0.1276,-38.84438 -0.3251,-78.02072 -0.8471,-107.7171 -0.522,-29.69638 -1.3587,-49.9128 -2.7252,-50.83734 -1.3665,-0.92454 -1.8949,18.36629 -2.0512,47.92286 -0.1564,29.55657 0.049,69.37889 0.1816,109.51732 0.1331,40.13844 0.1938,80.59299 -0.1347,111.41404 -0.3285,30.82105 -1.0362,52.0086 -2.3974,53.61302 -1.3613,1.60441 -2.0126,-17.97791 -2.3595,-48.30124 -0.3468,-30.32334 -0.4009,-71.3877 -0.5336,-112.74736 -0.1328,-41.35966 -0.3444,-83.01463 -0.8808,-114.51918 -0.5364,-31.50456 -1.3863,-52.8587 -2.7517,-53.61672 -1.3653,-0.75802 -1.8796,19.83737 -2.0216,51.25096 -0.142,31.41359 0.076,73.64539 0.2135,116.16019 0.1373,42.5148 0.1932,85.3126 -0.143,117.8582 -0.3363,32.5456 -1.0533,54.839 -2.4149,56.345 -1.3616,1.506 -2.0041,-19.28085 -2.3433,-51.34657 -0.3393,-32.06572 -0.3885,-75.4103 -0.5248,-119.01976 -0.1364,-43.60946 -0.3603,-87.4838 -0.9094,-120.60904 -0.5491,-33.12523 -1.4109,-55.50136 -2.7752,-56.11439 -1.3644,-0.61303 -1.8659,21.14952 -1.9952,54.22742 -0.1293,33.0779 0.1003,77.47115 0.2404,122.11953 0.14,44.64837 0.1902,89.55188 -0.1542,123.65028 -0.3444,34.0984 -1.0708,57.39171 -2.4327,58.81968 -1.362,1.42798 -1.9954,-20.43697 -2.3266,-54.0678 -0.3313,-33.63083 -0.3746,-79.02755 -0.5132,-124.6631 -0.1387,-45.63556 -0.3729,-91.50995 -0.9332,-126.09615 -0.5603,-34.58619 -1.4328,-57.88418 -2.7962,-58.36693 -1.3634,-0.48275 -1.8534,22.33207 -1.9716,56.91118 -0.1182,34.57911 0.121,80.92252 0.2626,127.49695 0.1416,46.57442 0.1852,93.37986 -0.1678,128.88305 -0.3529,35.50319 -1.0887,59.70412 -2.451,61.06952 -1.3622,1.3654 -1.9866,-21.46987 -2.3094,-56.51348 -0.3227,-35.04361 -0.3594,-82.29555 -0.499,-129.76349 -0.1397,-47.46793 -0.3827,-95.15186 -0.9526,-131.05943 -0.57,-35.90758 -1.4521,-60.03881 -2.8145,-60.40135 -1.3625,-0.36254 -1.8422,23.40581 -1.9508,59.34445 -0.1086,35.93864 0.1385,84.04757 0.2804,132.36619 0.1418,48.31863 0.1782,96.84695 -0.1837,133.62438 -0.3619,36.77742 -1.1071,61.80395 -2.4696,63.11898 -1.3625,1.31504 -1.9778,-22.39629 -2.2917,-58.71855 -0.314,-36.32226 -0.3433,-85.25546 -0.4828,-134.38417 -0.1395,-49.1287 -0.3895,-98.45291 -0.9677,-135.55721 -0.5782,-37.10429 -1.4687,-61.98867 -2.8302,-62.2377 -1.3616,-0.24903 -1.8322,24.38603 -1.9326,61.55836 -0.1005,37.17234 0.1529,86.88195 0.2939,136.78203 0.1409,49.90008 0.1693,99.99063 -0.2018,137.92484 -0.371,37.9342 -1.1257,63.71206 -2.4884,64.98677 -1.3628,1.27471 -1.9689,-23.22836 -2.2738,-60.7087 -0.3048,-37.48034 -0.326,-87.93796 -0.4642,-138.57237 -0.1382,-50.63441 -0.3936,-101.44561 -0.9787,-139.63311 -0.5851,-38.1875 -1.4828,-63.75129 -2.8435,-63.8909 -1.3607,-0.1396 -1.8233,25.28434 -1.917,63.57646 -0.094,38.29213 0.1643,89.45244 0.3033,140.78556 0.1389,51.33313 0.1586,102.83908 -0.2219,141.82248 -0.3806,38.98341 -1.1446,65.44427 -2.5076,66.68722 -1.3631,1.24296 -1.96,-23.97492 -2.2555,-62.50291 -0.2954,-38.52798 -0.3078,-90.36607 -0.4436,-142.36354 -0.1357,-51.99747 -0.395,-104.15431 -0.9856,-143.31981 -0.5905,-39.16549 -1.4943,-65.33964 -2.8541,-65.3717 -1.3598,-0.0321 -1.8157,26.10978 -1.904,65.41677 -0.088,39.30699 0.1726,91.77912 0.3084,144.40761 0.1358,52.62849 0.1462,105.41334 -0.2441,145.34577 -0.3903,39.93243 -1.1636,67.01244 -2.5269,68.23125 -1.3633,1.21882 -1.9512,-24.64242 -2.2369,-64.11512 -0.2858,-39.47271 -0.2888,-92.55689 -0.421,-145.78398 -0.1322,-53.22709 -0.3937,-106.59708 -0.9883,-146.64141 -0.5946,-40.04434 -1.5033,-66.76301 -2.8622,-66.68745 -1.359,0.0756 -1.8092,26.86958 -1.8937,67.09321 -0.084,40.22362 0.178,93.87687 0.3095,147.67087 0.1316,53.79401 0.132,107.72879 -0.2683,148.51549 -0.4003,40.7867 -1.1829,68.42532 -2.5465,69.62702 -1.3635,1.2017 -1.9424,-25.23532 -2.2182,-65.55522 -0.2758,-40.3199 -0.2688,-94.5227 -0.3963,-148.85255 -0.1275,-54.32986 -0.3897,-108.78678 -0.9869,-149.61493 -0.5972,-40.82815 -1.5096,-68.02754 -2.8677,-67.84233 -1.358,0.1852 -1.8039,27.56958 -1.8859,68.61644 -0.082,41.04685 0.1802,95.75618 0.3064,150.59128 0.1261,54.83509 0.116,109.79596 -0.2946,151.34589 -0.4106,41.54994 -1.2024,69.68894 -2.5662,70.8803 -1.3638,1.19136 -1.9337,-25.75643 -2.1993,-66.82959 -0.2657,-41.07316 -0.2479,-96.27167 -0.3696,-151.58174 -0.1216,-55.31007 -0.3828,-110.7317 -0.9812,-152.25108 -0.5984,-41.51938 -1.5133,-69.13652 -2.8704,-68.83761 -1.3572,0.29891 -1.7998,28.21474 -1.8809,69.99459 -0.081,41.77985 0.1793,97.42372 0.2988,153.1787 0.1196,55.75499 0.098,111.62109 -0.3229,153.84541 -0.4211,42.22432 -1.2221,70.80686 -2.5862,71.99472 -1.3641,1.18785 -1.9251,-26.20707 -2.1802,-67.94144 -0.2552,-41.73436 -0.2261,-97.80817 -0.3407,-153.97808 -0.1146,-56.16992 -0.3731,-112.43594 -0.9711,-154.55473 -0.598,-42.11879 -1.5141,-70.09035 -2.8703,-69.67135 -1.3562,0.419 -1.7969,28.80933 -1.8786,71.23361 -0.082,42.42427 0.1749,98.8825 0.2867,155.4373 0.1117,56.5548 0.079,113.20617 -0.3534,156.01673 -0.4319,42.81056 -1.242,71.78031 -2.6065,72.97188 -1.3644,1.19156 -1.9165,-26.58696 -2.161,-68.89074 -0.2444,-42.30377 -0.2032,-99.1328 -0.3096,-156.04223 -0.1063,-56.90944 -0.3603,-113.89928 -0.9563,-156.52469 -0.5959,-42.62541 -1.5119,-70.88639 -2.8672,-70.3381 -1.3552,0.5483 -1.7953,29.3573 -1.8793,72.3376 -0.084,42.9803 0.1672,100.13189 0.2698,157.36536 0.1027,57.23347 0.057,114.54881 -0.3862,157.8566 -0.4429,43.3078 -1.2621,72.60806 -2.6269,73.81135 -1.3648,1.20329 -1.9082,-26.89414 -2.1416,-69.67398 -0.2334,-42.77985 -0.1794,-100.24211 -0.2762,-157.76848 -0.097,-57.52637 -0.3443,-115.11684 -0.9366,-158.15311 -0.5922,-43.03627 -1.5066,-71.51834 -2.8608,-70.82789 -1.3542,0.69045 -1.7952,29.86264 -1.8831,73.30908 -0.088,43.44643 0.1555,101.16711 0.2477,158.95454 0.092,57.78742 0.033,115.64159 -0.4214,159.355 -0.4544,43.71341 -1.2826,73.28607 -2.6477,74.51046 -1.3652,1.2244 -1.9,-27.12451 -2.1221,-70.28345 -0.222,-43.15894 -0.1545,-101.1279 -0.2402,-159.14361 -0.086,-58.0157 -0.3249,-116.07815 -0.9115,-159.42405 -0.5867,-43.34591 -1.498,-71.97527 -2.8511,-71.12481 -1.3531,0.85046 -1.7964,30.32988 -1.8903,74.14919 -0.094,43.81931 0.1399,101.97851 0.2201,160.18854 0.08,58.21003 0.01,116.47088 -0.4594,160.4935 -0.466,44.02262 -1.3031,73.807 -2.6688,75.06408 -1.3657,1.25708 -1.8919,-27.27115 -2.1024,-70.70588 -0.2104,-43.43473 -0.1283,-101.77596 -0.2015,-160.14487 -0.073,-58.36892 -0.3015,-116.76551 -0.8806,-160.31098 -0.579,-43.54546 -1.4853,-72.23979 -2.8373,-71.20418 -1.3519,1.0356 -1.7992,30.765 -1.9012,74.85812 -0.102,44.09312 0.1196,102.54996 0.1861,161.04047 0.067,58.49051 -0.022,117.01469 -0.5002,161.24247 -0.4781,44.22778 -1.3242,74.15917 -2.6904,75.4641 -1.3663,1.30493 -1.8842,-27.3229 -2.0825,-70.92009 -0.1984,-43.59719 -0.1009,-102.16375 -0.1597,-160.73627 -0.059,-58.57253 -0.2739,-117.15104 -0.843,-160.77212 -0.5691,-43.62108 -1.4686,-72.28475 -2.8192,-71.0276 -1.3505,1.25715 -1.8039,31.17716 -1.9163,75.43591 -0.1125,44.25876 0.094,102.85625 0.145,161.46836 0.051,58.6121 -0.054,117.23882 -0.5445,161.55602 -0.4907,44.3172 -1.3456,74.32488 -2.7126,75.69891 -1.367,1.37404 -1.8767,-27.26174 -2.0625,-70.89244 -0.1859,-43.6307 -0.072,-102.25632 -0.1142,-160.86195 -0.042,-58.60564 -0.2413,-117.19129 -0.7978,-160.74206 -0.5565,-43.55078 -1.4467,-72.06666 -2.7958,-70.53277 -1.349,1.5339 -1.8106,31.58241 -1.9364,75.88459 -0.1258,44.30218 0.063,102.85803 0.096,161.40656 0.033,58.54854 -0.089,117.08978 -0.593,161.36274 -0.5038,44.27297 -1.3676,74.27767 -2.7356,75.75314 -1.3679,1.47546 -1.8696,-27.05739 -2.0424,-70.56783 -0.1729,-43.51045 -0.041,-101.99848 -0.064,-160.43336 -0.024,-58.43487 -0.2027,-116.8166 -0.7433,-160.11444 -0.5407,-43.29784 -1.4188,-71.51178 -2.766,-69.61111 -1.3473,1.90068 -1.8198,32.01303 -1.9624,76.21442 -0.1427,44.20139 0.023,102.49181 0.036,160.74862 0.012,58.25681 -0.1291,116.48001 -0.6468,160.54696 -0.5176,44.06695 -1.3904,73.97765 -2.7598,75.60946 -1.3694,1.6318 -1.8632,-26.65414 -2.0223,-69.84895 -0.1591,-43.1948 -0.01,-101.29847 -0.01,-159.30211 -0,-58.00364 -0.1565,-115.90726 -0.677,-158.70195 -0.5206,-42.7947 -1.3829,-70.48048 -2.7278,-68.04845 -1.3449,2.43202 -1.8319,32.54483 -1.9961,76.46468 -0.1642,43.91985 -0.026,101.64675 -0.038,159.30697 -0.012,57.66022 -0.1749,115.25377 -0.7075,158.9069 -0.5326,43.65314 -1.4146,73.36586 -2.7863,75.26446 -1.3717,1.89859 -1.8582,-25.93309 -2.0024,-68.54039 -0.1443,-42.60731 0.03,-99.99024 0.055,-157.19415 0.025,-57.20392 -0.1,-114.22881 -0.5941,-156.12004 -0.4946,-41.89123 -1.3353,-68.64879 -2.6768,-65.31804 -1.3415,3.33074 -1.8482,33.40262 -2.041,76.79137 -0.1929,43.38875 -0.091,100.09436 -0.1335,156.69259 -0.043,56.59823 -0.2299,113.08906 -0.7795,156.04825 -0.5495,42.95918 -1.4421,72.38672 -2.8186,74.85834 -1.3765,2.47162 -1.8559,-24.56269 -1.9833,-66.15923 -0.1273,-41.59653 0.074,-97.75527 0.1331,-153.53251 0.059,-55.77723 -0.025,-111.17295 -0.4834,-151.24344 -0.4581,-40.07048 -1.2659,-64.81573 -2.6005,-59.29202 -1.3347,5.52372 -1.873,35.32261 -2.1089,77.38991 -0.236,42.06729 -0.1853,96.40298 -0.2684,151.00029 -0.083,54.59731 -0.3005,109.45624 -0.88,152.57 -0.5794,43.11376 -1.5061,74.48235 -2.9245,82.099 -1.4184,7.61665 -1.9209,-13.38388 -2.0281,-49.6532 -0.1073,-36.26932 0.1592,-87.80742 0.3024,-141.26593 0.1433,-53.45851 0.1606,-108.83742 -0.2391,-152.78834 -0.3997,-43.95091 -1.2002,-76.47384 -2.5876,-84.22039 -1.3873,-7.74655 -1.9707,14.6496 -2.2275,52.40363 -0.2568,37.75404 -0.2109,90.86595 -0.2979,144.55091 -0.087,53.68496 -0.3077,107.94298 -0.8692,147.98922 -0.5615,40.04624 -1.4415,65.88071 -2.7783,62.71859 -1.3368,-3.16213 -1.7977,-32.25054 -1.9174,-74.3864 -0.1197,-42.13587 0.084,-97.3192 0.1496,-152.67117 0.066,-55.35198 -0.01,-110.8726 -0.4695,-153.68305 -0.463,-42.81045 -1.2993,-72.91073 -2.6811,-77.42203 -1.3818,-4.51129 -1.9192,21.12022 -2.1249,61.9728 -0.2058,40.85258 -0.1038,96.92624 -0.1472,153.29923 -0.043,56.37299 -0.2325,113.04531 -0.7772,155.09523 -0.5447,42.04992 -1.4218,69.47744 -2.7673,67.36082 -1.3455,-2.11662 -1.8175,-31.61574 -1.9554,-74.85808 -0.1379,-43.24234 0.039,-100.2279 0.068,-157.3174 0.029,-57.0895 -0.089,-114.28294 -0.5887,-157.94104 -0.4999,-43.65811 -1.3619,-73.78087 -2.7382,-76.72902 -1.3763,-2.94815 -1.8855,24.23489 -2.0589,66.55892 -0.1735,42.32404 -0.035,99.78906 -0.048,157.40486 -0.013,57.61581 -0.1782,115.3824 -0.7076,158.30958 -0.5294,42.92718 -1.3998,71.01494 -2.7485,69.27309 -1.3487,-1.74186 -1.8299,-31.55864 -1.9832,-75.44165 -0.1533,-43.88301 5e-4,-101.83226 0,-159.83906 0,-58.0068 -0.1494,-116.07116 -0.675,-160.18438 -0.5256,-44.11323 -1.4052,-74.27532 -2.7785,-76.4776 -1.3732,-2.20228 -1.863,25.7608 -2.0128,68.84791 -0.1498,43.0871 0.016,101.29824 0.027,159.59207 0.011,58.29382 -0.1327,116.67034 -0.648,160.08822 -0.5154,43.41788 -1.3785,71.87712 -2.7289,70.33639 -1.3505,-1.54074 -1.8405,-31.53507 -2.008,-75.7684 -0.1675,-44.23333 -0.034,-102.70566 -0.055,-161.2024 -0.021,-58.49674 -0.1977,-117.01789 -0.7429,-161.34886 -0.5451,-44.33097 -1.4378,-74.47175 -2.8089,-76.20776 -1.3711,-1.73601 -1.8464,26.67042 -1.978,70.16812 -0.1315,43.4977 0.057,102.08666 0.089,160.71569 0.032,58.62903 -0.093,117.29813 -0.5953,160.95612 -0.5021,43.65798 -1.3574,72.30485 -2.709,70.88941 -1.3516,-1.41544 -1.8505,-31.47471 -2.0313,-75.85519 -0.1809,-44.38048 -0.065,-103.08218 -0.1062,-161.78249 -0.041,-58.70032 -0.2377,-117.39924 -0.7982,-161.77417 -0.5605,-44.37493 -1.4629,-74.42587 -2.8323,-75.83021 -1.3693,-1.40434 -1.8338,27.24325 -1.9509,70.92135 -0.117,43.6781 0.089,102.38671 0.1389,161.10442 0.049,58.7177 -0.058,117.4445 -0.5476,161.15897 -0.4894,43.71448 -1.3366,72.41663 -2.6891,71.08504 -1.3525,-1.33159 -1.8601,-31.36349 -2.0538,-75.73414 -0.1936,-44.37065 -0.095,-103.08006 -0.1525,-161.76668 -0.058,-58.68661 -0.2713,-117.35043 -0.8438,-161.62991 -0.5726,-44.27948 -1.4822,-74.17462 -2.85,-75.32386 -1.3679,-1.14925 -1.8242,27.5973 -1.9299,71.28397 -0.1057,43.68666 0.1156,102.31345 0.1805,160.92469 0.065,58.61124 -0.027,117.20694 -0.504,160.83141 -0.4771,43.62447 -1.3161,72.27773 -2.6693,71.0041 -1.3531,-1.27363 -1.8696,-31.19932 -2.0755,-75.43031 -0.2059,-44.231 -0.1229,-102.76731 -0.1951,-161.26219 -0.072,-58.49489 -0.2996,-116.94835 -0.8815,-161.01366 -0.5819,-44.06531 -1.4965,-73.74245 -2.8631,-74.68471 -1.3666,-0.94225 -1.817,27.79311 -1.9138,71.34908 -0.097,43.55597 0.1366,101.93255 0.2149,160.27274 0.078,58.34018 0,116.64397 -0.4637,160.05435 -0.4654,43.41038 -1.2959,71.92735 -2.6496,70.69391 -1.3537,-1.23343 -1.879,-30.98302 -2.0968,-74.96155 -0.2178,-43.97853 -0.1495,-102.18602 -0.2345,-160.33525 -0.085,-58.14924 -0.3234,-116.24023 -0.9123,-159.98578 -0.5889,-43.74555 -1.5068,-73.14565 -2.8722,-73.91311 -1.3655,-0.76747 -1.8118,27.86553 -1.902,71.17133 -0.09,43.3058 0.1528,101.28439 0.2429,159.20813 0.09,57.92374 0.027,115.79262 -0.4264,158.87897 -0.4539,43.08635 -1.2759,71.39019 -2.63,70.18383 -1.3541,-1.20635 -1.8884,-30.71594 -2.1177,-74.34021 -0.2293,-43.62427 -0.1748,-101.36321 -0.271,-159.02824 -0.096,-57.66504 -0.3433,-115.25617 -0.9372,-158.58483 -0.5939,-43.32865 -1.5134,-72.39483 -2.8777,-73.00996 -1.3644,-0.61513 -1.8083,27.83621 -1.8939,70.78488 -0.086,42.94868 0.1649,100.39468 0.2653,157.76888 0.1004,57.3742 0.051,114.6766 -0.3918,157.33806 -0.4427,42.66146 -1.2561,70.68197 -2.6106,69.49241 -1.3545,-1.18956 -1.8977,-30.39921 -2.1382,-73.57449 -0.2405,-43.17528 -0.199,-100.31619 -0.305,-157.36826 -0.1061,-57.05206 -0.3596,-114.01529 -0.9566,-156.8352 -0.5971,-42.81992 -1.5166,-71.49653 -2.88,-71.97536 -1.3633,-0.47883 -1.8064,27.71919 -1.8891,70.21174 -0.083,42.49254 0.1732,99.27961 0.2825,155.97887 0.1093,56.69926 0.072,113.31071 -0.3597,155.45201 -0.4318,42.14131 -1.2364,69.81247 -2.5912,68.63116 -1.3549,-1.18132 -1.9072,-30.03349 -2.1586,-72.66939 -0.2514,-42.6359 -0.2221,-99.05552 -0.3366,-155.37175 -0.1145,-56.31622 -0.3726,-112.52903 -0.971,-154.75131 -0.5985,-42.22228 -1.5168,-70.45402 -2.8792,-70.8081 -1.3624,-0.35407 -1.806,27.52382 -1.8875,69.46604 -0.082,41.94222 0.1779,97.94876 0.2949,153.852 0.1169,55.90324 0.091,111.70316 -0.3298,153.23215 -0.4213,41.52898 -1.217,68.78702 -2.5721,67.60647 -1.3552,-1.18054 -1.9166,-29.61891 -2.1787,-71.62726 -0.262,-42.00834 -0.2442,-97.58666 -0.3659,-153.0471 -0.1216,-55.46044 -0.3825,-110.803 -0.9808,-152.33983 -0.5983,-41.53683 -1.5141,-69.26793 -2.8755,-69.50545 -1.3615,-0.23752 -1.807,27.25627 -1.8889,68.5564 -0.082,41.30012 0.1794,96.40658 0.3028,151.3944 0.1233,54.98782 0.1089,109.85699 -0.302,150.68255 -0.411,40.82556 -1.1978,67.6075 -2.5532,66.42085 -1.3554,-1.18666 -1.9261,-29.15511 -2.1985,-70.44821 -0.2724,-41.2931 -0.2655,-95.91085 -0.3931,-150.39608 -0.1276,-54.48523 -0.3896,-108.83794 -0.9862,-149.60099 -0.5966,-40.76304 -1.5086,-67.93641 -2.8691,-68.06295 -1.3606,-0.12655 -1.8092,26.92049 -1.893,67.48726 -0.084,40.56678 0.1777,94.65329 0.3063,148.60569 0.1287,53.9524 0.1246,107.77069 -0.2763,147.80104 -0.4009,40.03034 -1.1787,66.27274 -2.5344,65.07334 -1.3557,-1.1994 -1.9356,-28.64112 -2.2181,-69.13022 -0.2825,-40.4891 -0.2859,-94.02558 -0.4183,-147.41451 -0.1325,-53.38892 -0.3938,-106.63029 -0.9873,-146.52916 -0.5935,-39.89887 -1.5004,-66.45524 -2.8601,-66.47417 -1.3597,-0.0189 -1.8126,26.51871 -1.8997,66.25966 -0.087,39.74095 0.1729,92.68519 0.3057,145.47945 0.1327,52.79426 0.1384,105.43853 -0.2527,144.57952 -0.3911,39.141 -1.1599,64.77871 -2.5158,63.55987 -1.3559,-1.21885 -1.9451,-28.0754 -2.2375,-67.66917 -0.2924,-39.59377 -0.3054,-91.92476 -0.4415,-144.09248 -0.1362,-52.16772 -0.3953,-104.17218 -0.9842,-143.11289 -0.5889,-38.94071 -1.4897,-64.81767 -2.8485,-64.73039 -1.3589,0.0873 -1.8173,26.05174 -1.9091,64.8715 -0.092,38.81977 0.1652,90.49484 0.301,142.00334 0.1358,51.50849 0.1505,102.8504 -0.2311,141.00385 -0.3816,38.15345 -1.1413,63.11843 -2.4974,61.87307 -1.3562,-1.24537 -1.9547,-27.45577 -2.2567,-66.05872 -0.302,-38.60295 -0.3239,-89.59845 -0.4627,-140.41403 -0.1387,-50.81559 -0.3941,-101.45125 -0.977,-139.33451 -0.5829,-37.88326 -1.4764,-63.01412 -2.8344,-62.82011 -1.358,0.19401 -1.823,25.51914 -1.9209,63.31773 -0.098,37.79859 0.1546,88.07063 0.2922,138.15847 0.1377,50.08783 0.1609,99.99146 -0.2114,137.05321 -0.3724,37.06176 -1.123,61.28164 -2.4794,60.00198 -1.3564,-1.27966 -1.9643,-26.77931 -2.2756,-64.29002 -0.3113,-37.51071 -0.3416,-87.03249 -0.4818,-136.3564 -0.1403,-49.32391 -0.3903,-98.44995 -0.9659,-135.16919 -0.5755,-36.71925 -1.4605,-61.03169 -2.8177,-60.7284 -1.3571,0.30328 -1.8298,24.91931 -1.9352,61.59008 -0.1054,36.67077 0.141,85.39628 0.2794,133.91852 0.1385,48.52225 0.1694,96.84123 -0.1939,132.69894 -0.3634,35.85771 -1.1049,59.25415 -2.4616,57.93132 -1.3566,-1.32282 -1.9739,-26.04229 -2.2942,-62.3513 -0.3204,-36.30902 -0.3583,-84.20759 -0.499,-131.88863 -0.1406,-47.68104 -0.3837,-95.14456 -0.9504,-130.58347 -0.5668,-35.4389 -1.4423,-58.8532 -2.7985,-58.43581 -1.3563,0.41739 -1.8378,24.24944 -1.9521,59.6767 -0.1142,35.42726 0.1244,82.44973 0.2625,129.24796 0.1382,46.79824 0.1762,93.37223 -0.1786,127.90253 -0.3547,34.5303 -1.0871,57.01691 -2.4441,55.64037 -1.3569,-1.37653 -1.9835,-25.23996 -2.3126,-60.22711 -0.3291,-34.98715 -0.374,-81.09803 -0.5139,-126.96944 -0.1398,-45.87142 -0.3743,-91.50338 -0.9309,-125.5327 -0.5566,-34.02932 -1.4213,-56.45601 -2.7766,-55.91689 -1.3553,0.53912 -1.8469,23.50539 -1.9714,57.56133 -0.1245,34.05594 0.1047,79.20156 0.2413,124.09938 0.1367,44.89783 0.181,89.54786 -0.1655,122.61263 -0.3465,33.06477 -1.0698,54.54429 -2.4271,53.10107 -1.3572,-1.44322 -1.9932,-24.36637 -2.3307,-57.89728 -0.3375,-33.5309 -0.3886,-77.66957 -0.5264,-121.54381 -0.1378,-43.87424 -0.3621,-87.48406 -0.907,-119.95728 -0.5449,-32.47321 -1.3977,-53.80983 -2.752,-53.13767 -1.3544,0.67217 -1.8571,22.68154 -1.9933,55.2221 -0.1363,32.54056 0.082,75.6123 0.2157,118.40921 0.1339,42.7969 0.1837,85.31897 -0.1549,116.76018 -0.3387,31.4412 -1.0531,51.80154 -2.4107,50.275 -1.3575,-1.52655 -2.0029,-23.41405 -2.3483,-55.33527 -0.3455,-31.92122 -0.402,-73.87615 -0.5365,-115.53756 -0.1345,-41.66141 -0.3467,-83.02929 -0.8784,-113.77639 -0.5316,-30.74711 -1.3712,-50.87345 -2.7245,-50.05177 -1.3534,0.82168 -1.8684,21.77051 -2.0179,52.62955 -0.1496,30.85903 0.056,71.62828 0.1855,112.09079 0.1296,40.46251 0.184,80.61829 -0.1473,110.2504 -0.3312,29.6321 -1.0369,48.74054 -2.3949,47.10835 -1.3579,-1.63218 -2.0125,-22.37372 -2.3655,-52.5057 -0.3529,-30.13198 -0.4138,-69.6544 -0.5436,-108.84837 -0.1298,-39.19397 -0.328,-78.05949 -0.8448,-106.87764 -0.5167,-28.81816 -1.3416,-47.58895 -2.6938,-46.59348 -1.3522,0.99547 -1.881,20.76291 -2.0454,49.74354 -0.1645,28.98063 0.026,67.17445 0.15,105.02267 0.1241,37.84821 0.1819,75.35082 -0.1426,102.94904 -0.3246,27.59822 -1.0217,45.29205 -2.3802,43.5227 -1.3585,-1.76936 -2.0221,-21.23397 -2.382,-49.36024 -0.3598,-28.12626 -0.4241,-64.91418 -0.5474,-101.33015 -0.1234,-36.41596 -0.3056,-72.45998 -0.8055,-99.09844 -0.5,-26.63846 -1.3087,-43.87137 -2.6597,-42.66512 -1.3509,1.20625 -1.8947,19.64726 -2.0759,46.50812 -0.1812,26.86086 -0.01,62.14157 0.1088,97.02723 0.1166,34.88566 0.1766,69.37626 -0.1421,94.65691 -0.3187,25.28064 -1.0075,41.35132 -2.3667,39.39714 -1.3591,-1.95418 -2.0317,-19.98145 -2.3977,-45.83081 -0.3659,-25.84935 -0.4321,-59.52081 -0.5472,-92.76337 -0.2301,-66.48512 -0.682,-131.25469 -3.3808,-128.30079 -1.3495,1.47694 -1.9098,18.41103 -2.1099,42.84274 -0.2001,24.43172 -0.046,56.36108 0.061,87.82856 0.2139,62.93496 0.2184,124.02243 -2.5017,119.58636 -2.7202,-4.43606 -2.7453,-65.54169 -2.9539,-124.61085 -0.2086,-59.06916 -0.5881,-116.10185 -3.2831,-112.39205 -2.6949,3.70981 -2.333,60.76905 -2.144,115.58444 0.1889,54.8154 0.2181,107.38696 -2.505,102.1214 -2.723,-5.26555 -2.7735,-57.87974 -2.9538,-107.94668 -0.1803,-50.06694 -0.477,-97.58663 -3.1663,-92.66319 -2.6893,4.92345 -2.4114,52.51797 -2.2559,97.17217 0.1555,44.65419 0.2027,86.36806 -2.5258,79.53018 -2.7286,-6.83788 -2.7983,-48.71338 -2.9392,-86.98963 -0.1408,-38.27624 -0.338,-72.95323 -3.0162,-65.3941 -2.6783,7.55913 -2.4999,42.7563 -2.3946,73.04565 0.1053,30.28934 0.1545,55.67086 -2.5927,43.59867 -2.7472,-12.07218 -3.4876,-33.69699 -3.5566,-52.30376 -0.069,-18.60677 0.5376,-34.19549 0.5376,-34.19549"
         inkscape:connector-curvature="0"
         sodipodi:nodetypes="scscs" />
    </g>
    <g
       transform="matrix(1,0,0,-1,1200,1204.7244)"
       id="g3075">
      <path
         style="fill:none;stroke:#ff0000;stroke-width:4;stroke-miterlimit:4;stroke-opacity:1"
         d="m 1906.6793,513.93662 c 0,218.04332 -306.6793,318.2144 -306.6793,445.91518 0,-127.66281 -306.6793,-227.87186 -306.6793,-445.91518 0,-218.04333 308.4419,-246.83956 306.6793,47.58775 0,-296.1018 306.6793,-265.63108 306.6793,-47.58775 z"
         inkscape:connector-curvature="0"
         sodipodi:nodetypes="scscs"
         id="path3077" />
      <path
         sodipodi:nodetypes="scscs"
         inkscape:connector-curvature="0"
         d="m 1905.612,536.06213 c 0,0 2.6246,-30.60098 -2.9541,-60.62318 -2.7893,-15.0111 -2.6833,5.70359 -2.5809,32.52104 0.1023,26.81746 0.182,59.73767 -2.5184,69.13761 -2.7004,9.39994 -2.7534,-22.42507 -2.8797,-58.20439 -0.1263,-35.77933 -0.3413,-75.51298 -3.097,-81.93031 -2.7557,-6.41733 -2.5211,33.0851 -2.3636,75.75155 0.1576,42.66644 0.2238,88.49691 -2.4879,94.73565 -2.7117,6.23874 -2.7557,-39.49409 -2.9257,-87.90013 -0.17,-48.40603 -0.4799,-99.48528 -3.2269,-103.93936 -2.747,-4.45408 -2.4186,46.57354 -2.2255,99.96074 0.1931,53.38721 0.2376,109.13399 -2.4785,114.11824 -2.7161,4.98425 -2.7394,-50.7309 -2.94,-108.54822 -0.2006,-57.81731 -0.5916,-117.73679 -3.3335,-121.16121 -2.742,-3.42442 -2.3339,56.47429 -2.1147,118.29668 0.1096,30.9112 0.1773,62.30332 -0.1322,86.50143 -0.3094,24.19811 -0.9902,41.20221 -2.3495,43.33737 -2.7186,4.27032 -2.7158,-59.46111 -2.9395,-124.94692 -0.1119,-32.74291 -0.2742,-65.92442 -0.7618,-91.2636 -0.4876,-25.33919 -1.2936,-42.83605 -2.6628,-44.20968 -1.3691,-1.37362 -1.9307,14.74693 -2.1215,39.81915 -0.1908,25.07223 -0.019,59.09612 0.1005,93.52917 0.1196,34.43305 0.1865,69.27526 -0.1284,95.98411 -0.3149,26.70886 -1.0044,45.28436 -2.3646,47.18399 -1.3601,1.89964 -2.0285,-14.7742 -2.3885,-40.92372 -0.36,-26.14952 -0.4207,-61.77471 -0.5415,-97.7778 -0.1207,-36.00308 -0.3019,-72.38406 -0.8078,-100.04512 -0.5058,-27.66106 -1.3279,-46.60221 -2.6956,-47.72566 -1.3677,-1.12345 -1.9119,16.69265 -2.0844,44.15694 -0.1725,27.46429 0.017,64.57676 0.1443,102.04606 0.1272,37.4693 0.1918,75.29542 -0.1296,104.187 -0.3214,28.89158 -1.0199,48.84862 -2.3807,50.57976 -1.3607,1.73113 -2.0208,-16.49353 -2.3745,-44.86207 -0.3538,-28.36854 -0.4119,-66.88096 -0.5395,-105.72534 -0.1276,-38.84438 -0.3251,-78.02072 -0.8471,-107.7171 -0.522,-29.69638 -1.3587,-49.9128 -2.7252,-50.83734 -1.3665,-0.92454 -1.8949,18.36629 -2.0512,47.92286 -0.1564,29.55657 0.049,69.37889 0.1816,109.51732 0.1331,40.13844 0.1938,80.59299 -0.1347,111.41404 -0.3285,30.82105 -1.0362,52.0086 -2.3974,53.61302 -1.3613,1.60441 -2.0126,-17.97791 -2.3595,-48.30124 -0.3468,-30.32334 -0.4009,-71.3877 -0.5336,-112.74736 -0.1328,-41.35966 -0.3444,-83.01463 -0.8808,-114.51918 -0.5364,-31.50456 -1.3863,-52.8587 -2.7517,-53.61672 -1.3653,-0.75802 -1.8796,19.83737 -2.0216,51.25096 -0.142,31.41359 0.076,73.64539 0.2135,116.16019 0.1373,42.5148 0.1932,85.3126 -0.143,117.8582 -0.3363,32.5456 -1.0533,54.839 -2.4149,56.345 -1.3616,1.506 -2.0041,-19.28085 -2.3433,-51.34657 -0.3393,-32.06572 -0.3885,-75.4103 -0.5248,-119.01976 -0.1364,-43.60946 -0.3603,-87.4838 -0.9094,-120.60904 -0.5491,-33.12523 -1.4109,-55.50136 -2.7752,-56.11439 -1.3644,-0.61303 -1.8659,21.14952 -1.9952,54.22742 -0.1293,33.0779 0.1003,77.47115 0.2404,122.11953 0.14,44.64837 0.1902,89.55188 -0.1542,123.65028 -0.3444,34.0984 -1.0708,57.39171 -2.4327,58.81968 -1.362,1.42798 -1.9954,-20.43697 -2.3266,-54.0678 -0.3313,-33.63083 -0.3746,-79.02755 -0.5132,-124.6631 -0.1387,-45.63556 -0.3729,-91.50995 -0.9332,-126.09615 -0.5603,-34.58619 -1.4328,-57.88418 -2.7962,-58.36693 -1.3634,-0.48275 -1.8534,22.33207 -1.9716,56.91118 -0.1182,34.57911 0.121,80.92252 0.2626,127.49695 0.1416,46.57442 0.1852,93.37986 -0.1678,128.88305 -0.3529,35.50319 -1.0887,59.70412 -2.451,61.06952 -1.3622,1.3654 -1.9866,-21.46987 -2.3094,-56.51348 -0.3227,-35.04361 -0.3594,-82.29555 -0.499,-129.76349 -0.1397,-47.46793 -0.3827,-95.15186 -0.9526,-131.05943 -0.57,-35.90758 -1.4521,-60.03881 -2.8145,-60.40135 -1.3625,-0.36254 -1.8422,23.40581 -1.9508,59.34445 -0.1086,35.93864 0.1385,84.04757 0.2804,132.36619 0.1418,48.31863 0.1782,96.84695 -0.1837,133.62438 -0.3619,36.77742 -1.1071,61.80395 -2.4696,63.11898 -1.3625,1.31504 -1.9778,-22.39629 -2.2917,-58.71855 -0.314,-36.32226 -0.3433,-85.25546 -0.4828,-134.38417 -0.1395,-49.1287 -0.3895,-98.45291 -0.9677,-135.55721 -0.5782,-37.10429 -1.4687,-61.98867 -2.8302,-62.2377 -1.3616,-0.24903 -1.8322,24.38603 -1.9326,61.55836 -0.1005,37.17234 0.1529,86.88195 0.2939,136.78203 0.1409,49.90008 0.1693,99.99063 -0.2018,137.92484 -0.371,37.9342 -1.1257,63.71206 -2.4884,64.98677 -1.3628,1.27471 -1.9689,-23.22836 -2.2738,-60.7087 -0.3048,-37.48034 -0.326,-87.93796 -0.4642,-138.57237 -0.1382,-50.63441 -0.3936,-101.44561 -0.9787,-139.63311 -0.5851,-38.1875 -1.4828,-63.75129 -2.8435,-63.8909 -1.3607,-0.1396 -1.8233,25.28434 -1.917,63.57646 -0.094,38.29213 0.1643,89.45244 0.3033,140.78556 0.1389,51.33313 0.1586,102.83908 -0.2219,141.82248 -0.3806,38.98341 -1.1446,65.44427 -2.5076,66.68722 -1.3631,1.24296 -1.96,-23.97492 -2.2555,-62.50291 -0.2954,-38.52798 -0.3078,-90.36607 -0.4436,-142.36354 -0.1357,-51.99747 -0.395,-104.15431 -0.9856,-143.31981 -0.5905,-39.16549 -1.4943,-65.33964 -2.8541,-65.3717 -1.3598,-0.0321 -1.8157,26.10978 -1.904,65.41677 -0.088,39.30699 0.1726,91.77912 0.3084,144.40761 0.1358,52.62849 0.1462,105.41334 -0.2441,145.34577 -0.3903,39.93243 -1.1636,67.01244 -2.5269,68.23125 -1.3633,1.21882 -1.9512,-24.64242 -2.2369,-64.11512 -0.2858,-39.47271 -0.2888,-92.55689 -0.421,-145.78398 -0.1322,-53.22709 -0.3937,-106.59708 -0.9883,-146.64141 -0.5946,-40.04434 -1.5033,-66.76301 -2.8622,-66.68745 -1.359,0.0756 -1.8092,26.86958 -1.8937,67.09321 -0.084,40.22362 0.178,93.87687 0.3095,147.67087 0.1316,53.79401 0.132,107.72879 -0.2683,148.51549 -0.4003,40.7867 -1.1829,68.42532 -2.5465,69.62702 -1.3635,1.2017 -1.9424,-25.23532 -2.2182,-65.55522 -0.2758,-40.3199 -0.2688,-94.5227 -0.3963,-148.85255 -0.1275,-54.32986 -0.3897,-108.78678 -0.9869,-149.61493 -0.5972,-40.82815 -1.5096,-68.02754 -2.8677,-67.84233 -1.358,0.1852 -1.8039,27.56958 -1.8859,68.61644 -0.082,41.04685 0.1802,95.75618 0.3064,150.59128 0.1261,54.83509 0.116,109.79596 -0.2946,151.34589 -0.4106,41.54994 -1.2024,69.68894 -2.5662,70.8803 -1.3638,1.19136 -1.9337,-25.75643 -2.1993,-66.82959 -0.2657,-41.07316 -0.2479,-96.27167 -0.3696,-151.58174 -0.1216,-55.31007 -0.3828,-110.7317 -0.9812,-152.25108 -0.5984,-41.51938 -1.5133,-69.13652 -2.8704,-68.83761 -1.3572,0.29891 -1.7998,28.21474 -1.8809,69.99459 -0.081,41.77985 0.1793,97.42372 0.2988,153.1787 0.1196,55.75499 0.098,111.62109 -0.3229,153.84541 -0.4211,42.22432 -1.2221,70.80686 -2.5862,71.99472 -1.3641,1.18785 -1.9251,-26.20707 -2.1802,-67.94144 -0.2552,-41.73436 -0.2261,-97.80817 -0.3407,-153.97808 -0.1146,-56.16992 -0.3731,-112.43594 -0.9711,-154.55473 -0.598,-42.11879 -1.5141,-70.09035 -2.8703,-69.67135 -1.3562,0.419 -1.7969,28.80933 -1.8786,71.23361 -0.082,42.42427 0.1749,98.8825 0.2867,155.4373 0.1117,56.5548 0.079,113.20617 -0.3534,156.01673 -0.4319,42.81056 -1.242,71.78031 -2.6065,72.97188 -1.3644,1.19156 -1.9165,-26.58696 -2.161,-68.89074 -0.2444,-42.30377 -0.2032,-99.1328 -0.3096,-156.04223 -0.1063,-56.90944 -0.3603,-113.89928 -0.9563,-156.52469 -0.5959,-42.62541 -1.5119,-70.88639 -2.8672,-70.3381 -1.3552,0.5483 -1.7953,29.3573 -1.8793,72.3376 -0.084,42.9803 0.1672,100.13189 0.2698,157.36536 0.1027,57.23347 0.057,114.54881 -0.3862,157.8566 -0.4429,43.3078 -1.2621,72.60806 -2.6269,73.81135 -1.3648,1.20329 -1.9082,-26.89414 -2.1416,-69.67398 -0.2334,-42.77985 -0.1794,-100.24211 -0.2762,-157.76848 -0.097,-57.52637 -0.3443,-115.11684 -0.9366,-158.15311 -0.5922,-43.03627 -1.5066,-71.51834 -2.8608,-70.82789 -1.3542,0.69045 -1.7952,29.86264 -1.8831,73.30908 -0.088,43.44643 0.1555,101.16711 0.2477,158.95454 0.092,57.78742 0.033,115.64159 -0.4214,159.355 -0.4544,43.71341 -1.2826,73.28607 -2.6477,74.51046 -1.3652,1.2244 -1.9,-27.12451 -2.1221,-70.28345 -0.222,-43.15894 -0.1545,-101.1279 -0.2402,-159.14361 -0.086,-58.0157 -0.3249,-116.07815 -0.9115,-159.42405 -0.5867,-43.34591 -1.498,-71.97527 -2.8511,-71.12481 -1.3531,0.85046 -1.7964,30.32988 -1.8903,74.14919 -0.094,43.81931 0.1399,101.97851 0.2201,160.18854 0.08,58.21003 0.01,116.47088 -0.4594,160.4935 -0.466,44.02262 -1.3031,73.807 -2.6688,75.06408 -1.3657,1.25708 -1.8919,-27.27115 -2.1024,-70.70588 -0.2104,-43.43473 -0.1283,-101.77596 -0.2015,-160.14487 -0.073,-58.36892 -0.3015,-116.76551 -0.8806,-160.31098 -0.579,-43.54546 -1.4853,-72.23979 -2.8373,-71.20418 -1.3519,1.0356 -1.7992,30.765 -1.9012,74.85812 -0.102,44.09312 0.1196,102.54996 0.1861,161.04047 0.067,58.49051 -0.022,117.01469 -0.5002,161.24247 -0.4781,44.22778 -1.3242,74.15917 -2.6904,75.4641 -1.3663,1.30493 -1.8842,-27.3229 -2.0825,-70.92009 -0.1984,-43.59719 -0.1009,-102.16375 -0.1597,-160.73627 -0.059,-58.57253 -0.2739,-117.15104 -0.843,-160.77212 -0.5691,-43.62108 -1.4686,-72.28475 -2.8192,-71.0276 -1.3505,1.25715 -1.8039,31.17716 -1.9163,75.43591 -0.1125,44.25876 0.094,102.85625 0.145,161.46836 0.051,58.6121 -0.054,117.23882 -0.5445,161.55602 -0.4907,44.3172 -1.3456,74.32488 -2.7126,75.69891 -1.367,1.37404 -1.8767,-27.26174 -2.0625,-70.89244 -0.1859,-43.6307 -0.072,-102.25632 -0.1142,-160.86195 -0.042,-58.60564 -0.2413,-117.19129 -0.7978,-160.74206 -0.5565,-43.55078 -1.4467,-72.06666 -2.7958,-70.53277 -1.349,1.5339 -1.8106,31.58241 -1.9364,75.88459 -0.1258,44.30218 0.063,102.85803 0.096,161.40656 0.033,58.54854 -0.089,117.08978 -0.593,161.36274 -0.5038,44.27297 -1.3676,74.27767 -2.7356,75.75314 -1.3679,1.47546 -1.8696,-27.05739 -2.0424,-70.56783 -0.1729,-43.51045 -0.041,-101.99848 -0.064,-160.43336 -0.024,-58.43487 -0.2027,-116.8166 -0.7433,-160.11444 -0.5407,-43.29784 -1.4188,-71.51178 -2.766,-69.61111 -1.3473,1.90068 -1.8198,32.01303 -1.9624,76.21442 -0.1427,44.20139 0.023,102.49181 0.036,160.74862 0.012,58.25681 -0.1291,116.48001 -0.6468,160.54696 -0.5176,44.06695 -1.3904,73.97765 -2.7598,75.60946 -1.3694,1.6318 -1.8632,-26.65414 -2.0223,-69.84895 -0.1591,-43.1948 -0.01,-101.29847 -0.01,-159.30211 -0,-58.00364 -0.1565,-115.90726 -0.677,-158.70195 -0.5206,-42.7947 -1.3829,-70.48048 -2.7278,-68.04845 -1.3449,2.43202 -1.8319,32.54483 -1.9961,76.46468 -0.1642,43.91985 -0.026,101.64675 -0.038,159.30697 -0.012,57.66022 -0.1749,115.25377 -0.7075,158.9069 -0.5326,43.65314 -1.4146,73.36586 -2.7863,75.26446 -1.3717,1.89859 -1.8582,-25.93309 -2.0024,-68.54039 -0.1443,-42.60731 0.03,-99.99024 0.055,-157.19415 0.025,-57.20392 -0.1,-114.22881 -0.5941,-156.12004 -0.4946,-41.89123 -1.3353,-68.64879 -2.6768,-65.31804 -1.3415,3.33074 -1.8482,33.40262 -2.041,76.79137 -0.1929,43.38875 -0.091,100.09436 -0.1335,156.69259 -0.043,56.59823 -0.2299,113.08906 -0.7795,156.04825 -0.5495,42.95918 -1.4421,72.38672 -2.8186,74.85834 -1.3765,2.47162 -1.8559,-24.56269 -1.9833,-66.15923 -0.1273,-41.59653 0.074,-97.75527 0.1331,-153.53251 0.059,-55.77723 -0.025,-111.17295 -0.4834,-151.24344 -0.4581,-40.07048 -1.2659,-64.81573 -2.6005,-59.29202 -1.3347,5.52372 -1.873,35.32261 -2.1089,77.38991 -0.236,42.06729 -0.1853,96.40298 -0.2684,151.00029 -0.083,54.59731 -0.3005,109.45624 -0.88,152.57 -0.5794,43.11376 -1.5061,74.48235 -2.9245,82.099 -1.4184,7.61665 -1.9209,-13.38388 -2.0281,-49.6532 -0.1073,-36.26932 0.1592,-87.80742 0.3024,-141.26593 0.1433,-53.45851 0.1606,-108.83742 -0.2391,-152.78834 -0.3997,-43.95091 -1.2002,-76.47384 -2.5876,-84.22039 -1.3873,-7.74655 -1.9707,14.6496 -2.2275,52.40363 -0.2568,37.75404 -0.2109,90.86595 -0.2979,144.55091 -0.087,53.68496 -0.3077,107.94298 -0.8692,147.98922 -0.5615,40.04624 -1.4415,65.88071 -2.7783,62.71859 -1.3368,-3.16213 -1.7977,-32.25054 -1.9174,-74.3864 -0.1197,-42.13587 0.084,-97.3192 0.1496,-152.67117 0.066,-55.35198 -0.01,-110.8726 -0.4695,-153.68305 -0.463,-42.81045 -1.2993,-72.91073 -2.6811,-77.42203 -1.3818,-4.51129 -1.9192,21.12022 -2.1249,61.9728 -0.2058,40.85258 -0.1038,96.92624 -0.1472,153.29923 -0.043,56.37299 -0.2325,113.04531 -0.7772,155.09523 -0.5447,42.04992 -1.4218,69.47744 -2.7673,67.36082 -1.3455,-2.11662 -1.8175,-31.61574 -1.9554,-74.85808 -0.1379,-43.24234 0.039,-100.2279 0.068,-157.3174 0.029,-57.0895 -0.089,-114.28294 -0.5887,-157.94104 -0.4999,-43.65811 -1.3619,-73.78087 -2.7382,-76.72902 -1.3763,-2.94815 -1.8855,24.23489 -2.0589,66.55892 -0.1735,42.32404 -0.035,99.78906 -0.048,157.40486 -0.013,57.61581 -0.1782,115.3824 -0.7076,158.30958 -0.5294,42.92718 -1.3998,71.01494 -2.7485,69.27309 -1.3487,-1.74186 -1.8299,-31.55864 -1.9832,-75.44165 -0.1533,-43.88301 5e-4,-101.83226 0,-159.83906 0,-58.0068 -0.1494,-116.07116 -0.675,-160.18438 -0.5256,-44.11323 -1.4052,-74.27532 -2.7785,-76.4776 -1.3732,-2.20228 -1.863,25.7608 -2.0128,68.84791 -0.1498,43.0871 0.016,101.29824 0.027,159.59207 0.011,58.29382 -0.1327,116.67034 -0.648,160.08822 -0.5154,43.41788 -1.3785,71.87712 -2.7289,70.33639 -1.3505,-1.54074 -1.8405,-31.53507 -2.008,-75.7684 -0.1675,-44.23333 -0.034,-102.70566 -0.055,-161.2024 -0.021,-58.49674 -0.1977,-117.01789 -0.7429,-161.34886 -0.5451,-44.33097 -1.4378,-74.47175 -2.8089,-76.20776 -1.3711,-1.73601 -1.8464,26.67042 -1.978,70.16812 -0.1315,43.4977 0.057,102.08666 0.089,160.71569 0.032,58.62903 -0.093,117.29813 -0.5953,160.95612 -0.5021,43.65798 -1.3574,72.30485 -2.709,70.88941 -1.3516,-1.41544 -1.8505,-31.47471 -2.0313,-75.85519 -0.1809,-44.38048 -0.065,-103.08218 -0.1062,-161.78249 -0.041,-58.70032 -0.2377,-117.39924 -0.7982,-161.77417 -0.5605,-44.37493 -1.4629,-74.42587 -2.8323,-75.83021 -1.3693,-1.40434 -1.8338,27.24325 -1.9509,70.92135 -0.117,43.6781 0.089,102.38671 0.1389,161.10442 0.049,58.7177 -0.058,117.4445 -0.5476,161.15897 -0.4894,43.71448 -1.3366,72.41663 -2.6891,71.08504 -1.3525,-1.33159 -1.8601,-31.36349 -2.0538,-75.73414 -0.1936,-44.37065 -0.095,-103.08006 -0.1525,-161.76668 -0.058,-58.68661 -0.2713,-117.35043 -0.8438,-161.62991 -0.5726,-44.27948 -1.4822,-74.17462 -2.85,-75.32386 -1.3679,-1.14925 -1.8242,27.5973 -1.9299,71.28397 -0.1057,43.68666 0.1156,102.31345 0.1805,160.92469 0.065,58.61124 -0.027,117.20694 -0.504,160.83141 -0.4771,43.62447 -1.3161,72.27773 -2.6693,71.0041 -1.3531,-1.27363 -1.8696,-31.19932 -2.0755,-75.43031 -0.2059,-44.231 -0.1229,-102.76731 -0.1951,-161.26219 -0.072,-58.49489 -0.2996,-116.94835 -0.8815,-161.01366 -0.5819,-44.06531 -1.4965,-73.74245 -2.8631,-74.68471 -1.3666,-0.94225 -1.817,27.79311 -1.9138,71.34908 -0.097,43.55597 0.1366,101.93255 0.2149,160.27274 0.078,58.34018 0,116.64397 -0.4637,160.05435 -0.4654,43.41038 -1.2959,71.92735 -2.6496,70.69391 -1.3537,-1.23343 -1.879,-30.98302 -2.0968,-74.96155 -0.2178,-43.97853 -0.1495,-102.18602 -0.2345,-160.33525 -0.085,-58.14924 -0.3234,-116.24023 -0.9123,-159.98578 -0.5889,-43.74555 -1.5068,-73.14565 -2.8722,-73.91311 -1.3655,-0.76747 -1.8118,27.86553 -1.902,71.17133 -0.09,43.3058 0.1528,101.28439 0.2429,159.20813 0.09,57.92374 0.027,115.79262 -0.4264,158.87897 -0.4539,43.08635 -1.2759,71.39019 -2.63,70.18383 -1.3541,-1.20635 -1.8884,-30.71594 -2.1177,-74.34021 -0.2293,-43.62427 -0.1748,-101.36321 -0.271,-159.02824 -0.096,-57.66504 -0.3433,-115.25617 -0.9372,-158.58483 -0.5939,-43.32865 -1.5134,-72.39483 -2.8777,-73.00996 -1.3644,-0.61513 -1.8083,27.83621 -1.8939,70.78488 -0.086,42.94868 0.1649,100.39468 0.2653,157.76888 0.1004,57.3742 0.051,114.6766 -0.3918,157.33806 -0.4427,42.66146 -1.2561,70.68197 -2.6106,69.49241 -1.3545,-1.18956 -1.8977,-30.39921 -2.1382,-73.57449 -0.2405,-43.17528 -0.199,-100.31619 -0.305,-157.36826 -0.1061,-57.05206 -0.3596,-114.01529 -0.9566,-156.8352 -0.5971,-42.81992 -1.5166,-71.49653 -2.88,-71.97536 -1.3633,-0.47883 -1.8064,27.71919 -1.8891,70.21174 -0.083,42.49254 0.1732,99.27961 0.2825,155.97887 0.1093,56.69926 0.072,113.31071 -0.3597,155.45201 -0.4318,42.14131 -1.2364,69.81247 -2.5912,68.63116 -1.3549,-1.18132 -1.9072,-30.03349 -2.1586,-72.66939 -0.2514,-42.6359 -0.2221,-99.05552 -0.3366,-155.37175 -0.1145,-56.31622 -0.3726,-112.52903 -0.971,-154.75131 -0.5985,-42.22228 -1.5168,-70.45402 -2.8792,-70.8081 -1.3624,-0.35407 -1.806,27.52382 -1.8875,69.46604 -0.082,41.94222 0.1779,97.94876 0.2949,153.852 0.1169,55.90324 0.091,111.70316 -0.3298,153.23215 -0.4213,41.52898 -1.217,68.78702 -2.5721,67.60647 -1.3552,-1.18054 -1.9166,-29.61891 -2.1787,-71.62726 -0.262,-42.00834 -0.2442,-97.58666 -0.3659,-153.0471 -0.1216,-55.46044 -0.3825,-110.803 -0.9808,-152.33983 -0.5983,-41.53683 -1.5141,-69.26793 -2.8755,-69.50545 -1.3615,-0.23752 -1.807,27.25627 -1.8889,68.5564 -0.082,41.30012 0.1794,96.40658 0.3028,151.3944 0.1233,54.98782 0.1089,109.85699 -0.302,150.68255 -0.411,40.82556 -1.1978,67.6075 -2.5532,66.42085 -1.3554,-1.18666 -1.9261,-29.15511 -2.1985,-70.44821 -0.2724,-41.2931 -0.2655,-95.91085 -0.3931,-150.39608 -0.1276,-54.48523 -0.3896,-108.83794 -0.9862,-149.60099 -0.5966,-40.76304 -1.5086,-67.93641 -2.8691,-68.06295 -1.3606,-0.12655 -1.8092,26.92049 -1.893,67.48726 -0.084,40.56678 0.1777,94.65329 0.3063,148.60569 0.1287,53.9524 0.1246,107.77069 -0.2763,147.80104 -0.4009,40.03034 -1.1787,66.27274 -2.5344,65.07334 -1.3557,-1.1994 -1.9356,-28.64112 -2.2181,-69.13022 -0.2825,-40.4891 -0.2859,-94.02558 -0.4183,-147.41451 -0.1325,-53.38892 -0.3938,-106.63029 -0.9873,-146.52916 -0.5935,-39.89887 -1.5004,-66.45524 -2.8601,-66.47417 -1.3597,-0.0189 -1.8126,26.51871 -1.8997,66.25966 -0.087,39.74095 0.1729,92.68519 0.3057,145.47945 0.1327,52.79426 0.1384,105.43853 -0.2527,144.57952 -0.3911,39.141 -1.1599,64.77871 -2.5158,63.55987 -1.3559,-1.21885 -1.9451,-28.0754 -2.2375,-67.66917 -0.2924,-39.59377 -0.3054,-91.92476 -0.4415,-144.09248 -0.1362,-52.16772 -0.3953,-104.17218 -0.9842,-143.11289 -0.5889,-38.94071 -1.4897,-64.81767 -2.8485,-64.73039 -1.3589,0.0873 -1.8173,26.05174 -1.9091,64.8715 -0.092,38.81977 0.1652,90.49484 0.301,142.00334 0.1358,51.50849 0.1505,102.8504 -0.2311,141.00385 -0.3816,38.15345 -1.1413,63.11843 -2.4974,61.87307 -1.3562,-1.24537 -1.9547,-27.45577 -2.2567,-66.05872 -0.302,-38.60295 -0.3239,-89.59845 -0.4627,-140.41403 -0.1387,-50.81559 -0.3941,-101.45125 -0.977,-139.33451 -0.5829,-37.88326 -1.4764,-63.01412 -2.8344,-62.82011 -1.358,0.19401 -1.823,25.51914 -1.9209,63.31773 -0.098,37.79859 0.1546,88.07063 0.2922,138.15847 0.1377,50.08783 0.1609,99.99146 -0.2114,137.05321 -0.3724,37.06176 -1.123,61.28164 -2.4794,60.00198 -1.3564,-1.27966 -1.9643,-26.77931 -2.2756,-64.29002 -0.3113,-37.51071 -0.3416,-87.03249 -0.4818,-136.3564 -0.1403,-49.32391 -0.3903,-98.44995 -0.9659,-135.16919 -0.5755,-36.71925 -1.4605,-61.03169 -2.8177,-60.7284 -1.3571,0.30328 -1.8298,24.91931 -1.9352,61.59008 -0.1054,36.67077 0.141,85.39628 0.2794,133.91852 0.1385,48.52225 0.1694,96.84123 -0.1939,132.69894 -0.3634,35.85771 -1.1049,59.25415 -2.4616,57.93132 -1.3566,-1.32282 -1.9739,-26.04229 -2.2942,-62.3513 -0.3204,-36.30902 -0.3583,-84.20759 -0.499,-131.88863 -0.1406,-47.68104 -0.3837,-95.14456 -0.9504,-130.58347 -0.5668,-35.4389 -1.4423,-58.8532 -2.7985,-58.43581 -1.3563,0.41739 -1.8378,24.24944 -1.9521,59.6767 -0.1142,35.42726 0.1244,82.44973 0.2625,129.24796 0.1382,46.79824 0.1762,93.37223 -0.1786,127.90253 -0.3547,34.5303 -1.0871,57.01691 -2.4441,55.64037 -1.3569,-1.37653 -1.9835,-25.23996 -2.3126,-60.22711 -0.3291,-34.98715 -0.374,-81.09803 -0.5139,-126.96944 -0.1398,-45.87142 -0.3743,-91.50338 -0.9309,-125.5327 -0.5566,-34.02932 -1.4213,-56.45601 -2.7766,-55.91689 -1.3553,0.53912 -1.8469,23.50539 -1.9714,57.56133 -0.1245,34.05594 0.1047,79.20156 0.2413,124.09938 0.1367,44.89783 0.181,89.54786 -0.1655,122.61263 -0.3465,33.06477 -1.0698,54.54429 -2.4271,53.10107 -1.3572,-1.44322 -1.9932,-24.36637 -2.3307,-57.89728 -0.3375,-33.5309 -0.3886,-77.66957 -0.5264,-121.54381 -0.1378,-43.87424 -0.3621,-87.48406 -0.907,-119.95728 -0.5449,-32.47321 -1.3977,-53.80983 -2.752,-53.13767 -1.3544,0.67217 -1.8571,22.68154 -1.9933,55.2221 -0.1363,32.54056 0.082,75.6123 0.2157,118.40921 0.1339,42.7969 0.1837,85.31897 -0.1549,116.76018 -0.3387,31.4412 -1.0531,51.80154 -2.4107,50.275 -1.3575,-1.52655 -2.0029,-23.41405 -2.3483,-55.33527 -0.3455,-31.92122 -0.402,-73.87615 -0.5365,-115.53756 -0.1345,-41.66141 -0.3467,-83.02929 -0.8784,-113.77639 -0.5316,-30.74711 -1.3712,-50.87345 -2.7245,-50.05177 -1.3534,0.82168 -1.8684,21.77051 -2.0179,52.62955 -0.1496,30.85903 0.056,71.62828 0.1855,112.09079 0.1296,40.46251 0.184,80.61829 -0.1473,110.2504 -0.3312,29.6321 -1.0369,48.74054 -2.3949,47.10835 -1.3579,-1.63218 -2.0125,-22.37372 -2.3655,-52.5057 -0.3529,-30.13198 -0.4138,-69.6544 -0.5436,-108.84837 -0.1298,-39.19397 -0.328,-78.05949 -0.8448,-106.87764 -0.5167,-28.81816 -1.3416,-47.58895 -2.6938,-46.59348 -1.3522,0.99547 -1.881,20.76291 -2.0454,49.74354 -0.1645,28.98063 0.026,67.17445 0.15,105.02267 0.1241,37.84821 0.1819,75.35082 -0.1426,102.94904 -0.3246,27.59822 -1.0217,45.29205 -2.3802,43.5227 -1.3585,-1.76936 -2.0221,-21.23397 -2.382,-49.36024 -0.3598,-28.12626 -0.4241,-64.91418 -0.5474,-101.33015 -0.1234,-36.41596 -0.3056,-72.45998 -0.8055,-99.09844 -0.5,-26.63846 -1.3087,-43.87137 -2.6597,-42.66512 -1.3509,1.20625 -1.8947,19.64726 -2.0759,46.50812 -0.1812,26.86086 -0.01,62.14157 0.1088,97.02723 0.1166,34.88566 0.1766,69.37626 -0.1421,94.65691 -0.3187,25.28064 -1.0075,41.35132 -2.3667,39.39714 -1.3591,-1.95418 -2.0317,-19.98145 -2.3977,-45.83081 -0.3659,-25.84935 -0.4321,-59.52081 -0.5472,-92.76337 -0.2301,-66.48512 -0.682,-131.25469 -3.3808,-128.30079 -1.3495,1.47694 -1.9098,18.41103 -2.1099,42.84274 -0.2001,24.43172 -0.046,56.36108 0.061,87.82856 0.2139,62.93496 0.2184,124.02243 -2.5017,119.58636 -2.7202,-4.43606 -2.7453,-65.54169 -2.9539,-124.61085 -0.2086,-59.06916 -0.5881,-116.10185 -3.2831,-112.39205 -2.6949,3.70981 -2.333,60.76905 -2.144,115.58444 0.1889,54.8154 0.2181,107.38696 -2.505,102.1214 -2.723,-5.26555 -2.7735,-57.87974 -2.9538,-107.94668 -0.1803,-50.06694 -0.477,-97.58663 -3.1663,-92.66319 -2.6893,4.92345 -2.4114,52.51797 -2.2559,97.17217 0.1555,44.65419 0.2027,86.36806 -2.5258,79.53018 -2.7286,-6.83788 -2.7983,-48.71338 -2.9392,-86.98963 -0.1408,-38.27624 -0.338,-72.95323 -3.0162,-65.3941 -2.6783,7.55913 -2.4999,42.7563 -2.3946,73.04565 0.1053,30.28934 0.1545,55.67086 -2.5927,43.59867 -2.7472,-12.07218 -3.4876,-33.69699 -3.5566,-52.30376 -0.069,-18.60677 0.5376,-34.19549 0.5376,-34.19549"
         style="fill:none;stroke:#ff0000;stroke-width:4;stroke-miterlimit:4;stroke-opacity:1"
         id="path3079"
         inkscape:path-effect="#path-effect3018"
         inkscape:original-d="m 1906.6793,513.93662 c 0,218.04332 -306.6793,318.2144 -306.6793,445.91518 0,-127.66281 -306.6793,-227.87186 -306.6793,-445.91518 0,-218.04333 308.4419,-246.83956 306.6793,47.58775 0,-296.1018 306.6793,-265.63108 306.6793,-47.58775 z" />
    </g>
  </g>
</svg>
