<?xml version="1.0" encoding="UTF-8" standalone="no"?>
<!-- Created with Inkscape (http://www.inkscape.org/) -->

<svg
   xmlns:dc="http://purl.org/dc/elements/1.1/"
   xmlns:cc="http://creativecommons.org/ns#"
   xmlns:rdf="http://www.w3.org/1999/02/22-rdf-syntax-ns#"
   xmlns:svg="http://www.w3.org/2000/svg"
   xmlns="http://www.w3.org/2000/svg"
   xmlns:sodipodi="http://sodipodi.sourceforge.net/DTD/sodipodi-0.dtd"
   xmlns:inkscape="http://www.inkscape.org/namespaces/inkscape"
   sodipodi:docname="panther_paw.svg"
   inkscape:version="0.48.0 r9654"
   version="1.1"
   id="svg2"
   height="800"
   width="3200">
  <sodipodi:namedview
     id="base"
     pagecolor="#ffffff"
     bordercolor="#666666"
     borderopacity="1.0"
     inkscape:pageopacity="0.0"
     inkscape:pageshadow="2"
     inkscape:zoom="0.9149693"
     inkscape:cx="1439.0802"
     inkscape:cy="463.83796"
     inkscape:document-units="px"
     inkscape:current-layer="layer1"
     showgrid="false"
     inkscape:window-width="1440"
     inkscape:window-height="845"
     inkscape:window-x="-3"
     inkscape:window-y="-3"
     inkscape:window-maximized="1" />
  <defs
     id="defs4">
    <inkscape:path-effect
       back_thickness="0.25"
       front_thickness="1"
       stroke_width_bottom="1"
       stroke_width_top="1"
       fat_output="false"
       bottom_smth_variation="0;1"
       top_smth_variation="0;1"
       scale_tb="2"
       scale_tf="2"
       scale_bb="2"
       scale_bf="2"
       top_tgt_variation="0;1"
       bottom_tgt_variation="0;1"
       top_edge_variation="0;1"
       bottom_edge_variation="0;1"
       bender="1624.405,591.44032 , 5,0"
       do_bend="true"
       growth="0"
       dist_rdm="0;1"
       direction="1624.405,586.44032 , 17.443353,0"
       is_visible="true"
       id="path-effect3919"
       effect="rough_hatches" />
    <inkscape:path-effect
       back_thickness="0.25"
       front_thickness="1"
       stroke_width_bottom="1"
       stroke_width_top="1"
       fat_output="false"
       bottom_smth_variation="0;1"
       top_smth_variation="0;1"
       scale_tb="2"
       scale_tf="2"
       scale_bb="2"
       scale_bf="2"
       top_tgt_variation="0;1"
       bottom_tgt_variation="0;1"
       top_edge_variation="0;1"
       bottom_edge_variation="0;1"
       bender="1900,410.97562 , 5,0"
       do_bend="true"
       growth="0"
       dist_rdm="0;1"
       direction="1900.4371,405.61626 , 13.981676,-1.4374458"
       is_visible="true"
       id="path-effect3917"
       effect="rough_hatches" />
    <inkscape:path-effect
       back_thickness="0.25"
       front_thickness="1"
       stroke_width_bottom="1"
       stroke_width_top="1"
       fat_output="false"
       bottom_smth_variation="0;1"
       top_smth_variation="0;1"
       scale_tb="2"
       scale_tf="2"
       scale_bb="2"
       scale_bf="2"
       top_tgt_variation="0;1"
       bottom_tgt_variation="0;1"
       top_edge_variation="0;1"
       bottom_edge_variation="0;1"
       bender="1642.683,165.85365 , 5,0"
       do_bend="true"
       growth="0"
       dist_rdm="0;1"
       direction="1642.683,160.85365 , 15.071825,-2.1858657"
       is_visible="true"
       id="path-effect3915"
       effect="rough_hatches" />
    <inkscape:path-effect
       back_thickness="0.25"
       front_thickness="1"
       stroke_width_bottom="1"
       stroke_width_top="1"
       fat_output="false"
       bottom_smth_variation="0;1"
       top_smth_variation="0;1"
       scale_tb="2"
       scale_tf="2"
       scale_bb="2"
       scale_bf="2"
       top_tgt_variation="0;1"
       bottom_tgt_variation="0;1"
       top_edge_variation="0;1"
       bottom_edge_variation="0;1"
       bender="1385.385,397.98668 , 5,0"
       do_bend="true"
       growth="0"
       dist_rdm="0;1"
       direction="1385.385,392.98668 , 20.319207,1.0929329"
       is_visible="true"
       id="path-effect3913"
       effect="rough_hatches" />
    <inkscape:path-effect
       back_thickness="0.25"
       front_thickness="1"
       stroke_width_bottom="1"
       stroke_width_top="1"
       fat_output="false"
       bottom_smth_variation="0;1"
       top_smth_variation="0;1"
       scale_tb="2"
       scale_tf="2"
       scale_bb="2"
       scale_bf="2"
       top_tgt_variation="0;1"
       bottom_tgt_variation="0;1"
       top_edge_variation="0;1"
       bottom_edge_variation="0;1"
       bender="1220.7317,335.36584 , 5,0"
       do_bend="true"
       growth="0"
       dist_rdm="0;1"
       direction="1220.7317,330.36584 , 18.083812,5.3269561"
       is_visible="true"
       id="path-effect3911"
       effect="rough_hatches" />
  </defs>
  <metadata
     id="metadata7">
    <rdf:RDF>
      <cc:Work
         rdf:about="">
        <dc:format>image/svg+xml</dc:format>
        <dc:type
           rdf:resource="http://purl.org/dc/dcmitype/StillImage" />
        <dc:title />
      </cc:Work>
    </rdf:RDF>
  </metadata>
  <g
     transform="translate(0,-252.36218)"
     id="layer1"
     inkscape:groupmode="layer"
     inkscape:label="Layer 1">
    <g
       id="g3959">
      <path
         sodipodi:type="arc"
         style="fill:none;stroke:#000000;stroke-width:3.35842967000000003;stroke-miterlimit:4;stroke-opacity:1;stroke-dasharray:none"
         id="path3052"
         sodipodi:cx="1642.683"
         sodipodi:cy="165.85365"
         sodipodi:rx="64.634148"
         sodipodi:ry="134.14635"
         d="m 1707.3171,165.85365 c 0,74.08698 -28.9377,134.14635 -64.6341,134.14635 -35.6965,0 -64.6342,-60.05937 -64.6342,-134.14635 0,-74.086979 28.9377,-134.146344 64.6342,-134.146344 35.6964,0 64.6341,60.059365 64.6341,134.146344 z"
         transform="matrix(1.4185592,0,-0.19163288,1,-628.72389,252.36218)" />
      <path
         sodipodi:type="arc"
         style="fill:none;stroke:#000000;stroke-width:3.16368245999999997;stroke-miterlimit:4;stroke-opacity:1;stroke-dasharray:none"
         id="path3824"
         sodipodi:cx="1900"
         sodipodi:cy="410.97562"
         sodipodi:rx="70.731705"
         sodipodi:ry="113.41463"
         d="m 1970.7317,410.97562 c 0,62.63717 -31.6677,113.41462 -70.7317,113.41462 -39.064,0 -70.7317,-50.77745 -70.7317,-113.41462 0,-62.63717 31.6677,-113.41463 70.7317,-113.41463 39.064,0 70.7317,50.77746 70.7317,113.41463 z"
         transform="matrix(1.4866788,0,-0.34240067,1.0752687,-851.90005,149.47732)" />
      <path
         sodipodi:type="arc"
         style="fill:none;stroke:#000000;stroke-width:3.77919674000000017;stroke-miterlimit:4;stroke-opacity:1;stroke-dasharray:none"
         id="path3826"
         sodipodi:cx="1220.7317"
         sodipodi:cy="335.36584"
         sodipodi:rx="91.463417"
         sodipodi:ry="132.92683"
         d="m 1312.1951,335.36584 c 0,73.41347 -40.9496,132.92684 -91.4634,132.92684 -50.5139,0 -91.4634,-59.51337 -91.4634,-132.92684 0,-73.41346 40.9495,-132.92683 91.4634,-132.92683 50.5138,0 91.4634,59.51337 91.4634,132.92683 z"
         transform="matrix(1.0924745,-0.29421221,0.33572062,0.93502649,-255.80346,634.02268)" />
      <path
         style="fill:none;stroke:#000000;stroke-width:3.99999952;stroke-miterlimit:4;stroke-opacity:1"
         d="m 1372.0216,260.75749 c -23.1767,3.06998 -46.2016,16.58215 -55.2353,38.92838 -18.3968,31.85791 -26.5329,69.11733 -24.0711,105.76237 1.0571,41.71476 14.9969,85.545 47.6825,113.21996 15.1932,13.58473 36.6813,19.86184 56.6421,14.81148 29.8604,-6.81273 60.6313,-22.95893 73.6603,-52.18193 8.9259,-20.89948 8.857,-44.52026 6.2724,-66.75108 -5.2154,-36.36322 -20.1581,-70.37156 -34.7628,-103.75779 -12.6791,-26.91037 -39.2513,-49.93319 -70.1881,-50.03139 z"
         id="path3822"
         inkscape:connector-curvature="0" />
      <path
         transform="matrix(1.1329044,0,0,1.3576366,-336.07874,18.785767)"
         style="fill:none;stroke:#000000;stroke-width:3.22531103999999980;stroke-miterlimit:4;stroke-opacity:1"
         d="M 1633.5 438.625 C 1610.4672 438.92517 1587.8842 447.13801 1569.2386 460.4985 C 1551.8872 472.79792 1535.8124 486.76613 1518.8528 499.58172 C 1486.3688 524.92712 1454.0528 550.48741 1421.9168 576.27277 C 1414.3226 582.39179 1406.6617 588.43308 1399.1848 594.6946 C 1388.7489 603.7607 1379.82 614.89472 1374.7865 627.87089 C 1367.0729 646.34665 1365.2567 667.50233 1371.0147 686.78136 C 1376.0343 703.12663 1387.4083 717.19489 1401.7506 726.35948 C 1419.7255 738.39566 1441.4589 744.22325 1462.9963 744.26762 C 1478.4392 744.39653 1493.8266 742.85903 1509.2381 742.11378 C 1541.9649 740.0786 1574.6903 737.77162 1607.4835 737.14696 C 1631.1784 736.61973 1654.8747 737.47288 1678.5386 738.63697 C 1710.5232 740.10121 1742.5296 742.09127 1774.5625 741.3125 C 1789.6694 740.62052 1804.5914 736.71508 1818.1485 730.02714 C 1832.8038 722.87182 1845.8668 712.4009 1855.8213 699.46305 C 1865.4838 687.15182 1873.3 673.24387 1877.6896 658.17019 C 1880.6141 648.12436 1882.0506 637.47396 1880.6145 627.05165 C 1879.5394 617.27007 1874.4117 608.47007 1868.2525 601.003 C 1858.2734 588.6082 1846.2288 578.11806 1834.3953 567.55789 C 1810.4584 546.68476 1785.2117 527.39404 1760.3986 507.59043 C 1736.9776 489.17332 1713.5383 470.75197 1689.2587 453.47098 C 1681.7082 448.17589 1673.2511 444.18228 1664.3137 441.87982 C 1654.2593 439.35466 1643.848 438.45699 1633.5 438.625 z "
         id="path3839"
         inkscape:connector-curvature="0"
         sodipodi:nodetypes="ssscsss" />
      <path
         transform="matrix(1.4185592,0,-0.19163288,1,-628.72389,252.36218)"
         d="m 1700.0606,104.03696 c 0,0 1.6467,8.18876 3.3365,19.38528 1.6898,11.19652 3.4141,25.40082 3.6285,37.43189 0.1071,6.01553 -0.4856,4.5826 -1.5119,-1.13439 -1.0264,-5.71698 -2.4939,-15.71801 -4.1577,-26.83867 -1.6638,-11.12066 -3.5258,-23.36094 -5.291,-33.556424 -1.7652,-10.195484 -3.4302,-18.346171 -4.6621,-21.287636 -2.4638,-5.88293 1.6666,20.193162 6.0433,49.29691 2.1883,14.55187 4.4393,29.86066 6.0459,42.30994 1.6066,12.44928 2.5746,22.03906 2.2442,25.15291 -0.3304,3.11384 -1.6141,-3.32145 -3.4531,-14.8312 -1.8391,-11.50976 -4.2461,-28.09397 -6.8127,-45.27797 -2.5666,-17.18399 -5.2943,-34.967773 -7.6585,-48.876654 -2.3642,-13.908881 -4.3554,-23.942864 -5.3938,-25.62727 -1.0385,-1.684406 -0.083,6.646816 1.8568,20.23538 1.9397,13.588564 4.8495,32.434474 7.7455,51.779434 2.8961,19.34496 5.777,39.18898 7.7992,54.77378 2.0222,15.58479 3.1968,26.91036 2.746,29.21841 -0.4509,2.30805 -2.0667,-6.69967 -4.3576,-21.57933 -2.2909,-14.87966 -5.2747,-35.63128 -8.4289,-56.81102 -3.1542,-21.17974 -6.4803,-42.787612 -9.2806,-59.379796 -2.8002,-16.592184 -5.0595,-28.16868 -6.0091,-29.28567 -0.9495,-1.116989 0.364,9.336304 2.7612,25.760785 2.3972,16.424482 5.8596,38.820151 9.2545,61.587921 3.3949,22.76776 6.7212,45.90763 9.041,63.82049 2.3198,17.91287 3.6494,30.59874 3.1324,32.45852 -0.517,1.85978 -2.3554,-8.96223 -4.9628,-26.28873 -2.6074,-17.3265 -6.0063,-41.1575 -9.5928,-65.31568 -3.5866,-24.15819 -7.3619,-48.643576 -10.4951,-67.278855 -3.1331,-18.635279 -5.604,-31.420455 -6.4964,-32.178228 -0.8924,-0.757774 0.6893,11.266706 3.4319,29.826609 2.7426,18.559903 6.6234,43.655224 10.394,69.039144 3.7706,25.38392 7.43,51.05643 9.9722,70.7707 2.5422,19.71427 3.988,33.4703 3.4261,35.02126 -0.5618,1.55096 -2.5621,-10.65196 -5.405,-29.85968 -2.8429,-19.20772 -6.5548,-45.42024 -10.4716,-71.88848 -3.9168,-26.46824 -8.0395,-53.192192 -11.432,-73.422783 -3.3924,-20.230591 -6.0303,-33.967817 -6.8803,-34.462598 -0.8501,-0.494781 0.9401,12.74605 3.9507,32.967653 3.0105,20.221604 7.2151,47.423978 11.2742,74.852288 4.0591,27.42831 7.9719,55.08255 10.6822,76.20789 2.7104,21.12534 4.2427,35.72177 3.6469,37.03446 -0.5958,1.31268 -2.7175,-11.96977 -5.7388,-32.64969 -3.0212,-20.67992 -6.9716,-48.7573 -11.1424,-77.03448 -4.1707,-28.27717 -8.5627,-56.75414 -12.1566,-78.233225 -3.5938,-21.479086 -6.3617,-35.960289 -7.1778,-36.245937 -0.8161,-0.285649 1.1373,13.908931 4.3557,35.431169 3.2185,21.522239 7.6728,50.372133 11.9524,79.397123 4.2797,29.02498 8.384,58.22506 11.2199,80.44765 2.836,22.22259 4.4313,37.4677 3.8078,38.58276 -0.6235,1.11506 -2.8365,-13.01415 -5.992,-34.84207 -3.1556,-21.82791 -7.2859,-51.35454 -11.6491,-81.03433 -4.3632,-29.67978 -8.9599,-59.512718 -12.7067,-81.953257 -3.7469,-22.440538 -6.6128,-37.488677 -7.4002,-37.59886 -0.7875,-0.110183 1.2918,14.827157 4.6683,37.354052 3.3766,22.526895 8.0189,52.643345 12.4628,82.891385 4.4438,30.24804 8.6885,60.62767 11.615,83.68092 2.9264,23.05325 4.565,38.78012 3.9178,39.72264 -0.6471,0.94253 -2.9278,-13.84127 -6.1816,-36.54446 -3.2538,-22.70318 -7.515,-53.32575 -12.0184,-84.06076 -4.5035,-30.73501 -9.2496,-61.582454 -13.1069,-84.735394 -3.8574,-23.152939 -6.7927,-38.611371 -7.5551,-38.568352 -0.7624,0.04302 1.4105,15.54408 4.9019,38.820593 3.4914,23.276513 8.2681,54.328473 12.8273,85.473303 4.5592,31.14483 8.9005,62.38251 11.8872,86.03047 2.9868,23.64796 4.6514,39.70619 3.9832,40.4921 -0.6682,0.78592 -2.9969,-14.48615 -6.3181,-37.82479 -3.3213,-23.33864 -7.6709,-54.74386 -12.2684,-86.22426 -4.5975,-31.4804 -9.4432,-63.035976 -13.3725,-86.675333 -3.9294,-23.639357 -6.9073,-39.362495 -7.6466,-39.178014 -0.7393,0.184481 1.4986,16.091863 5.0659,39.889118 3.5673,23.797254 8.4295,55.484379 13.0599,87.228349 4.6304,31.74397 9.0288,63.54479 12.0485,87.56942 3.0198,24.02463 4.6949,40.27307 4.0073,40.91231 -0.6876,0.63923 -3.047,-14.96983 -6.4079,-38.72302 -3.361,-23.75319 -7.7603,-55.65052 -12.4093,-87.58782 -4.649,-31.93731 -9.5478,-63.914587 -13.5129,-87.827691 -3.965,-23.913105 -6.96,-39.762031 -7.6773,-39.442624 -0.7173,0.319406 1.5588,16.487619 5.1654,40.59141 3.6066,24.10379 8.5087,56.143155 13.169,88.204875 4.6603,32.06172 9.0787,64.14579 12.106,88.33898 3.0273,24.19319 4.6982,40.4955 3.9922,40.99371 -0.706,0.49821 -3.0803,-15.30584 -6.4553,-39.26396 -3.375,-23.95813 -7.7875,-56.07034 -12.4476,-88.18848 -4.6601,-32.11814 -9.5678,-64.2422 -13.5337,-88.224022 -3.9659,-23.981822 -6.9531,-39.821406 -7.6491,-39.37059 -0.696,0.450817 1.5928,16.741192 5.2037,40.945638 3.6109,24.204444 8.509,56.322964 13.1595,88.430064 4.6506,32.1071 9.0537,64.20279 12.0641,88.36157 3.0103,24.15878 4.6629,40.38066 3.939,40.74014 -0.7238,0.35949 -3.0984,-15.50293 -6.4628,-39.46242 -3.3644,-23.95949 -7.7552,-56.01604 -12.3873,-88.04483 -4.6321,-32.02879 -9.5055,-64.02981 -13.438,-87.87822 -3.9326,-23.848413 -6.8875,-39.54422 -7.5626,-38.962585 -0.6751,0.581636 1.6018,16.85914 5.1828,40.961987 3.5811,24.102848 8.4321,56.031038 13.0341,87.914048 4.602,31.88301 8.9552,63.72084 11.9245,87.64296 2.9694,23.92212 4.5894,39.92854 3.8478,40.14872 -0.7416,0.22019 -3.1023,-15.56617 -6.432,-39.32489 -3.3297,-23.75871 -7.664,-55.48977 -12.2294,-87.15898 -4.5654,-31.66921 -9.3616,-63.27657 -13.2268,-86.787885 -3.8652,-23.511313 -6.7633,-38.926578 -7.4173,-38.211595 -0.6539,0.714984 1.5865,16.845378 5.1037,40.643639 3.5173,23.798261 8.2785,55.264391 12.7931,86.650841 4.5146,31.38646 8.7831,62.69323 11.687,86.17279 2.9038,23.47956 4.4768,39.13189 3.7171,39.20947 -0.7596,0.0776 -3.0921,-15.49746 -6.3628,-38.85022 -3.2707,-23.35276 -7.5136,-54.48326 -11.9731,-85.51664 -4.4594,-31.03338 -9.1351,-61.96964 -12.8984,-84.93392 -3.7632,-22.964281 -6.5793,-37.956583 -7.2114,-37.102049 -0.6322,0.854534 1.5473,16.701706 4.9665,39.987289 3.4191,23.28558 8.0468,54.00957 12.4343,84.61775 4.3874,30.60817 8.5351,61.10053 11.3481,83.92284 2.8129,22.82231 4.3233,37.97457 3.5448,37.90256 -0.7785,-0.072 -3.0683,-15.29672 -6.2547,-38.03046 -3.1864,-22.73374 -7.3014,-52.97651 -11.6142,-83.08464 -4.3128,-30.10814 -8.8229,-60.08164 -12.4482,-82.276842 -3.6254,-22.1952 -6.3331,-36.612099 -6.9421,-35.607029 -0.609,1.005069 1.4846,16.427662 4.7701,38.981355 3.2856,22.553696 7.7341,52.238486 11.9523,81.767956 4.2182,29.52947 8.2065,58.90362 10.9008,80.83603 2.6943,21.9324 4.1246,36.42307 3.3251,36.18556 -0.7995,-0.2375 -3.031,-14.96636 -6.106,-36.85272 -3.0749,-21.88635 -7.0226,-50.93021 -11.1447,-79.79769 -4.1221,-28.86748 -8.4179,-57.5586 -11.8665,-78.73948 -3.4486,-21.180887 -6.0192,-34.851544 -6.6027,-33.678108 -0.5836,1.173435 1.3978,16.018457 4.5114,37.599208 3.1135,21.58076 7.3333,49.89724 11.3356,78.0136 4.0024,28.11637 7.7882,56.0326 10.3321,76.81287 2.544,20.78026 3.8736,34.42454 3.0499,33.99698 -0.8237,-0.42755 -2.9797,-14.50051 -5.9125,-35.28379 -2.9328,-20.78329 -6.6682,-48.27691 -10.55,-75.54577 -3.8818,-27.26887 -7.9091,-54.31298 -11.137,-74.19727 -3.2279,-19.88428 -5.6289,-32.608734 -6.1832,-31.238279 -0.5543,1.370455 1.2863,15.466843 4.185,35.799579 2.8988,20.33273 6.8333,46.90182 10.5664,73.21766 3.733,26.31584 7.2655,52.37844 9.6213,71.69821 2.3558,19.31977 3.5593,31.89672 2.7062,31.24125 -0.853,-0.65547 -2.9132,-13.88982 -5.6674,-33.27168 -2.7541,-19.38186 -6.2244,-44.91123 -9.8073,-70.15677 -3.5829,-25.24553 -7.2775,-50.20723 -10.233,-68.45372 -2.9555,-18.2465 -5.1479,-29.777795 -5.6664,-28.162535 -0.5185,1.61526 1.1487,14.764415 3.7827,33.520375 2.6339,18.75596 6.2161,43.11874 9.6148,67.16125 3.3986,24.04252 6.6146,47.76477 8.7341,65.23969 2.1195,17.47491 3.163,28.70248 2.2719,27.75565 -0.891,-0.94684 -2.8303,-13.12495 -5.3601,-30.73783 -2.5297,-17.61287 -5.6674,-40.66052 -8.8777,-63.34645 -3.2103,-22.68592 -6.492,-45.01013 -9.1094,-61.17611 -2.6174,-16.16599 -4.5507,-26.17376 -5.0215,-24.22682 -0.4708,1.94695 0.9849,13.907 3.2917,30.66694 2.3068,16.75995 5.4507,38.31978 8.4292,59.46628 2.9786,21.14651 5.7929,41.87968 7.6088,56.9863 1.8158,15.10662 2.6495,24.58668 1.7037,23.22697 -0.9458,-1.3597 -2.7317,-12.20817 -4.9744,-27.56197 -2.2426,-15.35379 -4.9546,-35.21291 -7.6897,-54.59393 -2.7351,-19.38101 -5.492,-38.28391 -7.6778,-51.72527 -2.1858,-13.44136 -3.7855,-21.42117 -4.1828,-18.956 -0.3974,2.46516 0.7991,12.92516 2.6928,27.09906 1.8937,14.17391 4.4758,32.06171 6.9062,49.38249 2.4304,17.32078 4.7104,34.07454 6.1126,45.98034 1.4022,11.9058 1.938,18.96365 0.8961,16.89261 -1.042,-2.07104 -2.6304,-11.23278 -4.4889,-23.58779 -1.8586,-12.355 -3.9942,-27.90326 -6.0842,-42.74735 -4.18,-29.68817 -8.1821,-56.55963 -8.6689,-49.43484 -0.2434,3.5624 0.6401,12.1673 1.9847,22.80431 1.3447,10.637 3.1471,23.30609 4.7796,34.99687 3.2648,23.38154 5.8608,42.8498 3.1717,34.32144 -2.689,-8.52836 -5.2819,-24.6882 -7.2492,-38.71595 -1.9673,-14.02775 -3.2976,-25.92341 -3.2976,-25.92341"
         sodipodi:ry="134.14635"
         sodipodi:rx="64.634148"
         sodipodi:cy="165.85365"
         sodipodi:cx="1642.683"
         id="path3901"
         style="fill:none;stroke:#000000;stroke-width:3.35842967;stroke-miterlimit:4;stroke-opacity:1;stroke-dasharray:none"
         sodipodi:type="arc"
         inkscape:path-effect="#path-effect3915" />
      <path
         transform="matrix(1.4866788,0,-0.34240067,1.0752687,-851.90005,149.47732)"
         d="m 1970.6436,416.68752 c 0,0 -0.7012,-10.40643 -1.9954,-22.60501 -1.2941,-12.19858 -3.1934,-26.1893 -5.4133,-33.35789 -2.22,-7.16859 -0.3206,9.44175 1.7961,29.24397 1.0584,9.90111 2.1685,20.60019 2.8945,29.52385 0.7261,8.92367 1.0716,16.07192 0.638,18.87138 -0.8671,5.59892 -3.0444,-17.0675 -5.685,-42.05897 -1.3203,-12.49573 -2.755,-25.57272 -4.105,-35.98844 -1.35,-10.41572 -2.6086,-18.17017 -3.5308,-20.0208 -0.9221,-1.85063 -0.5823,4.02679 0.3767,14.00332 0.9589,9.97653 2.5254,24.05215 4.072,38.59792 1.5465,14.54577 3.0718,29.56168 4.0604,41.41877 0.9886,11.85709 1.4495,20.55536 0.9224,22.46586 -0.527,1.91049 -1.5064,-4.86514 -2.7815,-16.18331 -1.275,-11.31816 -2.8604,-27.17886 -4.5757,-43.43851 -1.7153,-16.25964 -3.5618,-32.91823 -5.2158,-45.83217 -1.654,-12.91394 -3.1035,-22.08323 -3.9623,-23.36429 -0.8589,-1.28105 -0.2634,6.60014 1.0156,19.23552 1.2791,12.63539 3.2254,30.02497 5.104,47.76071 1.8786,17.73575 3.6883,35.81765 4.8609,49.83768 1.1726,14.02002 1.7221,23.97817 1.1514,25.4664 -0.5706,1.48824 -1.6834,-6.97731 -3.1554,-20.57238 -1.472,-13.59507 -3.3225,-32.31967 -5.3257,-51.34955 -2.0031,-19.02987 -4.1602,-38.36502 -6.0495,-53.18119 -1.8894,-14.81617 -3.4942,-25.11337 -4.3158,-26.06734 -0.8216,-0.95397 -0.034,8.38623 1.4887,23.00927 1.5225,14.62303 3.7592,34.52889 5.8891,54.70623 2.13,20.17734 4.1522,40.62616 5.4619,56.33513 1.3097,15.70896 1.9252,26.67806 1.3274,27.89596 -0.5979,1.21789 -1.8048,-8.53118 -3.4221,-23.88526 -1.6174,-15.35408 -3.6685,-36.31317 -5.895,-57.51533 -2.2265,-21.20215 -4.6294,-42.64737 -6.7076,-58.9737 -2.0782,-16.32633 -3.8105,-27.53377 -4.6056,-28.26037 -0.7951,-0.7266 0.1461,9.75264 1.8626,25.9439 1.7165,16.19126 4.1841,38.09455 6.5118,60.21607 2.3276,22.12151 4.5144,44.46124 5.9293,61.52539 1.4148,17.06414 2.0802,28.8527 1.4629,29.87187 -0.6174,1.01916 -1.8943,-9.74901 -3.623,-26.50902 -1.7288,-16.76001 -3.9364,-39.51186 -6.3402,-62.46008 -2.4038,-22.94821 -5.0047,-46.09278 -7.2362,-63.63822 -2.2316,-17.54544 -4.0684,-29.49175 -4.8427,-30.04345 -0.7743,-0.5517 0.2916,10.84195 2.1651,28.29655 1.8736,17.4546 4.5271,40.97014 7.0121,64.66222 2.4851,23.69207 4.8009,47.56067 6.2972,65.7214 1.4963,18.16072 2.1991,30.61357 1.5667,31.47412 -0.6325,0.86055 -1.9627,-10.73096 -3.778,-28.62781 -1.8153,-17.89685 -4.1459,-42.09904 -6.6911,-66.45985 -2.5452,-24.3608 -5.3058,-48.88022 -7.6614,-67.41151 -2.3556,-18.5313 -4.2775,-31.07449 -5.0345,-31.48283 -0.757,-0.40834 0.4106,11.72588 2.4111,30.20234 2.0005,18.47645 4.8033,43.29513 7.4133,68.2557 2.61,24.96057 5.0265,50.06303 6.5855,69.10704 1.5589,19.044 2.2894,32.02955 1.6446,32.75631 -0.6449,0.72676 -2.0158,-11.5315 -3.8982,-30.34556 -1.8823,-18.81405 -4.309,-44.18388 -6.966,-69.68027 -2.6569,-25.49638 -5.5447,-51.1193 -7.9991,-70.43953 -2.4545,-19.32023 -4.4441,-32.33776 -5.186,-32.62335 -0.742,-0.28559 0.5077,12.44593 2.6093,31.74195 2.1017,19.29601 5.0224,45.1565 7.7299,71.12886 2.7075,25.97235 5.2012,52.05656 6.8072,71.79999 1.6061,19.74344 2.3562,33.1461 1.7008,33.75535 -0.6555,0.60926 -2.0572,-12.18377 -3.9907,-31.7271 -1.9335,-19.54332 -4.4337,-45.83693 -7.1767,-72.22883 -2.743,-26.39191 -5.7294,-52.8821 -8.2603,-72.81858 -2.5308,-19.93648 -4.5723,-33.31926 -5.3008,-33.49633 -0.7285,-0.17706 0.5857,13.02836 2.7657,32.96753 2.18,19.93916 5.1909,46.61206 7.9719,73.36994 2.7809,26.75789 5.3315,53.60075 6.9713,73.87985 1.6398,20.2791 2.4027,33.99443 1.7379,34.49724 -0.6648,0.50281 -2.0893,-12.70944 -4.0603,-32.81557 -1.9709,-20.10612 -4.5249,-47.10613 -7.3313,-74.17883 -2.8064,-27.07269 -5.8656,-54.21808 -8.4523,-74.61498 -2.5868,-20.3969 -4.6654,-34.0453 -5.3817,-34.12403 -0.7163,-0.0787 0.6467,13.49075 2.8842,33.91451 2.2376,20.42375 5.3135,47.70178 8.1462,75.04014 2.8328,27.33837 5.4222,54.73706 7.084,75.40216 1.6619,20.66509 2.4317,34.59659 1.7585,35.00054 -0.6733,0.40395 -2.1138,-13.1234 -4.1103,-33.64088 -1.9966,-20.51749 -4.5868,-48.0251 -7.4359,-75.58169 -2.8491,-27.55659 -5.9572,-55.16214 -8.5809,-75.8755 -2.6236,-20.71337 -4.7255,-34.53453 -5.4305,-34.52234 -0.7049,0.0122 0.6921,13.84543 2.968,34.60781 2.2758,20.76237 5.3933,48.4539 8.2581,76.18267 2.8648,27.72878 5.4766,55.49481 7.1499,76.4062 1.6732,20.9114 2.4447,34.96815 1.7635,35.27838 -0.6811,0.31023 -2.1317,-13.43624 -4.1431,-34.22424 -2.0113,-20.788 -4.6218,-48.61752 -7.4943,-76.47339 -2.8726,-27.85587 -6.0073,-55.73809 -8.6497,-76.63149 -2.6424,-20.89339 -4.7542,-34.79797 -5.4483,-34.69854 -0.6941,0.0994 0.7232,14.10334 3.0191,35.06703 2.2959,20.96369 5.433,48.88715 8.311,76.82566 2.878,27.93851 5.4969,55.89206 7.1717,76.91594 1.6748,21.02387 2.443,35.11806 1.7543,35.33785 -0.6886,0.2198 -2.1439,-13.65459 -4.1601,-34.57821 -2.0161,-20.92362 -4.6316,-48.89647 -7.5093,-76.87363 -2.8776,-27.97715 -6.0174,-55.9586 -8.6609,-76.89941 -2.6435,-20.9408 -4.7522,-34.84097 -5.4355,-34.65556 -0.6834,0.18542 0.7407,14.27096 3.0391,35.30318 2.2984,21.03222 5.4335,49.01111 8.3066,76.98323 2.8732,27.97211 5.4844,55.93744 7.1512,76.94253 1.6668,21.0051 2.4267,35.04996 1.7309,35.18112 -0.6959,0.13117 -2.1509,-13.78254 -4.1622,-34.70993 -2.0113,-20.92739 -4.6172,-48.86845 -7.482,-76.79198 -2.8647,-27.92354 -5.9883,-55.82954 -8.6156,-76.68682 -2.6274,-20.85728 -4.7199,-34.66583 -5.3926,-34.39444 -0.6728,0.27138 0.7452,14.35131 3.0287,35.32125 2.2835,20.96994 5.3956,48.82989 8.246,76.6613 2.8505,27.83141 5.4395,55.63428 7.0889,76.49008 1.6493,20.85579 2.3964,34.76451 1.6934,34.80761 -0.703,0.0431 -2.153,-13.82258 -4.1499,-34.62294 -1.997,-20.80035 -4.5787,-48.53537 -7.4128,-76.23094 -2.8342,-27.69558 -5.9206,-55.35171 -8.5145,-75.99428 -2.5939,-20.64257 -4.6573,-34.27158 -5.3194,-33.91291 -0.6621,0.35866 0.7368,14.34643 2.9883,35.12344 2.2516,20.77702 5.3196,48.3433 8.1296,75.85899 2.81,27.51569 5.3622,54.9808 6.9846,75.55548 1.6224,20.57469 2.3516,34.25895 1.6415,34.21294 -0.7102,-0.046 -2.1502,-13.77638 -4.1233,-34.31802 -1.9732,-20.54165 -4.516,-47.89455 -7.3016,-75.18561 -2.7857,-27.29105 -5.8139,-54.52025 -8.357,-74.81448 -2.5432,-20.29423 -4.5644,-33.6535 -5.2156,-33.20467 -0.6512,0.44882 0.7158,14.25709 2.918,34.70829 2.2023,20.45121 5.2052,47.54535 7.9566,74.56592 2.7515,27.02056 5.2519,53.96755 6.8374,74.12444 1.5855,20.1569 2.2916,33.52371 1.5738,33.38391 -0.7178,-0.1398 -2.1428,-13.64659 -4.0823,-33.79415 -1.9396,-20.14756 -4.4284,-46.9359 -7.1471,-73.63878 -2.7187,-26.70288 -5.6669,-53.32032 -8.1415,-73.12608 -2.4746,-19.80577 -4.44,-32.79986 -5.0799,-32.25606 -0.64,0.54379 0.6819,14.08194 2.8172,34.06824 2.1353,19.9863 5.051,46.42074 7.7251,72.75713 2.674,26.33639 5.1067,52.57472 6.6447,72.16879 1.538,19.59407 2.215,32.54387 1.489,32.30322 -0.726,-0.24066 -2.1309,-13.43141 -4.0264,-33.04177 -1.8954,-19.61037 -4.3141,-45.64035 -6.9464,-71.55947 -2.6323,-25.91913 -5.4776,-51.7274 -7.8649,-70.89434 -2.3872,-19.16695 -4.2827,-31.69257 -4.9108,-31.04639 -0.628,0.64618 0.6354,13.81835 2.6851,33.19115 2.0497,19.37281 4.8552,44.94625 7.4316,70.395 2.5764,25.44875 4.9242,50.7728 6.4029,69.64681 1.4787,18.87401 2.1198,31.29798 1.3847,30.94657 -0.7352,-0.35141 -2.114,-13.12721 -3.9539,-32.04576 -1.8398,-18.91856 -4.1707,-43.97986 -6.6955,-68.90229 -2.5248,-24.92242 -5.2429,-49.70596 -7.5228,-68.06899 -2.2798,-18.36302 -4.0901,-30.30553 -4.7052,-29.54589 -0.6151,0.75965 0.5755,13.46233 2.5198,32.05929 1.9444,18.59695 4.6147,43.08817 7.0713,67.4249 2.4567,24.33673 4.7003,48.51897 6.1062,66.49794 1.4059,17.97898 2.0031,29.75469 1.2574,29.27838 -0.7456,-0.47632 -2.0917,-12.72898 -3.8628,-30.78444 -1.7711,-18.05545 -3.9943,-41.9137 -6.3882,-65.60119 -2.3939,-23.68749 -4.9578,-47.20421 -7.1081,-64.57662 -2.1504,-17.3724 -3.8587,-28.60048 -4.4593,-27.71069 -0.6006,0.88979 0.5021,13.00847 2.3194,30.64709 1.8173,17.63862 4.3247,40.79719 6.6366,63.76675 2.3118,22.96956 4.429,45.75012 5.746,62.63272 1.3171,16.88261 1.8603,27.86728 1.1021,27.24505 -0.7582,-0.62223 -2.0635,-12.23014 -3.7504,-29.22662 -1.687,-16.99649 -3.779,-39.38155 -6.015,-61.5581 -2.2359,-22.17655 -4.6149,-44.14458 -6.6105,-60.30701 -1.9956,-16.16242 -3.5827,-26.51924 -4.1663,-25.47335 -0.5836,1.0459 0.4144,12.4499 2.0801,28.91753 1.6658,16.46762 3.9784,37.99886 6.1159,59.29921 2.1375,21.30036 4.1009,42.36983 5.3092,57.91392 1.2083,15.54408 1.6842,25.56279 0.9102,24.7616 -0.774,-0.80118 -2.0285,-11.62281 -3.6121,-27.32677 -1.5836,-15.70396 -3.5158,-36.29025 -5.561,-56.62078 -2.0452,-20.33052 -4.2024,-40.40528 -6.0131,-55.08615 -1.8107,-14.68088 -3.2533,-23.96788 -3.8157,-22.72289 -0.5624,1.24498 0.3119,11.77932 1.797,26.81571 1.485,15.03639 3.564,34.57484 5.4903,53.82805 1.9262,19.25321 3.7007,38.22119 4.7736,52.11664 1.0728,13.89545 1.4629,22.71837 0.6675,21.68146 -0.7953,-1.0369 -1.9861,-10.90013 -3.4411,-25.01651 -1.4551,-14.11638 -3.1897,-32.4859 -5.0017,-50.53538 -1.8119,-18.04947 -3.7001,-35.77889 -5.2867,-48.61507 -1.5865,-12.83618 -2.8539,-20.77912 -3.3873,-19.25563 -0.5334,1.5235 0.1944,10.99501 1.4618,24.25871 1.2673,13.26369 3.0618,30.31957 4.7265,47.0118 1.6647,16.69222 3.2007,33.02079 4.0989,44.82986 0.8982,11.80908 1.1731,19.09866 0.3453,17.71291 -0.8278,-1.38574 -1.9371,-10.06964 -3.2276,-22.19221 -1.2905,-12.12257 -2.7726,-27.6838 -4.2898,-42.82421 -1.5172,-15.14041 -3.0682,-29.85999 -4.3727,-40.29927 -1.3045,-10.43928 -2.3496,-16.59825 -2.8364,-14.61742 -0.4868,1.98082 0.066,10.13645 1.0631,21.12842 0.997,10.99197 2.4309,24.82029 3.755,38.14651 2.6483,26.65242 4.8428,51.29642 3.0627,47.22438 -0.8901,-2.03602 -1.8939,-9.25421 -2.9609,-18.74378 -1.067,-9.48957 -2.2023,-21.25052 -3.3158,-32.37205 -2.2269,-22.24305 -4.3649,-41.92843 -5.1185,-35.76976 -0.7535,6.15866 1.3967,26.63979 3.0186,43.07253 0.8109,8.21637 1.5003,15.42065 1.6936,19.31648 0.1933,3.89582 -0.1037,4.4832 -1.2871,-0.53423 -4.7334,-20.06972 -4.7686,-34.11471 -4.7686,-34.11471"
         sodipodi:ry="113.41463"
         sodipodi:rx="70.731705"
         sodipodi:cy="410.97562"
         sodipodi:cx="1900"
         id="path3903"
         style="fill:none;stroke:#000000;stroke-width:3.16368246;stroke-miterlimit:4;stroke-opacity:1;stroke-dasharray:none"
         sodipodi:type="arc"
         inkscape:path-effect="#path-effect3917" />
      <path
         transform="matrix(1.0924745,-0.29421221,0.33572062,0.93502649,-255.80346,634.02268)"
         d="m 1309.837,365.48599 c 0,0 -2.2485,9.17824 -5.6217,20.35837 -3.3732,11.18012 -7.8791,24.36212 -12.2971,32.36963 -4.4179,8.00751 0.6637,-8.50497 6.7881,-28.76967 6.1245,-20.26469 13.2476,-44.2816 13.3475,-51.28295 0.1,-7.00135 -6.8161,16.54416 -14.6961,42.72256 -3.94,13.08919 -8.1206,26.83661 -11.7106,37.753 -3.5899,10.91639 -6.5835,19.00175 -8.1121,20.76684 -3.0571,3.53018 5.8372,-25.15465 15.1195,-55.95465 4.6411,-15.40001 9.3836,-31.3288 12.8848,-44.0239 3.5013,-12.6951 5.7681,-22.15651 5.5045,-24.62175 -0.2636,-2.46523 -2.7826,4.51622 -6.5349,16.4443 -3.7524,11.92808 -8.7508,28.80278 -13.9561,46.12405 -5.2053,17.32126 -10.6185,35.08909 -15.0802,48.80341 -4.4618,13.71432 -7.9616,23.37514 -9.2884,24.48238 -1.3269,1.10725 0.8475,-7.43806 4.7785,-21.00279 3.9311,-13.56474 9.6057,-32.14889 15.3097,-51.11935 5.704,-18.97045 11.4364,-38.32721 15.6197,-53.43713 4.1834,-15.10992 6.8287,-25.973 6.4195,-27.95613 -0.4092,-1.98313 -3.4553,6.89171 -7.93,21.36567 -4.4748,14.47396 -10.3948,34.54704 -16.518,54.96039 -6.1232,20.41335 -12.4507,41.16697 -17.5739,57.00202 -5.1233,15.83504 -9.0278,26.75151 -10.2409,27.49055 -1.2132,0.73905 1.4802,-9.43486 6.1007,-25.21633 4.6205,-15.78148 11.1514,-37.17052 17.6592,-58.86175 6.5078,-21.69123 12.9917,-43.68464 17.6975,-60.67486 4.7059,-16.99022 7.6488,-28.97725 7.1481,-30.6557 -0.5008,-1.67845 -3.9371,8.62765 -8.9592,25.06137 -5.022,16.43372 -11.65,38.99505 -18.4857,61.82707 -6.8357,22.83202 -13.88,45.93472 -19.5272,63.45118 -5.6472,17.51645 -9.8788,29.44666 -11.0137,29.93369 -1.1349,0.48703 1.9637,-10.9543 7.1264,-28.48129 5.1627,-17.527 12.3695,-41.13966 19.5114,-64.99531 7.1418,-23.85565 14.218,-47.95428 19.3366,-66.45322 5.1186,-18.49894 8.2981,-31.39818 7.7312,-32.85504 -0.567,-1.45687 -4.3069,9.98409 -9.7595,27.9835 -5.4527,17.99941 -12.6417,42.55726 -20.0454,67.33418 -7.4037,24.77692 -15.0229,49.7729 -21.0922,68.64858 -6.0693,18.87568 -10.5668,31.63106 -11.642,31.92674 -1.0752,0.29569 2.3485,-12.16289 7.9468,-31.09719 5.5983,-18.93429 13.3482,-44.3443 20.9983,-69.95146 7.65,-25.60717 15.1995,-51.41148 20.6475,-71.1344 5.448,-19.72291 8.8161,-33.36442 8.1972,-34.64597 -0.619,-1.28155 -4.6,11.07751 -10.3964,30.34577 -5.7963,19.26826 -13.4343,45.44573 -21.2943,71.801 -7.86,26.35526 -15.9427,52.88833 -22.3529,72.8678 -6.4102,19.97946 -11.1229,33.40532 -12.1497,33.54618 -1.0267,0.14086 2.66,-13.14345 8.6098,-33.22005 5.9498,-20.0766 14.137,-46.9455 22.1947,-73.97384 8.0578,-27.02834 15.9855,-54.21612 21.6956,-74.93048 5.7102,-20.71435 9.2271,-34.95528 8.5649,-36.08993 -0.6622,-1.13464 -4.8358,11.97103 -10.9064,32.26839 -6.0706,20.29737 -14.067,47.78644 -22.2917,75.4186 -8.2247,27.63215 -16.6784,55.40739 -23.3612,76.2771 -6.6828,20.8697 -11.5671,34.83388 -12.5529,34.84391 -0.9858,0.01 2.913,-13.94365 9.1441,-34.9427 6.2311,-20.99905 14.7668,-49.04347 23.1479,-77.21492 8.3811,-28.17145 16.6072,-56.46993 22.5227,-77.97709 5.9155,-21.50717 9.5471,-36.22302 8.8474,-37.22922 -0.6997,-1.0062 -5.026,12.70313 -11.3127,33.8265 -6.2868,21.12337 -14.5646,49.66078 -23.0756,78.31074 -8.5111,28.64996 -17.2558,57.41247 -24.1514,78.98605 -6.8956,21.57357 -11.9124,35.95821 -12.8619,35.85242 -0.9495,-0.10578 3.1175,-14.5959 9.5689,-36.32719 6.4515,-21.73129 15.2581,-50.70377 23.8889,-79.77428 8.6308,-29.07051 17.0853,-58.23905 23.1564,-80.36249 6.071,-22.12344 9.787,-37.20176 9.0537,-38.09184 -0.7333,-0.89007 -5.1781,13.29796 -11.6301,35.06736 -6.452,21.76939 -14.9432,51.12017 -23.6706,80.5556 -8.7273,29.43543 -17.6911,58.95552 -24.7451,81.06355 -7.0541,22.10802 -12.167,36.80398 -13.083,36.59116 -0.916,-0.21283 3.2801,-15.12141 9.8969,-37.41345 6.6168,-22.29204 15.6238,-51.96754 24.4372,-81.71421 8.8134,-29.74666 17.433,-59.5645 23.614,-82.14121 6.181,-22.57671 9.9535,-37.9123 9.1892,-38.69447 -0.7643,-0.78217 -5.297,13.77109 -11.868,36.02134 -6.5711,22.25025 -15.2136,52.1975 -24.0927,82.20333 -8.8791,30.00582 -17.995,60.0702 -25.1568,82.55473 -7.1618,22.48453 -12.3365,37.3892 -13.2211,37.07559 -0.8845,-0.31362 3.4044,-15.53178 10.1353,-38.22509 6.731,-22.6933 15.8726,-52.86175 24.8062,-83.07593 8.9336,-30.21419 17.6591,-60.47412 23.9076,-83.35038 6.2485,-22.87627 10.0512,-38.36887 9.2577,-39.04841 -0.7935,-0.67954 -5.3862,14.13342 -12.0334,36.70947 -6.6471,22.57604 -15.3827,52.91517 -24.3529,83.28796 -8.9702,30.3728 -18.1752,60.77926 -25.3964,83.48996 -7.2213,22.71071 -12.4251,37.72566 -13.2796,37.31544 -0.8545,-0.41022 3.493,-15.83533 10.2895,-38.77849 6.7966,-22.94315 16.0104,-53.40436 25.005,-83.88678 8.9945,-30.48242 17.7697,-60.98605 24.0453,-84.01405 6.2756,-23.028 10.0832,-38.58038 9.2615,-39.16028 -0.8216,-0.5799 -5.448,14.39252 -12.1306,37.14582 -6.6826,22.7533 -15.4557,53.28748 -24.4588,83.8311 -9.0031,30.54361 -18.2363,61.09665 -25.4704,83.88769 -7.2341,22.79104 -12.435,37.82006 -13.2603,37.31563 -0.8253,-0.50443 3.5478,-16.03788 10.3631,-39.0844 6.8154,-23.04651 16.0411,-53.6061 25.0392,-84.16279 8.9981,-30.5567 17.7688,-61.11052 24.0321,-84.14549 6.2632,-23.03498 10.0512,-38.55113 9.2019,-39.03248 -0.8493,-0.48136 -5.4842,14.55343 -12.1629,37.33901 -6.6787,22.78558 -15.4352,53.32194 -24.4144,83.84373 -8.9793,30.52179 -18.1812,61.029 -25.3823,83.75627 -7.2012,22.72727 -12.3674,37.67461 -13.1639,37.07664 -0.7965,-0.59797 3.5702,-16.14332 10.3585,-39.14887 6.7882,-23.00555 15.9664,-53.4713 24.9116,-83.91009 8.9452,-30.43878 17.6577,-60.85059 23.8698,-83.74825 6.2121,-22.89767 9.9557,-38.28119 9.0787,-38.66339 -0.8769,-0.3822 -5.4957,14.61919 -12.1316,37.29296 -6.6359,22.67378 -15.3224,53.01994 -24.2213,83.32731 -8.8989,30.30737 -18.0102,60.57594 -25.1326,83.09453 -7.1223,22.51858 -12.222,37.28718 -12.9896,36.5946 -0.7675,-0.69258 3.5611,-16.15385 10.2765,-38.97373 6.7154,-22.81989 15.7866,-52.99838 24.6223,-83.12539 8.8357,-30.12702 17.4361,-60.20256 23.5578,-82.81653 6.1216,-22.61398 9.7957,-37.76639 8.8906,-38.04715 -0.9051,-0.28076 -5.4832,14.59102 -12.0372,37.00723 -6.554,22.4162 -15.1162,52.37684 -23.8778,82.27379 -8.7615,29.89696 -17.722,59.73023 -24.7191,81.89172 -6.997,22.16149 -11.9975,36.65119 -12.7354,35.86098 -0.7379,-0.7902 3.5208,-16.07025 10.1169,-38.5568 6.5962,-22.48655 15.5001,-52.17959 24.1685,-81.79577 8.6683,-29.61618 17.1014,-59.15549 23.0921,-81.33459 5.9908,-22.17909 9.5694,-36.99797 8.6351,-37.17327 -0.9343,-0.17529 -5.4467,14.46849 -11.8786,36.47696 -6.4319,22.00846 -14.8143,51.3816 -23.3796,80.665 -8.5653,29.28341 -17.3131,58.47708 -24.1366,80.12661 -6.8235,21.64953 -11.6909,35.75491 -12.3978,34.86175 -0.7069,-0.89316 3.4493,-15.89194 9.8785,-37.89168 6.4291,-21.99974 15.1032,-51.00046 23.544,-79.89751 8.4409,-28.89704 16.6489,-57.69043 22.4662,-79.2755 5.8172,-21.58508 9.2726,-35.96185 8.3076,-36.02568 -0.9651,-0.0638 -5.3857,14.24942 -11.6533,35.69244 -6.2677,21.44301 -14.4116,50.01578 -22.7188,78.47097 -8.3072,28.45519 -16.7772,56.7928 -23.3763,77.76549 -6.5992,20.97269 -11.2974,34.58046 -11.971,33.57598 -0.6736,-1.00449 3.3463,-15.61711 9.5583,-36.96749 6.212,-21.35038 14.59,-49.43852 22.7394,-77.39402 8.1494,-27.95551 16.0706,-55.77838 21.6686,-76.59823 5.5979,-20.81985 8.8998,-34.63669 7.9015,-34.58011 -0.9982,0.0566 -5.2991,13.93045 -11.3573,34.63893 -6.0582,20.70848 -13.9007,48.25155 -21.8832,75.64651 -7.9825,27.39495 -16.1044,54.64179 -22.4244,74.7578 -6.3199,20.11601 -10.8097,33.10118 -11.4465,31.97282 -0.6368,-1.12837 3.211,-15.24254 9.152,-35.767 5.9409,-20.52447 13.9511,-47.45924 21.739,-74.22879 7.7879,-26.76956 15.3541,-53.3739 20.6815,-73.23753 5.3273,-19.86364 8.4408,-32.98655 7.4048,-32.79325 -1.036,0.19331 -5.187,13.51025 -10.9856,33.29748 -5.7986,19.78724 -13.2692,46.04476 -20.8527,72.11922 -7.5834,26.07447 -15.2789,51.96587 -21.2579,71.02088 -5.9791,19.055 -10.2159,31.2736 -10.8107,30.00245 -0.5947,-1.27115 3.0418,-14.76183 8.6513,-34.26066 5.6095,-19.49883 13.1709,-45.00582 20.5174,-70.3096 7.3466,-25.30378 14.4792,-50.40435 19.476,-69.09034 4.9969,-18.686 7.8807,-30.95741 6.8001,-30.60289 -1.0806,0.35453 -5.0472,12.98162 -10.5283,31.63262 -5.4811,18.651 -12.498,43.32592 -19.5958,67.77612 -7.0977,24.45021 -14.2756,48.67569 -19.8415,66.42782 -5.5658,17.75213 -9.4968,29.03091 -10.0413,27.58769 -0.5445,-1.44321 2.8363,-14.16667 8.0443,-32.40547 5.2079,-18.2388 12.225,-41.99294 19.0354,-65.4975 6.8103,-23.50457 13.4147,-46.75956 18.0082,-64.00008 4.5936,-17.24052 7.196,-28.46656 6.0602,-27.91321 -1.1357,0.55334 -4.8771,12.33466 -9.9707,29.59143 -5.0935,17.25677 -11.5571,39.98898 -18.0637,62.44409 -6.5067,22.45512 -13.0555,44.63314 -18.1192,60.78152 -5.0638,16.14838 -8.6228,26.26713 -9.1033,24.60371 -0.4806,-1.66343 2.5922,-13.44821 7.3133,-30.13873 4.721,-16.69052 11.076,-38.28678 17.231,-59.57318 6.1549,-21.28639 12.1108,-42.26292 16.2066,-57.71396 4.0959,-15.45105 6.348,-25.37662 5.139,-24.56109 -1.2089,0.81552 -4.6744,11.56036 -9.2909,27.09567 -4.6164,15.53532 -10.3976,35.8611 -16.176,55.83852 -5.7783,19.97741 -11.5527,39.60646 -15.9963,53.74829 -4.4437,14.14183 -7.5406,22.79644 -7.9322,20.82499 -0.3916,-1.97144 2.3085,-12.60303 6.4317,-27.36637 4.1231,-14.76334 9.6587,-33.65843 14.9962,-52.15686 5.3376,-18.49844 10.4783,-36.60022 13.9419,-49.77695 3.4636,-13.17673 5.2627,-21.4284 3.9452,-20.22662 -1.3175,1.20177 -4.4409,10.66436 -8.4555,24.0277 -4.0146,13.36335 -8.9302,30.62746 -13.7825,47.43228 -4.8524,16.80481 -9.6405,33.15035 -13.2872,44.67655 -3.6467,11.5262 -6.1401,18.23306 -6.3877,15.76055 -0.2476,-2.47252 1.9962,-11.66873 5.361,-23.95278 3.3647,-12.28406 7.8441,-27.65595 12.1119,-42.47985 8.5356,-29.64778 16.2105,-57.10354 13.1734,-53.28048 -1.5186,1.91153 -4.2121,9.77003 -7.4277,20.25597 -3.2156,10.48594 -6.9581,23.59933 -10.5395,36.02064 -7.1627,24.84262 -13.6793,46.91696 -13.5135,39.66685 0.1657,-7.2501 6.832,-30.06374 12.1614,-48.62964 5.3295,-18.56591 9.3698,-32.88408 4.6403,-23.14325 -9.4592,19.48165 -13.7785,41.20434 -13.7785,41.20434"
         sodipodi:ry="132.92683"
         sodipodi:rx="91.463417"
         sodipodi:cy="335.36584"
         sodipodi:cx="1220.7317"
         id="path3905"
         style="fill:none;stroke:#000000;stroke-width:3.77919674;stroke-miterlimit:4;stroke-opacity:1;stroke-dasharray:none"
         sodipodi:type="arc"
         inkscape:path-effect="#path-effect3911" />
      <path
         inkscape:connector-curvature="0"
         id="path3907"
         d="m 1478.2929,430.37795 c 0,0 0.67,23.28528 -4.5296,40.97877 -2.5998,8.84674 -1.6614,-5.59933 -0.5442,-24.11957 1.1173,-18.52025 2.3718,-41.11466 0.7354,-48.56462 -1.6364,-7.44996 -2.787,14.39161 -4.2353,38.91973 -0.7241,12.26407 -1.5231,25.19977 -2.4333,35.48148 -0.9103,10.28172 -1.9271,17.90946 -3.0554,19.55758 -2.2565,3.29626 -0.441,-23.7738 1.2945,-53.03472 0.8678,-14.63045 1.7189,-29.80862 2.12,-42.01257 0.401,-12.20394 0.3575,-21.43366 -0.5233,-24.16723 -0.8807,-2.73356 -1.7101,3.74815 -2.5599,15.07751 -0.8499,11.32937 -1.7314,27.50638 -2.704,44.1634 -0.9727,16.65702 -2.0375,33.79406 -3.1486,47.04348 -1.1111,13.24943 -2.2595,22.61123 -3.3534,23.71778 -1.0939,1.10655 -1.0363,-7.13964 -0.4358,-20.27903 0.6006,-13.13939 1.7325,-31.17198 2.8128,-49.63823 1.0804,-18.46625 2.1081,-37.36616 2.6204,-52.24018 0.5123,-14.87402 0.5187,-25.72215 -0.3872,-28.08485 -0.9059,-2.36271 -1.8103,6.11827 -2.7776,20.22098 -0.9672,14.10272 -2.0128,33.82716 -3.1737,53.95138 -1.1609,20.12421 -2.4382,40.64821 -3.7161,56.35003 -1.278,15.70181 -2.5433,26.58145 -3.6197,27.41696 -1.0764,0.83551 -0.8843,-9.20446 -0.1128,-24.87131 0.7715,-15.66686 2.1069,-36.9606 3.3578,-58.63264 1.2509,-21.67204 2.4164,-43.72238 3.0144,-60.90242 0.598,-17.18005 0.6422,-29.4898 -0.2772,-31.68067 -0.9193,-2.19087 -1.8746,7.926 -2.9299,24.37507 -1.0552,16.44908 -2.2305,39.23037 -3.5481,62.36835 -1.3176,23.13797 -2.7787,46.63262 -4.2044,64.50843 -1.4258,17.87581 -2.7984,30.13277 -3.8634,30.79535 -1.0651,0.66258 -0.7544,-10.92901 0.1677,-28.82203 0.9221,-17.89301 2.4358,-42.08745 3.833,-66.63055 1.3971,-24.5431 2.6766,-49.43486 3.3439,-68.72253 0.6672,-19.28767 0.7401,-32.97125 -0.1871,-35.09797 -0.9271,-2.12673 -1.9182,9.42902 -3.0428,27.99256 -1.1246,18.56353 -2.4076,44.13484 -3.8623,70.03924 -1.4548,25.90439 -3.0824,52.14186 -4.6447,72.03771 -1.5623,19.89585 -3.0368,33.45008 -4.0934,33.98798 -1.0567,0.5379 -0.6345,-12.49814 0.4263,-32.45459 1.0609,-19.95645 2.7361,-46.8333 4.259,-73.97701 1.5228,-27.14371 2.8924,-54.55428 3.6063,-75.57816 0.7139,-21.02387 0.7945,-35.66107 -0.1587,-37.25802 -0.9532,-1.59696 -1.9798,11.44261 -3.1638,31.9278 -1.184,20.4852 -2.5538,48.41602 -4.119,76.60155 -1.5652,28.18554 -3.3267,56.6258 -4.9987,78.12987 -1.6719,21.50407 -3.2278,36.07196 -4.2779,36.51275 -1.05,0.4408 -0.5422,-13.67971 0.6241,-35.18386 1.1663,-21.50415 2.9628,-50.39195 4.5784,-79.48574 1.6155,-29.09379 3.0492,-58.39357 3.7951,-80.7217 0.7458,-22.32813 0.8304,-37.6846 -0.1407,-38.89175 -0.971,-1.20716 -2.0207,12.94173 -3.2462,34.86664 -1.2255,21.9249 -2.6582,51.62583 -4.3055,81.52276 -1.6473,29.89692 -3.5101,59.98985 -5.2654,82.69874 -1.7553,22.7089 -3.3734,38.03377 -4.418,38.3946 -1.0446,0.36082 -0.4691,-14.60069 0.7798,-37.30548 1.2489,-22.70478 3.1399,-53.15285 4.8267,-83.76515 1.6869,-30.61229 3.1689,-61.38882 3.9386,-84.75052 0.7697,-23.3617 0.8571,-39.30857 -0.1251,-40.26157 -0.9822,-0.953 -2.0469,14.0406 -3.3024,37.0853 -1.2556,23.04471 -2.7359,54.14053 -4.4474,85.39196 -1.7115,31.25144 -3.655,62.65849 -5.4772,86.32568 -1.8221,23.66718 -3.4904,39.5945 -4.5302,39.88645 -1.0398,0.29196 -0.4095,-15.34215 0.9057,-39.00486 1.3151,-23.66271 3.2815,-55.35402 5.0244,-87.17646 1.743,-31.82244 3.2619,-63.77602 4.0495,-87.96327 0.7876,-24.18724 0.8764,-40.60816 -0.114,-41.36529 -0.9905,-0.75713 -2.0656,14.90588 -3.3438,38.84098 -1.2781,23.93509 -2.7951,56.14227 -4.5572,88.47348 -1.7622,32.33121 -3.7701,64.78645 -5.6458,89.21767 -1.8757,24.43122 -3.5844,40.83842 -4.6202,41.07354 -1.0358,0.23511 -0.3614,-15.93627 1.0069,-40.36257 1.3682,-24.42631 3.3944,-57.10753 5.1815,-89.89208 1.787,-32.78455 3.3343,-65.67243 4.1351,-90.51205 0.8008,-24.83963 0.8898,-41.63099 -0.1072,-42.22251 -0.9971,-0.59153 -2.08,15.60893 -3.3753,40.24783 -1.2952,24.6389 -2.8402,57.71624 -4.6407,90.87847 -1.8006,33.16223 -3.8571,66.40937 -5.771,91.38785 -1.914,24.97849 -3.6488,41.68834 -4.674,41.776 -1.0252,0.0877 -0.315,-16.53412 1.0924,-41.5438 1.4074,-25.00968 3.4748,-58.40724 5.2906,-91.87114 1.8158,-33.46389 3.3797,-66.99412 4.1868,-92.26911 0.8072,-25.27499 0.894,-42.29474 -0.1088,-42.73771 -1.0028,-0.44296 -2.09,16.1335 -3.3947,41.24396 -1.3047,25.11046 -2.8653,58.75492 -4.6877,92.44797 -1.8223,33.69305 -3.9067,67.43469 -5.8416,92.7395 -1.9349,25.30481 -3.6824,42.1728 -4.6974,42.11854 -1.015,-0.0543 -0.2827,-16.97628 1.1465,-42.3478 1.4291,-25.37152 3.5173,-59.19254 5.3458,-93.04479 1.8286,-33.85224 3.3974,-67.73571 4.2044,-93.23214 0.8069,-25.49643 0.8894,-42.60582 -0.1186,-42.9099 -1.008,-0.30407 -2.0968,16.50115 -3.4043,41.86819 -1.3075,25.36704 -2.8724,59.2959 -4.7013,93.23909 -1.8288,33.94318 -3.9215,67.90069 -5.861,93.32505 -1.9396,25.42435 -3.6872,42.31555 -4.6925,42.12611 -1.0053,-0.18945 -0.2639,-17.27 1.1706,-42.79489 1.4345,-25.52489 3.5242,-59.49413 5.3507,-93.46095 1.8264,-33.96683 3.3897,-67.93125 4.1904,-93.44651 0.8008,-25.51525 0.8769,-42.58134 -0.1359,-42.75152 -1.0128,-0.17017 -2.101,16.72591 -3.4052,42.14539 -1.3042,25.41949 -2.8631,59.36237 -4.6837,93.28579 -1.8207,33.92342 -3.9031,67.82738 -5.8313,93.16902 -1.9283,25.34164 -3.6636,42.12096 -4.6592,41.79509 -0.9955,-0.32587 -0.2576,-17.43104 1.1664,-42.90788 1.424,-25.47683 3.4966,-59.32532 5.3064,-93.13782 1.8099,-33.8125 3.3572,-67.589 4.146,-92.92187 0.7887,-25.33286 0.8566,-42.22208 -0.1609,-42.26001 -1.0176,-0.0379 -2.103,16.81386 -3.398,42.08334 -1.295,25.26947 -2.8375,58.95664 -4.6354,92.58946 -1.798,33.63283 -3.8513,67.21131 -5.7521,92.26341 -1.9008,25.0521 -3.6109,41.57783 -4.5961,41.10514 -0.9853,-0.47268 -0.2644,-17.45392 1.1311,-42.64632 1.3954,-25.19239 3.4292,-58.59594 5.205,-91.91321 1.7759,-33.31727 3.2941,-66.54828 4.0623,-91.3956 0.7682,-24.84732 0.8232,-41.31095 -0.2034,-41.09348 -1.0267,0.21747 -2.1098,16.89962 -3.3902,41.7603 -1.2804,24.86068 -2.794,57.89989 -4.5497,90.83145 -1.7558,32.93157 -3.7531,65.7555 -5.6028,90.18563 -1.8497,24.43013 -3.5148,40.46646 -4.4883,39.82283 -0.9735,-0.64363 -0.2853,-17.32398 1.0614,-41.96147 1.3468,-24.63749 3.3181,-57.23211 5.0422,-89.70429 1.7241,-32.47218 3.2015,-64.8219 3.9437,-88.96959 0.7422,-24.14769 0.7843,-40.09334 -0.2467,-39.75737 -1.031,0.33597 -2.1061,16.61568 -3.3623,40.79425 -1.2563,24.17858 -2.7273,56.25603 -4.4238,88.18748 -1.6965,31.93146 -3.6177,63.71692 -5.3994,87.31152 -1.7818,23.59461 -3.3891,38.99835 -4.3499,38.16637 -0.9608,-0.83197 -0.3188,-17.0685 0.9618,-40.92574 1.2806,-23.85723 3.1681,-55.33517 4.8231,-86.64995 1.655,-31.31478 3.078,-62.46642 3.7858,-85.67105 0.7077,-23.20462 0.7329,-38.46225 -0.3032,-37.98901 -1.0362,0.47323 -2.1003,16.20678 -3.325,39.48 -1.2246,23.27322 -2.6406,54.08613 -4.2617,84.71807 -1.6211,30.63195 -3.4465,61.08294 -5.1449,83.63233 -1.6984,22.5494 -3.2374,37.19721 -4.1893,36.22279 -0.9518,-0.97442 -0.3695,-16.59828 0.8288,-39.44544 1.1983,-22.84715 2.984,-52.91761 4.5552,-82.78523 1.5712,-29.86763 2.9287,-59.53241 3.5946,-81.56822 0.6658,-22.03581 0.6701,-36.44264 -0.3728,-35.79436 -1.0429,0.64828 -2.0936,15.7049 -3.2796,37.85206 -1.186,22.14715 -2.5349,51.38485 -4.0644,80.39529 -1.5296,29.01044 -3.2389,57.79361 -4.8362,79.03172 -1.5973,21.23812 -3.0532,34.93117 -3.9929,33.76136 -0.9397,-1.16981 -0.4289,-16.03644 0.6698,-37.6218 1.0988,-21.58535 2.7605,-49.88943 4.2288,-77.93415 1.4684,-28.04471 2.7442,-55.83005 3.357,-76.37794 0.6127,-20.54788 0.5892,-33.8583 -0.464,-32.95317 -1.0531,0.90514 -2.0873,15.1232 -3.2251,35.85191 -1.1378,20.7287 -2.4028,47.96806 -3.8188,74.91577 -1.416,26.94772 -2.9821,53.6038 -4.4547,73.16596 -1.4727,19.56216 -2.8264,32.0304 -3.7506,30.60244 -0.9242,-1.42796 -0.5003,-15.33674 0.476,-35.30947 0.9763,-19.97273 2.4844,-46.00942 3.8229,-71.69321 1.3386,-25.68378 2.5089,-51.01466 3.0501,-69.57578 0.5412,-18.56112 0.4764,-30.35247 -0.597,-28.9572 -1.0733,1.39526 -2.0882,14.58671 -3.1643,33.4766 -1.076,18.88988 -2.2318,43.47821 -3.5009,67.66724 -1.269,24.18903 -2.6501,47.97876 -3.9619,65.27146 -1.3118,17.2927 -2.5334,28.08836 -3.436,26.28925 -0.9027,-1.7991 -0.5942,-14.34664 0.2181,-32.02281 0.8124,-17.67617 2.1134,-40.48098 3.2744,-62.79463 1.161,-22.31364 2.1836,-44.13613 2.6215,-59.84767 0.438,-15.71153 0.3095,-25.31211 -0.7967,-23.18195 -1.1063,2.13017 -2.0925,13.87298 -3.0793,30.13761 -0.9868,16.26462 -1.9864,37.05106 -3.0501,57.26847 -1.0637,20.2174 -2.19,39.86578 -3.2807,53.8543 -1.0907,13.98851 -2.1306,22.31716 -2.9983,19.89511 -0.8678,-2.42206 -0.7013,-13.2114 -0.096,-27.86134 0.6053,-14.64995 1.6402,-33.1605 2.5679,-51.02497 0.9277,-17.86447 1.7499,-35.08286 2.0462,-47.14849 0.2963,-12.06563 0.079,-18.9785 -1.0592,-16.23193 -1.1384,2.74658 -2.0702,12.4638 -2.924,25.2464 -0.8539,12.7826 -1.6361,28.63057 -2.4265,43.63865 -1.5807,30.01615 -3.1935,56.67271 -4.7614,48.72749 -0.784,-3.97261 -0.773,-12.83135 -0.4299,-23.50622 0.3432,-10.67488 1.0156,-23.16588 1.5937,-34.40301 0.578,-11.23713 1.0638,-21.22038 1.0801,-26.87975 0.016,-5.65938 -0.4301,-6.99487 -1.7383,-0.93648 -5.2328,24.23356 -4.5074,48.45513 -4.5074,48.45513"
         style="fill:none;stroke:#000000;stroke-width:3.99999952;stroke-miterlimit:4;stroke-opacity:1"
         inkscape:path-effect="#path-effect3913"
         inkscape:original-d="m 1372.0216,260.75749 c -23.1767,3.06998 -46.2016,16.58215 -55.2353,38.92838 -18.3968,31.85791 -26.5329,69.11733 -24.0711,105.76237 1.0571,41.71476 14.9969,85.545 47.6825,113.21996 15.1932,13.58473 36.6813,19.86184 56.6421,14.81148 29.8604,-6.81273 60.6313,-22.95893 73.6603,-52.18193 8.9259,-20.89948 8.857,-44.52026 6.2724,-66.75108 -5.2154,-36.36322 -20.1581,-70.37156 -34.7628,-103.75779 -12.6791,-26.91037 -39.2513,-49.93319 -70.1881,-50.03139 z" />
      <path
         sodipodi:nodetypes="ssscsss"
         inkscape:connector-curvature="0"
         id="path3909"
         d="m 1880.2689,624.65955 c 0,0 1.6871,15.55963 -1.8986,29.91645 -1.7928,7.17841 -1.7224,-2.15861 -1.6599,-14.06602 0.063,-11.90741 0.1019,-26.3852 -1.636,-29.48832 -1.7378,-3.10311 -1.7604,10.97671 -1.8387,26.76109 -0.078,15.78438 -0.2236,33.27332 -2.001,36.98844 -1.7775,3.71512 -1.6132,-13.68917 -1.5107,-32.55876 0.1025,-18.86958 0.131,-39.20445 -1.6111,-41.3505 -1.7422,-2.14605 -1.7555,18.14523 -1.8686,39.67453 -0.1131,21.52929 -0.3374,44.29661 -2.1106,47.10264 -1.7732,2.80603 -1.5295,-19.95566 -1.3955,-43.88856 0.134,-23.93291 0.146,-49.03702 -1.598,-50.91585 -1.7441,-1.87883 -1.7401,23.20909 -1.8821,49.34845 -0.1419,26.13935 -0.4415,53.33013 -2.2123,55.65703 -1.7709,2.3269 -1.4518,-24.8586 -1.2908,-53.05297 0.1609,-28.19436 0.1515,-57.39759 -1.5939,-59.10614 -1.7453,-1.70855 -1.7193,27.50099 -1.8864,57.61747 -0.084,15.05824 -0.2103,30.34322 -0.5466,42.10353 -0.3363,11.76031 -0.8766,19.99597 -1.7605,20.95556 -1.768,1.91919 -1.3773,-29.1005 -1.1932,-61.00227 0.092,-15.95088 0.1383,-32.12229 -0.067,-44.50711 -0.2055,-12.38483 -0.6565,-20.98307 -1.5297,-21.78764 -0.8733,-0.80456 -1.2937,6.9875 -1.5206,19.17767 -0.2269,12.19018 -0.2682,28.77846 -0.3623,45.56634 -0.094,16.78787 -0.2413,33.77535 -0.5971,46.7639 -0.3559,12.98855 -0.9132,21.97818 -1.7957,22.77037 -0.8825,0.7922 -1.2058,-7.40448 -1.2846,-20.19395 -0.079,-12.78948 0.078,-30.17175 0.1797,-47.75074 0.1015,-17.579 0.1471,-35.35472 -0.064,-48.93109 -0.2108,-13.57636 -0.67,-22.95338 -1.5437,-23.73498 -0.8737,-0.78159 -1.2863,7.81291 -1.5079,21.18583 -0.2216,13.37293 -0.2616,31.52427 -0.3642,49.85636 -0.1027,18.33209 -0.2684,36.84493 -0.6423,50.94084 -0.3738,14.09591 -0.9471,23.77489 -1.8283,24.43926 -0.8813,0.66437 -1.1874,-8.35206 -1.2482,-22.29802 -0.061,-13.94596 0.1141,-32.82146 0.2233,-51.87521 0.1091,-19.05375 0.1524,-38.28577 -0.065,-52.94477 -0.2171,-14.659 -0.6853,-24.745 -1.5595,-25.50671 -0.8742,-0.7617 -1.2782,8.562 -1.4933,23.01103 -0.2151,14.44903 -0.2522,34.02338 -0.3618,53.76295 -0.1095,19.73957 -0.2919,39.64435 -0.6823,54.75427 -0.3905,15.10991 -0.9789,25.42494 -1.859,25.985 -0.8801,0.56006 -1.1702,-9.19449 -1.2143,-24.18773 -0.044,-14.99324 0.1465,-35.22518 0.2618,-55.61987 0.1152,-20.3947 0.1547,-40.95216 -0.07,-56.59647 -0.2244,-15.6443 -0.7021,-26.37544 -1.5767,-27.1175 -0.8746,-0.74206 -1.2695,9.24664 -1.4772,24.67653 -0.2077,15.42989 -0.2407,36.30097 -0.3556,57.32365 -0.1149,21.02268 -0.3122,42.19697 -0.7178,58.23329 -0.4057,16.03631 -1.0081,26.93465 -1.8871,27.40544 -0.8791,0.47079 -1.1543,-9.95668 -1.1832,-25.90819 -0.029,-15.95152 0.1759,-37.42707 0.2957,-59.05246 0.1198,-21.62538 0.1543,-43.4006 -0.078,-59.95143 -0.2325,-16.55083 -0.7201,-27.87727 -1.5952,-28.60511 -0.875,-0.72785 -1.2603,9.8704 -1.4598,26.20198 -0.1995,16.33158 -0.227,38.39649 -0.3458,60.60196 -0.1189,22.20547 -0.3294,44.55151 -0.7489,61.44534 -0.4196,16.89384 -1.0351,28.33547 -1.9132,28.73214 -0.8781,0.39666 -1.1394,-10.64822 -1.1544,-27.48345 -0.015,-16.83522 0.2023,-39.46077 0.3253,-62.22543 0.123,-22.76467 0.1513,-45.66844 -0.09,-63.06011 -0.2415,-17.39166 -0.7394,-29.27121 -1.6148,-29.98743 -0.8755,-0.71622 -1.2507,10.44691 -1.4413,27.61487 -0.1905,17.16796 -0.2115,40.34074 -0.3329,63.6438 -0.1214,23.30307 -0.3436,46.73643 -0.7758,64.42554 -0.4322,17.68911 -1.0599,29.63398 -1.937,29.96007 -0.8772,0.32609 -1.1255,-11.29262 -1.1279,-28.94829 -0,-17.65567 0.2258,-41.3483 0.3506,-65.17008 0.1248,-23.82178 0.1459,-47.7727 -0.1052,-65.94493 -0.2511,-18.17223 -0.7597,-30.56578 -1.6355,-31.27281 -0.8759,-0.70704 -1.2408,10.97934 -1.4217,28.92291 -0.1809,17.94357 -0.1942,42.14434 -0.3168,66.46609 -0.1227,24.32175 -0.355,48.76449 -0.7985,67.192 -0.4435,18.42751 -1.0824,30.8398 -1.9586,31.10064 -0.8762,0.26085 -1.1126,-11.89052 -1.1037,-30.30806 0.01,-18.41754 0.2464,-43.10124 0.3717,-67.90508 0.1253,-24.80384 0.138,-49.7278 -0.1234,-68.62585 -0.2614,-18.89805 -0.7809,-31.77018 -1.6571,-32.47036 -0.8763,-0.70018 -1.2305,11.47169 -1.4011,30.13579 -0.1706,18.6641 -0.1752,43.82044 -0.2978,69.08921 -0.1226,25.26876 -0.3635,50.64996 -0.8169,69.76379 -0.4535,19.11382 -1.1025,31.96027 -1.9778,32.15954 -0.8753,0.19928 -1.1008,-12.44783 -1.0821,-31.57406 0.019,-19.12623 0.2641,-44.73158 0.3886,-70.44878 0.1245,-25.7172 0.1279,-51.54625 -0.1444,-71.1199 -0.2723,-19.57364 -0.8032,-32.89188 -1.6798,-33.58744 -0.8766,-0.69557 -1.2199,11.92705 -1.3795,31.26098 -0.1597,19.33393 -0.1547,45.37919 -0.2759,71.52889 -0.1212,26.14971 -0.369,52.40387 -0.8311,72.15563 -0.4622,19.75176 -1.1203,33.00112 -1.9946,33.1412 -0.8744,0.14009 -1.0901,-12.96911 -1.0628,-32.75503 0.027,-19.78592 0.2787,-46.24856 0.4011,-72.81535 0.1224,-26.56679 0.1154,-53.23774 -0.1684,-73.44027 -0.2837,-20.20253 -0.8261,-33.93666 -1.7031,-34.6298 -0.877,-0.69315 -1.2092,12.3478 -1.3573,32.30426 -0.1481,19.95646 -0.1324,46.82843 -0.251,73.79732 -0.1185,26.9689 -0.3716,54.03471 -0.841,74.37886 -0.4694,20.34416 -1.1356,33.96664 -2.0091,34.04888 -0.8735,0.0822 -1.0803,-13.45794 -1.0459,-33.85777 0.035,-20.39984 0.2903,-47.65934 0.4093,-75.01572 0.1189,-27.35639 0.1007,-54.80967 -0.1952,-75.59708 -0.2958,-20.7874 -0.85,-34.90893 -1.7274,-35.60183 -0.8774,-0.69289 -1.1981,12.73642 -1.3342,33.2713 -0.136,20.53488 -0.1087,48.17531 -0.2233,75.90466 -0.1146,27.72934 -0.3713,55.54759 -0.8465,76.4381 -0.4753,20.89051 -1.1483,34.85327 -2.0207,34.87163 -0.8725,0.0184 -1.0717,-13.92597 -1.0316,-34.89621 0.04,-20.97025 0.2986,-48.96642 0.4127,-77.05174 0.1142,-28.08532 0.084,-56.25979 -0.2249,-77.58663 -0.3085,-21.32684 -0.8745,-35.80606 -1.7524,-36.50088 -0.8778,-0.69481 -1.187,13.08955 -1.3104,34.15745 -0.1234,21.06789 -0.083,49.41932 -0.1927,77.85861 -0.1093,28.43929 -0.368,56.96645 -0.848,78.38582 -0.48,21.41938 -1.1595,35.73096 -2.0318,35.73909 -0.8723,0.008 -1.0649,-14.29525 -1.0201,-35.79858 0.045,-21.50333 0.3052,-50.2066 0.4137,-78.99826 0.1086,-28.79166 0.065,-57.67171 -0.2567,-79.52857 -0.3217,-21.85687 -0.9001,-36.69056 -1.7784,-37.3895 -0.8783,-0.69895 -1.1755,13.43576 -1.2856,35.03091 -0.1102,21.59516 -0.057,50.65075 -0.1603,79.79357 -0.1033,29.14282 -0.3635,58.37286 -0.848,80.31691 -0.4845,21.94406 -1.1702,36.60211 -2.0424,36.60096 -0.8721,-0.001 -1.0583,-14.66002 -1.0091,-36.69084 0.049,-22.03082 0.3109,-51.43358 0.4133,-80.92253 0.1024,-29.48894 0.045,-59.06407 -0.2903,-81.4396 -0.3354,-22.37554 -0.9265,-37.55148 -1.8051,-38.24206 -0.8787,-0.69059 -1.1635,13.79474 -1.26,35.9106 -0.096,22.11585 -0.029,51.86223 -0.1263,81.69375 -0.097,29.83152 -0.3581,59.74817 -0.8467,82.20458 -0.4886,22.4564 -1.1804,37.45255 -2.0524,37.44307 -0.872,-0.009 -1.0521,-15.01517 -0.9988,-37.56144 0.053,-22.54627 0.3158,-52.63313 0.4115,-82.80497 0.096,-30.17183 0.024,-60.42865 -0.3252,-83.31483 -0.3495,-22.88619 -0.9536,-38.40175 -1.8327,-39.09107 -0.879,-0.68932 -1.1511,14.13689 -1.2336,36.76288 -0.082,22.626 -8e-4,53.05179 -0.091,83.56164 -0.09,30.50985 -0.3517,61.10375 -0.8441,84.06597 -0.4923,22.96222 -1.19,38.29276 -2.0619,38.27588 -0.8719,-0.0169 -1.046,-15.36434 -0.989,-38.41895 0.057,-23.05461 0.32,-53.81639 0.4085,-84.66188 0.089,-30.8455 0,-61.77473 -0.3617,-85.16427 -0.3642,-23.38953 -0.9816,-39.23936 -1.861,-39.92608 -0.8794,-0.68671 -1.1386,14.47639 -1.2064,37.60584 -0.068,23.12946 0.029,54.22529 -0.054,85.40403 -0.082,31.17875 -0.3445,62.44042 -0.8403,85.90158 -0.4959,23.46115 -1.1993,39.12179 -2.0711,39.09847 -0.8718,-0.0233 -1.04,-15.70732 -0.9796,-39.26287 0.06,-23.55556 0.3234,-54.98267 0.4043,-86.49221 0.081,-31.50954 -0.021,-63.10151 -0.3997,-86.98679 -0.3791,-23.88528 -1.0102,-40.06387 -1.89,-40.74664 -0.8797,-0.68277 -1.1256,14.81302 -1.1785,38.43896 -0.053,23.62593 0.059,55.38202 -0.015,87.21985 -0.075,31.83784 -0.3363,63.75741 -0.8353,87.71033 -0.4991,23.95291 -1.2081,39.93917 -2.0798,39.91035 -0.8717,-0.0288 -1.0343,-16.04393 -0.9707,-40.09273 0.064,-24.0488 0.3261,-56.13129 0.3989,-88.29487 0.073,-32.16357 -0.044,-64.40824 -0.439,-88.78139 -0.3945,-24.37316 -1.0394,-40.87479 -1.9195,-41.55232 -0.8801,-0.67752 -1.1124,15.14657 -1.1499,39.26172 -0.038,24.11515 0.091,56.52136 0.024,89.0081 -0.066,32.48673 -0.3273,65.05399 -0.8293,89.49121 -0.502,24.43723 -1.2164,40.74443 -2.088,40.71107 -0.8717,-0.0334 -1.0288,-16.37398 -0.9623,-40.90807 0.066,-24.53408 0.3282,-57.26163 0.3925,-90.06889 0.064,-32.80726 -0.069,-65.69423 -0.4795,-90.54713 -0.4102,-24.8529 -1.0693,-41.67173 -1.9497,-42.34273 -0.8803,-0.671 -1.0988,15.4768 -1.1207,40.07363 -0.022,24.59684 0.1226,57.6427 0.065,90.76781 -0.058,33.12512 -0.3176,66.32949 -0.8223,91.24334 -0.5047,24.91384 -1.2243,41.53717 -2.0959,41.50019 -0.8716,-0.037 -1.0234,-16.69731 -0.9543,-41.70847 0.069,-25.01116 0.3298,-58.37314 0.3851,-91.81341 0.055,-33.44026 -0.095,-66.95882 -0.5209,-92.28311 -0.4263,-25.3243 -1.0996,-42.45435 -1.9803,-43.1176 -0.8807,-0.66325 -1.0851,15.80352 -1.091,40.87426 -0.01,25.07075 0.1553,58.74548 0.1067,92.49816 -0.049,33.75268 -0.3072,67.58332 -0.8143,92.96587 -0.5071,25.38255 -1.2319,42.31703 -2.1034,42.2774 -0.8716,-0.0396 -1.0183,-17.01378 -0.9467,-42.4936 0.072,-25.47982 0.3306,-59.46532 0.3768,-93.52765 0.046,-34.06233 -0.1209,-68.20149 -0.5634,-93.98865 -0.4424,-25.78716 -1.1302,-43.22232 -2.0112,-43.87664 -0.8809,-0.65432 -1.0711,16.12649 -1.0609,41.66318 0.01,25.53668 0.1886,59.82925 0.1493,94.19843 -0.039,34.36918 -0.2962,68.81499 -0.8055,94.65816 -0.5094,25.84317 -1.2391,43.08371 -2.1106,43.04236 -0.8715,-0.0413 -1.0133,-17.32327 -0.9395,-43.26316 0.074,-25.93989 0.3311,-60.53775 0.3678,-95.21097 0.037,-34.67322 -0.1476,-69.42181 -0.6065,-95.66316 -0.4589,-26.24134 -1.1613,-43.97545 -2.0425,-44.61971 -0.8811,-0.64426 -1.057,16.44555 -1.0304,42.44004 0.027,25.99449 0.2223,60.89364 0.1926,95.86807 -0.03,34.97443 -0.2847,70.02412 -0.7961,96.31968 -0.5114,26.29556 -1.246,43.83698 -2.1175,43.79487 -0.8715,-0.0421 -1.0083,-17.6257 -0.9326,-44.01693 0.076,-26.39124 0.3312,-61.59015 0.3582,-96.86293 0.027,-35.27279 -0.1748,-70.61945 -0.6503,-97.3062 -0.4756,-26.68675 -1.1926,-44.71359 -2.0739,-45.34674 -0.8814,-0.63314 -1.0428,16.76053 -0.9996,43.20455 0.043,26.44403 0.2562,61.93841 0.2364,97.50669 -0.02,35.56828 -0.2728,71.21046 -0.7861,97.95009 -0.5132,26.73963 -1.2526,44.5767 -2.1241,44.53476 -0.8715,-0.0419 -1.0035,-17.92656 -0.9259,-44.76422 0.078,-26.83766 0.3308,-62.62836 0.3478,-98.48248 0.017,-35.85411 -0.2022,-71.77165 -0.694,-98.86296 -0.4918,-27.09131 -1.2226,-45.35641 -2.103,-45.90566 -0.8804,-0.54925 -1.0275,17.16657 -0.9686,44.0467 0.059,26.88013 0.2882,62.92457 0.2776,99.03256 -0.011,36.10799 -0.2615,72.27954 -0.7762,99.41389 -0.5148,27.13434 -1.2583,45.23148 -2.1298,45.19067 -0.8715,-0.0408 -0.9996,-18.17822 -0.9207,-45.38826 0.079,-27.21005 0.3298,-63.49274 0.3382,-99.82413 0.01,-36.33139 -0.226,-72.71147 -0.7314,-100.11632 -0.5054,-27.40484 -1.2472,-45.83444 -2.126,-46.26485 -0.8788,-0.43042 -1.0138,17.56874 -0.942,44.80698 0.072,27.23825 0.3141,63.71557 0.3109,100.24149 -0,36.52592 -0.252,73.10044 -0.7676,100.53306 -0.5156,27.43263 -1.262,45.72336 -2.1335,45.68171 -0.8715,-0.0417 -0.9968,-18.3737 -0.9171,-45.86869 0.08,-27.49499 0.3283,-64.15293 0.3296,-100.84636 0,-36.69343 -0.2452,-73.42235 -0.7612,-101.05932 -0.516,-27.63697 -1.2662,-46.18198 -2.1435,-46.50758 -0.8773,-0.3256 -1.0029,17.89378 -0.921,45.40359 0.082,27.50982 0.3342,64.31006 0.337,101.14617 0,36.83611 -0.2443,73.70809 -0.7602,101.36138 -0.516,27.6533 -1.2643,46.08791 -2.1359,46.04927 -0.8716,-0.0386 -0.9949,-18.51186 -0.9149,-46.21419 0.08,-27.70233 0.3266,-64.63377 0.3223,-101.58887 -0,-36.9551 -0.2598,-73.93385 -0.7838,-101.73079 -0.524,-27.79694 -1.2802,-46.41208 -2.156,-46.63994 -0.8758,-0.22787 -0.9943,18.15938 -0.9051,45.86624 0.089,27.70686 0.3489,64.73334 0.3561,101.78395 0.01,37.0506 -0.2383,74.12533 -0.7542,101.92869 -0.516,27.80336 -1.2655,46.33536 -2.1371,46.30048 -0.8717,-0.0349 -0.9938,-18.6008 -0.914,-46.43991 0.08,-27.83911 0.3249,-64.9514 0.3166,-102.07898 -0.01,-37.12758 -0.2703,-74.27045 -0.7997,-102.17074 -0.5294,-27.90029 -1.2897,-46.55799 -2.1645,-46.71521 -0.8747,-0.15723 -0.9883,18.34322 -0.8941,46.18043 0.094,27.83722 0.3591,65.0112 0.3695,102.20104 0.01,37.18985 -0.2338,74.39555 -0.7495,102.2962 -0.5157,27.90066 -1.2659,46.49626 -2.1376,46.46591 -0.8717,-0.0303 -0.9933,-18.65607 -0.9137,-46.58383 0.08,-27.92777 0.3233,-65.15757 0.312,-102.39607 -0.011,-37.2385 -0.2776,-74.48569 -0.8107,-102.44825 -0.5331,-27.96256 -1.296,-46.64048 -2.1698,-46.74041 -0.8738,-0.0999 -0.9842,18.47802 -0.8866,46.3996 0.098,27.92158 0.3658,65.18679 0.3784,102.46136 0.013,37.27456 -0.2305,74.55849 -0.7459,102.5175 -0.5154,27.95902 -1.2658,46.59312 -2.1376,46.56805 -0.8717,-0.0251 -0.9932,-18.68405 -0.914,-46.66151 0.079,-27.97746 0.3219,-65.2734 0.3087,-102.57237 -0.013,-37.29897 -0.2822,-74.60098 -0.8175,-102.59058 -0.5353,-27.9896 -1.2996,-46.6668 -2.1725,-46.71615 -0.873,-0.0493 -0.9814,18.57847 -0.882,46.54677 0.099,27.96831 0.3694,65.27709 0.3833,102.58967 0.014,37.31257 -0.2284,74.62893 -0.7433,102.6124 -0.515,27.98346 -1.2654,46.63402 -2.1372,46.61499 -0.8719,-0.019 -0.9935,-18.68847 -0.9147,-46.68219 0.079,-27.99371 0.3207,-65.31171 0.3065,-102.62788 -0.014,-37.31617 -0.2845,-74.63051 -0.8206,-102.6169 -0.5361,-27.98639 -1.3006,-46.64483 -2.1729,-46.64921 -0.8722,-0.004 -0.9799,18.64966 -0.8799,46.63241 0.1,27.98276 0.3704,65.29424 0.3847,102.60473 0.014,37.31049 -0.2274,74.62 -0.742,102.59883 -0.5145,27.97883 -1.2645,46.62698 -2.1365,46.61474 -0.872,-0.0122 -0.994,-18.67355 -0.9156,-46.65583 0.078,-27.98228 0.3198,-65.28553 0.3054,-102.58168 -0.014,-37.29615 -0.2846,-74.58519 -0.8203,-102.53904 -0.5356,-27.95385 -1.2993,-46.57251 -2.1707,-46.52788 -0.8714,0.0446 -0.9794,18.70787 -0.8802,46.67736 0.099,27.96949 0.3687,65.24521 0.3826,102.51477 0.014,37.26956 -0.2277,74.53295 -0.7418,102.47779 -0.5141,27.94483 -1.2636,46.5711 -2.1357,46.56642 -0.8721,-0.005 -0.9947,-18.63562 -0.9168,-46.57289 0.078,-27.93727 0.3193,-65.18088 0.3057,-102.41091 -0.014,-37.23003 -0.2823,-74.44649 -0.8159,-102.32947 -0.5337,-27.88297 -1.2951,-46.43246 -2.1655,-46.32856 -0.8705,0.1039 -0.9801,18.75727 -0.8832,46.67911 0.097,27.92184 0.3636,65.11214 0.376,102.2899 0.012,37.17777 -0.2294,74.343 -0.7431,102.2147 -0.5136,27.8717 -1.2622,46.44986 -2.1345,46.45348 -0.8722,0.004 -0.9959,-18.5709 -0.9184,-46.42457 0.078,-27.85367 0.3192,-64.98648 0.3074,-102.0994 -0.012,-37.11291 -0.277,-74.20595 -0.807,-101.98007 -0.53,-27.77412 -1.2878,-46.22934 -2.1573,-46.06662 -0.8695,0.16272 -0.9821,18.78062 -0.8891,46.61675 0.093,27.83613 0.3551,64.89047 0.3649,101.92607 0.01,37.03559 -0.2327,74.05243 -0.7459,101.81355 -0.5132,27.76112 -1.2606,46.26651 -2.1329,46.27921 -0.8724,0.0127 -0.9974,-18.48002 -0.9204,-46.21237 0.077,-27.73236 0.3194,-64.70435 0.3105,-101.6502 -0.01,-36.94585 -0.2688,-73.86556 -0.7936,-101.49336 -0.5248,-27.62779 -1.2775,-45.96367 -2.1461,-45.74185 -0.8686,0.22182 -0.9856,18.77991 -0.8982,46.49342 0.087,27.71351 0.3433,64.58246 0.3494,101.42599 0.01,36.84353 -0.2373,73.66166 -0.75,101.27354 -0.5127,27.61188 -1.2586,46.01751 -2.131,46.03606 -0.8725,0.0186 -0.9991,-18.36858 -0.9226,-45.94209 0.077,-27.57351 0.3199,-64.33338 0.315,-101.06033 -0,-36.72694 -0.258,-73.42094 -0.776,-100.8627 -0.5179,-27.44176 -1.2642,-45.63128 -2.1319,-45.34923 -0.8677,0.28204 -0.9905,18.75361 -0.9103,46.30385 0.08,27.55024 0.3281,64.17914 0.3296,100.77586 0,36.59671 -0.2432,73.16123 -0.7553,100.58269 -0.5121,27.42146 -1.256,45.69987 -2.1285,45.72436 -0.8726,0.0245 -1.0013,-18.22951 -0.9254,-45.60277 0.076,-27.37325 0.3205,-63.86576 0.3205,-100.31828 0,-36.45252 -0.2444,-72.86506 -0.754,-100.07837 -0.5095,-27.21332 -1.248,-45.22742 -2.1148,-44.88305 -0.8668,0.34436 -0.9968,18.70283 -0.9253,46.04871 0.071,27.34588 0.3095,63.67916 0.3054,99.97313 -0,36.29397 -0.2504,72.54864 -0.7617,99.73729 -0.5114,27.18865 -1.2529,45.31128 -2.1255,45.34119 -0.8726,0.0299 -1.0038,-18.06294 -0.9287,-45.19342 0.075,-27.13047 0.3213,-63.29857 0.3272,-99.41916 0.01,-36.12059 -0.2283,-72.19367 -0.7278,-99.1341 -0.4994,-26.94043 -1.2287,-44.74822 -2.0946,-44.33823 -0.866,0.41 -1.0046,18.6278 -0.9435,45.72605 0.061,27.09825 0.2876,63.07695 0.2769,99.00875 -0.011,35.93181 -0.2587,71.81671 -0.7691,98.72737 -0.5105,26.91066 -1.2491,44.84707 -2.1218,44.88188 -0.8727,0.0348 -1.0068,-17.86698 -0.9327,-44.7092 0.074,-26.84222 0.322,-62.62488 0.3348,-98.35182 0.013,-35.72695 -0.2094,-71.39818 -0.6972,-98.01754 -0.4878,-26.61936 -1.2063,-44.18685 -2.0714,-43.70632 -0.865,0.48054 -1.0137,18.52858 -0.9648,45.33278 0.049,26.80421 0.2624,62.36459 0.244,97.8698 -0.018,35.50521 -0.2682,70.95525 -0.7774,97.53879 -0.5093,26.58354 -1.2445,44.30057 -2.1173,44.33976 -0.8728,0.0392 -1.0103,-17.63892 -0.9375,-44.14324 0.073,-26.50432 0.3226,-61.83485 0.3432,-97.10051 0.021,-35.26565 -0.1877,-70.46643 -0.6621,-96.71125 -0.4744,-26.24481 -1.1807,-43.53366 -2.0449,-42.97547 -0.8641,0.5582 -1.0245,18.40527 -0.9894,44.86457 0.035,26.4593 0.2335,61.53084 0.2066,96.53799 -0.027,35.00715 -0.2788,69.9499 -0.7866,96.15162 -0.5078,26.20173 -1.2389,43.66243 -2.1118,43.70547 -0.8728,0.043 -1.0145,-17.37213 -0.9433,-43.48025 0.071,-26.10811 0.323,-60.90915 0.3524,-95.63785 0.029,-34.72869 -0.1632,-69.38503 -0.6225,-95.20374 -0.4592,-25.8187 -1.152,-42.79976 -2.0155,-42.17789 -0.8636,0.62186 -1.0372,18.2248 -1.0176,44.28232 0.019,26.05751 0.2013,60.5696 0.1651,95.00975 -0.036,34.44014 -0.2901,68.80836 -0.7961,94.57812 -0.5059,25.76977 -1.2326,42.9411 -2.1055,42.98747 -0.8729,0.0464 -1.0192,-17.07837 -0.9497,-42.7509 0.07,-25.67252 0.3231,-59.89283 0.3618,-94.03757 0.039,-34.14474 -0.1372,-68.21392 -0.5806,-93.5842 -0.4433,-25.37028 -1.1221,-42.04165 -1.9856,-41.39078 -0.8635,0.65087 -1.0511,17.97313 -1.0476,43.59348 0,25.62035 0.1683,59.53879 0.1227,93.38202 -0.046,33.84323 -0.3015,67.61124 -0.8055,92.93074 -0.504,25.31951 -1.2259,42.1905 -2.0988,42.23968 -0.873,0.0492 -1.0241,-16.7724 -0.9566,-41.99038 0.067,-25.21797 0.3229,-58.83235 0.3711,-92.36878 0.048,-33.53642 -0.1109,-66.9949 -0.5382,-91.90108 -0.4272,-24.90618 -1.0918,-41.26005 -1.9554,-40.58728 -0.8636,0.67277 -1.0655,17.69944 -1.0783,42.86422 -0.013,25.16478 0.135,58.46768 0.08,91.69291 -0.055,33.22523 -0.3126,66.3728 -0.8145,91.22693 -0.5019,24.85412 -1.2189,41.4148 -2.0919,41.46625 -0.873,0.0515 -1.0289,-16.4575 -0.9637,-41.20697 0.065,-24.74947 0.3225,-57.73945 0.38,-90.65004 0.057,-32.91058 -0.085,-65.74178 -0.4957,-90.17368 -0.4112,-24.4319 -1.0616,-40.4645 -1.9255,-39.7779 -0.8638,0.68659 -1.0801,17.40581 -1.109,42.10175 -0.029,24.69594 0.1019,57.3686 0.038,89.96208 -0.064,32.59349 -0.3234,65.10781 -0.823,89.48705 -0.4996,24.37924 -1.2116,40.62342 -2.0847,40.67662 -0.873,0.0532 -1.034,-16.13748 -0.971,-40.41021 0.063,-24.27273 0.3217,-56.6275 0.3883,-88.90246 0.067,-32.27497 -0.059,-64.47012 -0.454,-88.42361 -0.3953,-23.9535 -1.0319,-39.66533 -1.896,-38.97365 -0.8642,0.69167 -1.0947,17.0952 -1.1396,41.31483 -0.045,24.21962 0.07,56.25534 -0,88.21141 -0.073,31.95606 -0.3337,63.83247 -0.8309,87.73347 -0.4972,23.901 -1.2042,39.82659 -2.0773,39.88102 -0.873,0.0544 -1.039,-15.81646 -0.9785,-39.61041 0.061,-23.79395 0.3207,-55.51098 0.396,-87.14884 0.075,-31.63786 -0.034,-63.19655 -0.4135,-86.67384 -0.3799,-23.4773 -1.003,-38.87319 -1.8676,-38.18544 -0.8646,0.68775 -1.109,16.7714 -1.1692,40.51347 -0.06,23.74207 0.038,55.14256 -0.044,86.46396 -0.082,31.32141 -0.3433,62.56374 -0.8381,85.98949 -0.4948,23.42576 -1.1968,39.03494 -2.0698,39.09006 -0.8731,0.0551 -1.0441,-15.49867 -0.986,-38.81818 0.058,-23.31951 0.3192,-54.40474 0.403,-85.41249 0.084,-31.00775 -0.01,-61.93801 -0.3749,-84.9476 -0.3651,-23.00958 -0.9753,-38.09849 -1.8404,-37.42352 -0.8652,0.67497 -1.1228,16.43887 -1.1978,39.70849 -0.075,23.26963 0.01,54.04499 -0.082,84.74288 -0.09,30.6979 -0.3522,61.31833 -0.8444,84.27811 -0.4923,22.95979 -1.1894,38.25891 -2.0624,38.3142 -0.8731,0.0553 -1.049,-15.1899 -0.9934,-38.04711 0.056,-22.85721 0.3176,-53.32645 0.4091,-83.71927 0.091,-30.39282 0.013,-60.70923 -0.3383,-83.26077 -0.3511,-22.55155 -0.949,-37.33824 -1.8146,-36.67162 -0.8656,0.66661 -1.136,16.11993 -1.2249,38.92837 -0.089,22.80844 -0.02,52.972 -0.1173,83.0591 -0.097,30.08709 -0.3603,60.09773 -0.85,82.60032 -0.4897,22.50259 -1.182,37.49714 -2.0551,37.55206 -0.873,0.0549 -1.0537,-14.88362 -1.0008,-37.28001 0.053,-22.39639 0.3156,-52.25063 0.4145,-82.02712 0.099,-29.77649 0.034,-59.47522 -0.3031,-81.5606 -0.3375,-22.08538 -0.9233,-36.5574 -1.7892,-35.88046 -0.8659,0.67695 -1.1486,15.82699 -1.2513,38.17413 -0.1027,22.34713 -0.048,51.89135 -0.1522,81.35664 -0.1045,29.46528 -0.368,58.85164 -0.8549,80.88303 -0.4869,22.0314 -1.1741,36.70785 -2.047,36.75332 -0.873,0.0455 -1.0586,-14.5855 -1.0085,-36.51512 0.05,-21.92963 0.3129,-51.15791 0.4188,-80.30706 0.1058,-29.14915 0.055,-58.21916 -0.2692,-79.83224 -0.3242,-21.61308 -0.8982,-35.76924 -1.7645,-35.09068 -0.8663,0.67857 -1.1611,15.51345 -1.277,37.38747 -0.116,21.87401 -0.075,50.78716 -0.1858,79.62225 -0.1112,28.83509 -0.3747,57.59212 -0.8585,79.1539 -0.4839,21.56178 -1.1661,35.92832 -2.0392,35.98241 -0.873,0.0541 -1.0638,-14.25834 -1.0167,-35.71491 0.047,-21.45658 0.3099,-50.05729 0.4224,-78.57974 0.1126,-28.52244 0.075,-56.96663 -0.2363,-78.11015 -0.3114,-21.14353 -0.8741,-34.98639 -1.7407,-34.3062 -0.8667,0.6802 -1.1732,15.20346 -1.302,36.60928 -0.1288,21.40581 -0.1005,49.69418 -0.2182,77.90461 -0.1176,28.21042 -0.381,56.3429 -0.8618,77.43692 -0.4808,21.09402 -1.1581,35.14959 -2.0312,35.20619 -0.8731,0.0566 -1.0689,-13.94235 -1.0248,-34.93002 0.044,-20.98767 0.3067,-48.96404 0.4256,-76.86226 0.1189,-27.89822 0.094,-55.71828 -0.2048,-76.39333 -0.299,-20.67505 -0.8506,-34.20508 -1.7177,-33.52324 -0.8671,0.68184 -1.1849,14.89391 -1.3262,35.83178 -0.1412,20.93788 -0.1254,48.60155 -0.2492,76.18658 -0.1237,27.58503 -0.3868,55.09142 -0.8645,75.71474 -0.4776,20.62332 -1.1499,34.36356 -2.0229,34.41629 -0.8731,0.0527 -1.0738,-13.63478 -1.033,-34.15299 0.041,-20.51821 0.3032,-47.86712 0.4279,-75.13718 0.1248,-27.27006 0.1124,-54.46128 -0.1746,-74.66411 -0.2871,-20.20282 -0.828,-33.41726 -1.6955,-32.73376 -0.8674,0.6835 -1.1963,14.58163 -1.3495,35.04702 -0.1532,20.46538 -0.1495,47.49803 -0.2789,74.45054 -0.1294,26.95252 -0.3917,53.82491 -0.8659,73.96979 -0.4743,20.14488 -1.1413,33.56225 -2.0141,33.60474 -0.8729,0.0425 -1.0788,-13.3324 -1.0414,-33.37581 0.037,-20.04341 0.2987,-46.75533 0.4288,-73.38693 0.1302,-26.63159 0.1294,-53.18285 -0.1461,-72.90492 -0.2755,-19.72206 -0.8061,-32.61494 -1.6739,-31.92977 -0.8679,0.68517 -1.2075,14.26341 -1.3722,34.24698 -0.1648,19.98358 -0.1724,46.37249 -0.3069,72.67899 -0.1345,26.30651 -0.3955,52.5306 -0.8659,72.18455 -0.4703,19.65394 -1.1317,32.73774 -2.0043,32.76365 -0.8726,0.0259 -1.0839,-13.03197 -1.0505,-32.59045 0.033,-19.55849 0.2932,-45.61756 0.4281,-71.59401 0.1349,-25.97645 0.1452,-51.87029 -0.1193,-71.0983 -0.2645,-19.22801 -0.785,-31.79019 -1.6532,-31.10334 -0.8683,0.68685 -1.2183,13.93608 -1.3941,33.42376 -0.1758,19.48768 -0.1942,45.21382 -0.3331,70.85448 -0.1389,25.64066 -0.3979,51.19584 -0.8638,70.34163 -0.4658,19.14579 -1.1212,31.88218 -1.9934,31.88524 -0.8722,0.003 -1.0892,-12.73027 -1.0604,-31.78895 0.029,-19.05867 0.2862,-44.4427 0.4251,-69.74105 0.1389,-25.29834 0.1596,-50.511 -0.094,-69.22693 -0.254,-18.71594 -0.7647,-30.93515 -1.6333,-30.2466 -0.8686,0.68854 -1.2288,13.59766 -1.4151,32.57195 -0.1864,18.9743 -0.2149,44.01379 -0.3574,68.96308 -0.1425,24.94929 -0.3986,49.80838 -0.8593,68.4219 -0.4606,18.61351 -1.1093,30.98145 -1.9809,30.94844 -0.8716,-0.033 -1.0949,-12.43398 -1.0713,-30.9737 0.024,-18.53973 0.2775,-43.21822 0.4195,-67.8063 0.1419,-24.58808 0.1721,-49.08575 -0.072,-67.26384 -0.244,-18.17809 -0.7452,-30.03659 -1.6142,-29.34634 -0.869,0.69026 -1.239,13.23904 -1.4354,31.6687 -0.1963,18.42965 -0.2341,42.74018 -0.3791,66.9539 -0.1451,24.21372 -0.3971,48.33065 -0.8514,66.37311 -0.4542,18.04246 -1.0952,30.01045 -1.966,29.92631 -0.8708,-0.0841 -1.1011,-12.13627 -1.084,-30.12389 0.017,-17.98762 0.2662,-41.91073 0.41,-65.73683 0.1439,-23.8261 0.1827,-47.55518 -0.052,-65.15475 -0.2345,-17.59956 -0.7265,-29.06961 -1.596,-28.37764 -0.8694,0.69198 -1.2489,12.85406 -1.4547,30.6994 -0.2057,17.84535 -0.2518,41.37396 -0.3981,64.79899 -0.1463,23.42503 -0.3927,46.74648 -0.8394,64.17751 -0.4466,17.43103 -1.079,28.97164 -1.9489,28.83499 -0.87,-0.13666 -1.1081,-11.81392 -1.0987,-29.20959 0.01,-17.39567 0.2521,-40.50975 0.3966,-63.52003 0.1444,-23.01028 0.1908,-45.91677 -0.035,-62.89726 -0.2257,-16.98049 -0.7089,-28.03498 -1.5787,-27.34127 -0.8698,0.69371 -1.2586,12.442 -1.4731,29.66226 -0.2145,17.22025 -0.2678,39.91247 -0.4141,62.49403 -0.1464,22.58156 -0.3856,45.05247 -0.8235,61.83009 -0.4378,16.77763 -1.0606,27.86198 -1.9297,27.67044 -0.8691,-0.19155 -1.1161,-11.46745 -1.1155,-28.23008 5e-4,-16.76263 0.2354,-39.01201 0.3792,-61.1505 0.1438,-22.1385 0.1967,-44.16612 -0.021,-60.48526 -0.2176,-16.31913 -0.6923,-26.92977 -1.5625,-26.23432 -0.8702,0.69546 -1.2679,12.0017 -1.4904,28.55423 -0.2225,16.55253 -0.2819,38.35136 -0.4271,60.03201 -0.1451,21.68065 -0.3757,43.24312 -0.8035,59.32293 -0.4278,16.07981 -1.0402,26.67696 -1.9084,26.42698 -0.8682,-0.24998 -1.1248,-11.09711 -1.1344,-27.18363 -0.01,-16.08651 0.2162,-37.4124 0.358,-58.61989 0.1419,-21.20749 0.2002,-42.29658 -0.01,-57.90949 -0.2104,-15.61292 -0.677,-25.74965 -1.5476,-25.05243 -0.8706,0.69721 -1.2767,11.53135 -1.5064,27.37079 -0.2298,15.83943 -0.2942,36.68416 -0.4369,57.40255 -0.1426,20.7184 -0.363,41.31047 -0.7796,56.64458 -0.4165,15.33412 -1.0176,25.41028 -1.8849,25.09686 -0.8672,-0.31342 -1.1344,-10.70311 -1.1552,-26.0676 -0.021,-15.3645 0.1941,-35.7038 0.3327,-55.91643 0.1386,-20.21264 0.2013,-40.29861 -0,-55.15646 -0.2039,-14.85784 -0.6628,-24.48755 -1.5339,-23.78766 -0.871,0.69989 -1.285,11.02975 -1.5212,26.10685 -0.2361,15.07711 -0.3044,34.90146 -0.4431,54.59036 -0.1387,19.68889 -0.3476,39.24233 -0.7517,53.77759 -0.4041,14.53526 -0.9929,24.05235 -1.8592,23.66855 -0.8663,-0.3838 -1.1448,-10.28481 -1.178,-24.8768 -0.033,-14.59198 0.1694,-33.87493 0.3034,-53.02258 0.134,-19.14766 0.1996,-38.16002 0,-52.21083 -0.1983,-14.05082 -0.6502,-23.14009 -1.5217,-22.44155 -0.8715,0.69853 -1.2928,10.48669 -1.5345,24.74702 -0.2416,14.26032 -0.3124,32.9928 -0.4457,51.57999 -0.1334,18.58719 -0.3291,37.02907 -0.7195,50.7082 -0.3905,13.67913 -0.9662,22.5955 -1.8315,22.13165 -0.8652,-0.46386 -1.1559,-9.84442 -1.2026,-23.61019 -0.047,-13.76578 0.142,-31.91678 0.2698,-49.92152 0.1279,-18.00473 0.1952,-35.86319 0,-49.0439 -0.1937,-13.18071 -0.6391,-21.68366 -1.511,-20.97737 -0.8719,0.70629 -1.3001,9.91573 -1.5462,23.29791 -0.2462,13.38217 -0.3181,30.93708 -0.4446,48.33432 -0.1266,17.39723 -0.3075,34.63679 -0.6829,47.38825 -0.3755,12.75147 -0.9372,21.01485 -1.8013,20.45972 -0.8641,-0.55513 -1.1678,-9.37431 -1.2294,-22.24533 -0.062,-12.87103 0.1116,-29.7939 0.2318,-46.55641 0.1202,-16.76251 0.1877,-33.36466 -0,-45.59424 -0.19,-12.22958 -0.6297,-20.08659 -1.502,-19.35884 -0.8723,0.72776 -1.3067,9.317 -1.5564,21.74986 -0.2497,12.43286 -0.3214,28.70934 -0.4396,44.81159 -0.2365,32.20449 -0.6851,63.71205 -2.4107,62.37983 -0.8629,-0.66612 -1.1805,-8.87698 -1.2583,-20.76396 -0.078,-11.88699 0.078,-27.45009 0.1891,-42.82071 0.2218,-30.74122 0.2409,-60.71245 -1.505,-58.96471 -1.7459,1.74774 -1.7815,31.72606 -1.9975,60.84395 -0.2159,29.1179 -0.6015,57.37537 -2.3231,55.68145 -1.7217,-1.69393 -1.3517,-29.96512 -1.1539,-57.26756 0.1978,-27.30243 0.235,-53.63611 -1.5132,-51.45499 -1.7481,2.18111 -1.8034,28.53139 -1.9926,53.77781 -0.1892,25.24642 -0.5004,49.389 -2.2167,47.15471 -1.7164,-2.23429 -1.4224,-26.42066 -1.2562,-49.29154 0.1662,-22.87089 0.2177,-44.4263 -1.5352,-41.39865 -1.753,3.02764 -1.8253,24.64332 -1.9778,44.67346 -0.1526,20.03013 -0.3717,38.47474 -2.0783,35.16025 -1.7066,-3.31448 -1.5067,-21.8625 -1.3872,-38.27016 0.1195,-16.40766 0.1745,-30.67495 -1.5938,-25.42799 -1.7682,5.24696 -2.2728,17.98703 -2.3609,29.41535 -0.088,11.42832 0.2451,21.54491 0.2451,21.54491"
         style="fill:none;stroke:#000000;stroke-width:3.22531104;stroke-miterlimit:4;stroke-opacity:1"
         transform="matrix(1.1329044,0,0,1.3576366,-336.07874,18.785767)"
         inkscape:path-effect="#path-effect3919"
         inkscape:original-d="m 1633.5,438.625 c -23.0328,0.30017 -45.6158,8.51301 -64.2614,21.8735 -17.3514,12.29942 -33.4262,26.26763 -50.3858,39.08322 -32.484,25.3454 -64.8,50.90569 -96.936,76.69105 -7.5942,6.11902 -15.2551,12.16031 -22.732,18.42183 -10.4359,9.0661 -19.3648,20.20012 -24.3983,33.17629 -7.7136,18.47576 -9.5298,39.63144 -3.7718,58.91047 5.0196,16.34527 16.3936,30.41353 30.7359,39.57812 17.9749,12.03618 39.7083,17.86377 61.2457,17.90814 15.4429,0.12891 30.8303,-1.40859 46.2418,-2.15384 32.7268,-2.03518 65.4522,-4.34216 98.2454,-4.96682 23.6949,-0.52723 47.3912,0.32592 71.0551,1.49001 31.9846,1.46424 63.991,3.4543 96.0239,2.67553 15.1069,-0.69198 30.0289,-4.59742 43.586,-11.28536 14.6553,-7.15532 27.7183,-17.62624 37.6728,-30.56409 9.6625,-12.31123 17.4787,-26.21918 21.8683,-41.29286 2.9245,-10.04583 4.361,-20.69623 2.9249,-31.11854 -1.0751,-9.78158 -6.2028,-18.58158 -12.362,-26.04865 -9.9791,-12.3948 -22.0237,-22.88494 -33.8572,-33.44511 -23.9369,-20.87313 -49.1836,-40.16385 -73.9967,-59.96746 -23.421,-18.41711 -46.8603,-36.83846 -71.1399,-54.11945 -7.5505,-5.29509 -16.0076,-9.2887 -24.945,-11.59116 -10.0544,-2.52516 -20.4657,-3.42283 -30.8137,-3.25482 z" />
    </g>
  </g>
</svg>
