<?xml version="1.0" encoding="UTF-8" standalone="no"?>
<svg
   xmlns:dc="http://purl.org/dc/elements/1.1/"
   xmlns:cc="http://creativecommons.org/ns#"
   xmlns:rdf="http://www.w3.org/1999/02/22-rdf-syntax-ns#"
   xmlns:svg="http://www.w3.org/2000/svg"
   xmlns="http://www.w3.org/2000/svg"
   version="1.1"
   id="svg10426"
   viewBox="0 0 299.99999 155.48654"
   height="43.881756mm"
   width="84.666664mm">
  <defs
     id="defs10428" />
  <metadata
     id="metadata10431">
    <rdf:RDF>
      <cc:Work
         rdf:about="">
        <dc:format>image/svg+xml</dc:format>
        <dc:type
           rdf:resource="http://purl.org/dc/dcmitype/StillImage" />
        <dc:title></dc:title>
      </cc:Work>
    </rdf:RDF>
  </metadata>
  <g
     transform="translate(832.85714,-254.61894)"
     id="layer1">
    <g
       transform="matrix(1.7919568,0,0,1.7919568,-117.02122,447.34418)"
       id="g10331">
      <g
         id="g4866"
         transform="matrix(1.25,0,0,-1.25,-321.11489,-69.763155)"
         style="fill:#000000">
        <path
           d="M 0,0 C -0.04,0.137 -0.163,0.242 -0.312,0.254 L -15.306,0.252 c -0.149,-0.012 -0.272,-0.113 -0.312,-0.251 0,0 -8.289,-27.358 -8.289,-27.408 0,-0.137 0.111,-0.247 0.248,-0.247 l 9.909,0.001 c 0.081,0.028 0.138,0.103 0.158,0.186 l 1.153,3.691 c 0.038,0.09 0.124,0.152 0.226,0.158 l 9.141,0.006 c 0.102,-0.006 0.188,-0.077 0.226,-0.166 l 1.18,-3.689 c 0.019,-0.083 0.077,-0.162 0.157,-0.189 0,0 9.742,0.002 9.751,0.002 0.137,0 0.248,0.104 0.248,0.24 C 8.49,-27.367 0,0 0,0 m -5.505,-16.026 -4.083,0 c -0.142,0.001 -0.247,0.163 -0.247,0.316 0,0.059 2.173,7.06 2.173,7.06 0.077,0.264 0.085,0.271 0.115,0.271 l 10e-4,0 c 0.033,0 0.039,-0.007 0.115,-0.271 0,0 2.174,-7.001 2.174,-7.06 0,-0.153 -0.111,-0.315 -0.248,-0.316"
           style="fill:#000000;fill-opacity:1;fill-rule:nonzero;stroke:none"
           id="path4868" />
      </g>
      <g
         id="g4870"
         transform="matrix(1.25,0,0,-1.25,-249.30201,-58.771655)"
         style="fill:#000000">
        <path
           d="m 0,0 13.796,0 0,9.048 -17.741,0 c -1.661,0 -3.992,-0.854 -5.331,-1.846 -1.34,-0.993 -3.279,-3.255 -3.279,-6.371 0,-3.116 1.894,-5.54 1.894,-5.54 0.969,-1.2 3.413,-3.707 3.413,-3.707 0.054,-0.059 0.089,-0.137 0.089,-0.224 0,-0.188 -0.152,-0.339 -0.34,-0.339 L -21.164,-8.98 c -1.663,0.008 -1.778,0.67 -1.778,0.762 0,0.17 0.208,0.277 0.208,0.277 0.623,0.3 1.893,1.293 1.893,1.293 2.701,2.1 3.024,4.986 3.024,6.532 0,1.547 -0.231,4.288 -3.001,6.689 -2.769,2.401 -6.279,2.47 -6.279,2.47 l -19.497,0 c 0,0 -0.002,-27.739 10e-4,-27.744 -0.002,-0.088 0.079,-0.159 0.169,-0.159 l 10.855,0 0,7.78 c 0,0.138 0.208,0 0.208,0 l 5.655,-5.68 c 2.009,-2.03 5.332,-2.1 5.332,-2.1 l 21.377,0.004 c 3.647,0 5.677,1.985 6.232,2.538 0.554,0.554 2.401,2.632 2.401,6.072 0,3.439 -1.57,5.199 -2.24,6.007 -0.599,0.722 -2.983,3.245 -3.479,3.766 -0.058,0.049 -0.096,0.122 -0.096,0.205 0,0.122 0.069,0.234 0.179,0.268 m -29.197,-2.378 -6.089,-0.002 c 0,0 -0.162,0.046 -0.162,0.231 l -0.005,3.073 c 0,0.184 0.161,0.23 0.161,0.23 l 5.586,0 c 0.647,0 1.962,-0.323 1.962,-1.824 0,-1.5 -1.453,-1.708 -1.453,-1.708"
           style="fill:#000000;fill-opacity:1;fill-rule:nonzero;stroke:none"
           id="path4872" />
      </g>
      <g
         id="g4874"
         transform="matrix(1.25,0,0,-1.25,-357.18902,-35.19678)"
         style="fill:#000000">
        <path
           d="m 0,0 c 0.073,0 0.124,0.053 0.147,0.132 0,0 8.4,27.584 8.4,27.611 0,0.076 -0.046,0.157 -0.117,0.162 0,0 -10.346,0.002 -10.35,0.002 -0.054,0 -0.086,-0.044 -0.098,-0.098 -0.001,-0.004 -2.14,-7.173 -2.141,-7.176 -0.014,-0.06 -0.044,-0.098 -0.097,-0.098 -0.05,0 -0.096,0.051 -0.103,0.098 l -2.242,7.181 c -0.008,0.046 -0.046,0.093 -0.098,0.093 -0.003,0 -11.431,0 -11.431,0 -0.035,-0.007 -0.062,-0.033 -0.073,-0.065 0,0 -2.012,-7.207 -2.012,-7.208 -0.012,-0.06 -0.044,-0.097 -0.098,-0.097 -0.05,0 -0.09,0.036 -0.097,0.083 l -2.13,7.2 c -0.006,0.045 -0.041,0.083 -0.084,0.088 0,0 -11.036,-0.001 -11.037,-0.001 -0.091,0 -0.164,-0.073 -0.164,-0.163 0,-0.015 0.005,-0.047 0.005,-0.047 0,0 8.519,-27.553 8.523,-27.565 C -25.274,0.053 -25.223,0 -25.151,0 c 0.013,0 9.166,-0.001 9.166,-0.001 0.055,0.004 0.11,0.069 0.128,0.133 0,0.001 3.187,10.258 3.187,10.258 0.021,0.063 0.044,0.098 0.098,0.098 0.054,0 0.086,-0.043 0.098,-0.095 L -9.362,0.09 C -9.345,0.037 -9.296,0 -9.237,0 -9.231,0 0,0 0,0"
           style="fill:#000000;fill-opacity:1;fill-rule:nonzero;stroke:none"
           id="path4876" />
      </g>
      <g
         id="g4878"
         transform="matrix(1.25,0,0,-1.25,-367.15414,-107.54841)"
         style="fill:#000000">
        <path
           d="m 0,0 c -1.662,0 -3.993,-0.854 -5.332,-1.847 -1.34,-0.993 -3.278,-3.254 -3.278,-6.371 0,-3.116 1.893,-5.54 1.893,-5.54 0.969,-1.2 3.413,-3.723 3.413,-3.723 0.054,-0.061 0.089,-0.138 0.089,-0.224 0,-0.188 -0.152,-0.34 -0.34,-0.34 -0.029,0 -22.299,-10e-4 -22.299,-10e-4 l 0,-9.862 26.8,0 c 3.647,0 5.679,1.985 6.233,2.539 0.554,0.554 2.401,2.632 2.401,6.071 0,3.439 -1.57,5.217 -2.239,6.025 -0.599,0.723 -2.984,3.231 -3.48,3.751 -0.058,0.049 -0.096,0.123 -0.096,0.205 0,0.121 0.069,0.234 0.179,0.268 l 12.907,0 0,-18.859 9.926,0 0,18.813 12.05,0 0,9.095 L 0,0 Z"
           style="fill:#000000;fill-opacity:1;fill-rule:nonzero;stroke:none"
           id="path4880" />
      </g>
      <g
         id="g4882"
         transform="matrix(1.25,0,0,-1.25,-248.90814,-85.01278)"
         style="fill:#000000">
        <path
           d="m 0,0 c -1.662,0.008 -1.777,0.669 -1.777,0.761 0,0.171 0.207,0.277 0.207,0.277 0.623,0.301 1.893,1.293 1.893,1.293 2.701,2.101 3.024,4.987 3.024,6.533 0,1.547 -0.231,4.288 -3.001,6.689 -2.77,2.4 -6.278,2.475 -6.278,2.475 l -19.498,0 c 0,0 -0.001,-27.744 0.002,-27.749 -0.003,-0.089 0.078,-0.159 0.168,-0.159 0.017,0 10.855,0 10.855,0 l 0,7.779 c 0,0.139 0.208,0 0.208,0 l 5.656,-5.678 c 2.008,-2.032 5.332,-2.101 5.332,-2.101 l 16.69,0 0,9.88 L 0,0 Z M -8.034,6.602 -14.121,6.6 c 0,0 -0.162,0.046 -0.162,0.231 l -0.006,3.072 c 0,0.185 0.162,0.231 0.162,0.231 l 5.586,0 c 0.647,0 1.962,-0.324 1.962,-1.824 0,-1.5 -1.455,-1.708 -1.455,-1.708"
           style="fill:#000000;fill-opacity:1;fill-rule:nonzero;stroke:none"
           id="path4884" />
      </g>
      <g
         id="g4886"
         transform="matrix(1.25,0,0,-1.25,-293.61601,-107.24266)"
         style="fill:#000000">
        <path
           d="M 0,0 C -0.041,0.138 -0.164,0.24 -0.312,0.246 L -15.306,0.245 c -0.149,-0.007 -0.272,-0.105 -0.312,-0.243 0,0 -8.281,-27.368 -8.281,-27.418 0,-0.137 0.111,-0.247 0.248,-0.247 l 9.91,-0.001 c 0.08,0.027 0.138,0.105 0.158,0.189 l 1.152,3.691 c 0.038,0.089 0.125,0.152 0.226,0.158 l 9.141,-0.002 c 0.102,-0.006 0.188,-0.069 0.226,-0.158 l 1.18,-3.69 c 0.019,-0.083 0.078,-0.162 0.158,-0.189 0,0 9.742,0.002 9.751,0.002 0.136,0 0.247,0.104 0.247,0.242 C 8.498,-27.376 0,0 0,0 m -5.496,-16.034 -4.084,0 c -0.15,10e-4 -0.247,0.163 -0.247,0.315 0,0.059 2.174,7.061 2.174,7.061 0.076,0.264 0.1,0.271 0.114,0.271 l 0.002,0 c 0.015,0 0.038,-0.007 0.115,-0.271 0,0 2.173,-7.002 2.173,-7.061 0,-0.152 -0.1,-0.314 -0.247,-0.315"
           style="fill:#000000;fill-opacity:1;fill-rule:nonzero;stroke:none"
           id="path4888" />
      </g>
      <g
         id="g4890"
         transform="matrix(1.25,0,0,-1.25,-394.26214,-20.93703)"
         style="fill:#000000">
        <path
           d="m 0,0 c 0.148,0.086 0.195,0.281 0.195,0.577 l 0,3.777 -0.655,0 c -0.195,0 -0.281,-0.086 -0.39,-0.203 l 0,1.404 3.378,0 0,-1.404 C 2.419,4.268 2.333,4.354 2.138,4.354 l -0.656,0 0,-3.777 C 1.482,0.281 1.529,0.086 1.677,0 L 0,0 Z"
           style="fill:#000000;fill-opacity:1;fill-rule:nonzero;stroke:none"
           id="path4892" />
      </g>
      <g
         id="g4894"
         transform="matrix(1.25,0,0,-1.25,-381.55651,-21.658655)"
         style="fill:#000000">
        <path
           d="m 0,0 c 0,-0.296 0.047,-0.491 0.195,-0.577 l -1.677,0 c 0.148,0.086 0.195,0.281 0.195,0.577 l 0,1.654 -1.217,0 0,-1.654 c 0,-0.296 0.046,-0.491 0.195,-0.577 l -1.678,0 c 0.148,0.086 0.195,0.281 0.195,0.577 l 0,4.4 c 0,0.297 -0.047,0.492 -0.195,0.578 l 1.678,0 C -2.458,4.892 -2.504,4.697 -2.504,4.4 l 0,-1.544 1.217,0 0,1.544 c 0,0.297 -0.047,0.492 -0.195,0.578 l 1.677,0 C 0.047,4.892 0,4.697 0,4.4 L 0,0 Z"
           style="fill:#000000;fill-opacity:1;fill-rule:nonzero;stroke:none"
           id="path4896" />
      </g>
      <g
         id="g4898"
         transform="matrix(1.25,0,0,-1.25,-376.19452,-27.159155)"
         style="fill:#000000">
        <path
           d="m 0,0 c 0,0.273 -0.039,0.46 -0.219,0.562 l 0,0.015 3.395,0 0,-1.474 C 3.019,-0.718 2.832,-0.624 2.59,-0.624 l -1.303,0 0,-0.975 0.874,0 c 0.219,0 0.32,0.132 0.437,0.273 l 0,-1.748 c -0.117,0.14 -0.218,0.273 -0.437,0.273 l -0.874,0 0,-0.975 1.327,0 c 0.242,0 0.429,0.094 0.585,0.273 l 0,-1.475 -3.394,0 C -0.047,-4.892 0,-4.697 0,-4.4 L 0,0 Z"
           style="fill:#000000;fill-opacity:1;fill-rule:nonzero;stroke:none"
           id="path4900" />
      </g>
      <g
         id="g4902"
         transform="matrix(1.25,0,0,-1.25,-356.36089,-26.03778)"
         style="fill:#000000">
        <path
           d="m 0,0 c -0.117,0.14 -0.219,0.273 -0.437,0.273 l -1.202,0 0,-0.975 0.874,0 c 0.219,0 0.32,0.132 0.437,0.273 l 0,-1.748 c -0.117,0.141 -0.218,0.273 -0.437,0.273 l -0.874,0 0,-1.599 c 0,-0.297 0.047,-0.492 0.196,-0.578 l -1.678,0 c 0.148,0.086 0.195,0.281 0.195,0.578 l 0,4.775 c 0,0.07 -0.023,0.148 -0.054,0.202 L 0,1.474 0,0 Z"
           style="fill:#000000;fill-opacity:1;fill-rule:nonzero;stroke:none"
           id="path4904" />
      </g>
      <g
         id="g4906"
         transform="matrix(1.25,0,0,-1.25,-344.28901,-24.40903)"
         style="fill:#000000">
        <path
           d="m 0,0 c 0,-1.67 -1.404,-2.902 -2.996,-2.902 -1.592,0 -2.996,1.232 -2.996,2.902 0,1.67 1.404,2.902 2.996,2.902 C -1.404,2.902 0,1.67 0,0 m -4.65,0 c 0,-0.819 0.616,-1.615 1.654,-1.615 1.038,0 1.654,0.796 1.654,1.615 0,0.819 -0.616,1.615 -1.654,1.615 C -4.034,1.615 -4.65,0.819 -4.65,0"
           style="fill:#000000;fill-opacity:1;fill-rule:nonzero;stroke:none"
           id="path4908" />
      </g>
      <g
         id="g4910"
         transform="matrix(1.25,0,0,-1.25,-339.23964,-28.03678)"
         style="fill:#000000">
        <path
           d="m 0,0 c 0.117,-0.101 0.242,-0.148 0.382,-0.148 0.25,0 0.741,0.148 1.124,0.148 1.24,0 1.919,-0.811 1.919,-1.81 0,-0.546 -0.14,-1.077 -0.655,-1.147 l 0,-0.016 C 3.667,-3.16 4.104,-4.283 4.268,-5.149 4.33,-5.493 4.432,-5.571 4.541,-5.68 l -1.787,0 c 0.086,0.117 0.101,0.281 0.101,0.422 0,0.967 -0.709,1.544 -1.568,1.786 l 0,-1.631 c 0,-0.296 0.047,-0.491 0.195,-0.577 l -1.677,0 C -0.047,-5.594 0,-5.399 0,-5.103 L 0,0 Z m 1.287,-2.395 c 0.063,-0.008 0.125,-0.008 0.195,-0.008 0.344,0 0.601,0.265 0.601,0.601 0,0.335 -0.257,0.601 -0.601,0.601 -0.07,0 -0.132,0 -0.195,-0.008 l 0,-1.186 z"
           style="fill:#000000;fill-opacity:1;fill-rule:nonzero;stroke:none"
           id="path4912" />
      </g>
      <g
         id="g4914"
         transform="matrix(1.25,0,0,-1.25,-324.06689,-20.78103)"
         style="fill:#000000">
        <path
           d="M 0,0 C -0.039,0.023 -0.148,0.101 -0.234,0.101 -0.382,0.101 -0.85,0 -1.279,0 c -1.74,0 -2.965,1.241 -2.965,2.902 0,1.662 1.225,2.903 2.965,2.903 0.405,0 0.772,-0.156 0.944,-0.156 0.148,0 0.249,0.07 0.335,0.156 l 0,-1.81 c -0.351,0.312 -0.718,0.522 -1.279,0.522 -0.921,0 -1.623,-0.593 -1.623,-1.615 0,-0.92 0.71,-1.615 1.623,-1.615 0.538,0 0.904,0.172 1.279,0.468 L 0,0 Z"
           style="fill:#000000;fill-opacity:1;fill-rule:nonzero;stroke:none"
           id="path4916" />
      </g>
      <g
         id="g4918"
         transform="matrix(1.25,0,0,-1.25,-318.60739,-27.159155)"
         style="fill:#000000">
        <path
           d="m 0,0 c 0,0.273 -0.039,0.46 -0.218,0.562 l 0,0.015 3.393,0 0,-1.474 C 3.019,-0.718 2.832,-0.624 2.59,-0.624 l -1.303,0 0,-0.975 0.874,0 c 0.219,0 0.32,0.132 0.437,0.273 l 0,-1.748 c -0.117,0.14 -0.218,0.273 -0.437,0.273 l -0.874,0 0,-0.975 1.327,0 c 0.242,0 0.429,0.094 0.585,0.273 l 0,-1.475 -3.394,0 C -0.047,-4.892 0,-4.697 0,-4.4 L 0,0 Z"
           style="fill:#000000;fill-opacity:1;fill-rule:nonzero;stroke:none"
           id="path4920" />
      </g>
      <g
         id="g4922"
         transform="matrix(1.25,0,0,-1.25,-301.52377,-22.03903)"
         style="fill:#000000">
        <path
           d="m 0,0 -0.133,-0.343 c -0.039,-0.102 -0.054,-0.164 -0.054,-0.258 0,-0.125 0.047,-0.195 0.125,-0.281 l -1.787,0 c 0.078,0.055 0.148,0.156 0.179,0.242 l 1.834,4.588 c 0.086,0.218 0.14,0.366 0.14,0.445 0,0.124 -0.047,0.195 -0.125,0.28 l 1.335,0 1.989,-5.157 c 0.062,-0.164 0.164,-0.304 0.25,-0.398 l -1.771,0 c 0.078,0.086 0.124,0.156 0.124,0.281 0,0.094 -0.015,0.156 -0.054,0.258 L 1.919,0 0,0 Z m 1.552,1.124 -0.569,1.841 -0.016,0 -0.569,-1.841 1.154,0 z"
           style="fill:#000000;fill-opacity:1;fill-rule:nonzero;stroke:none"
           id="path4924" />
      </g>
      <g
         id="g4926"
         transform="matrix(1.25,0,0,-1.25,-286.51664,-21.424655)"
         style="fill:#000000">
        <path
           d="m 0,0 c -0.024,-0.07 -0.07,-0.172 -0.07,-0.219 0,-0.062 0.039,-0.124 0.07,-0.171 l -1.194,0 -0.71,2.099 -0.015,0 -0.5,-1.678 c -0.039,-0.133 -0.062,-0.179 -0.062,-0.25 0,-0.062 0.039,-0.124 0.07,-0.171 l -1.17,0 -1.865,5.032 c -0.078,0.203 -0.219,0.429 -0.297,0.523 l 1.756,0 c -0.078,-0.07 -0.148,-0.14 -0.148,-0.25 0,-0.093 0.031,-0.179 0.07,-0.296 l 0.999,-2.981 0.015,0 0.492,1.654 -0.562,1.413 c -0.062,0.156 -0.14,0.343 -0.234,0.46 l 1.724,0 c -0.078,-0.07 -0.148,-0.14 -0.148,-0.25 0,-0.062 0.047,-0.179 0.086,-0.296 l 0.952,-3.012 0.023,0 1.038,3.012 c 0.039,0.117 0.086,0.234 0.086,0.296 0,0.11 -0.055,0.18 -0.133,0.25 l 1.748,0 C 1.903,5.048 1.802,4.907 1.748,4.751 L 0,0 Z"
           style="fill:#000000;fill-opacity:1;fill-rule:nonzero;stroke:none"
           id="path4928" />
      </g>
      <g
         id="g4930"
         transform="matrix(1.25,0,0,-1.25,-278.56101,-22.03903)"
         style="fill:#000000">
        <path
           d="m 0,0 -0.133,-0.343 c -0.039,-0.102 -0.054,-0.164 -0.054,-0.258 0,-0.125 0.047,-0.195 0.125,-0.281 l -1.787,0 c 0.078,0.055 0.148,0.156 0.179,0.242 l 1.834,4.588 c 0.086,0.218 0.14,0.366 0.14,0.445 0,0.124 -0.047,0.195 -0.125,0.28 l 1.335,0 1.989,-5.157 c 0.062,-0.164 0.164,-0.304 0.25,-0.398 l -1.771,0 c 0.078,0.086 0.124,0.156 0.124,0.281 0,0.094 -0.015,0.156 -0.054,0.258 L 1.919,0 0,0 Z m 1.552,1.124 -0.569,1.841 -0.016,0 -0.569,-1.841 1.154,0 z"
           style="fill:#000000;fill-opacity:1;fill-rule:nonzero;stroke:none"
           id="path4932" />
      </g>
      <g
         id="g4934"
         transform="matrix(1.25,0,0,-1.25,-267.77701,-21.658655)"
         style="fill:#000000">
        <path
           d="m 0,0 c 0,-0.296 0.047,-0.491 0.195,-0.577 l -1.677,0 c 0.148,0.086 0.195,0.281 0.195,0.577 l 0,4.4 c 0,0.297 -0.047,0.492 -0.195,0.578 l 1.677,0 C 0.047,4.892 0,4.697 0,4.4 l 0,-1.412 0.016,0 0.554,0.866 c 0.234,0.359 0.515,0.773 0.515,0.866 0,0.141 -0.063,0.187 -0.117,0.258 l 2.036,0 C 2.91,4.907 2.809,4.806 2.731,4.705 L 0.85,2.427 C 1.795,2.286 2.302,1.615 2.583,0.671 2.778,0.024 2.918,-0.421 3.168,-0.577 l -1.647,0 c 0,0.109 0.024,0.218 0.024,0.327 0,1.007 -0.71,1.553 -1.545,1.904 L 0,0 Z"
           style="fill:#000000;fill-opacity:1;fill-rule:nonzero;stroke:none"
           id="path4936" />
      </g>
      <g
         id="g4938"
         transform="matrix(1.25,0,0,-1.25,-259.26501,-27.159155)"
         style="fill:#000000">
        <path
           d="m 0,0 c 0,0.273 -0.039,0.46 -0.219,0.562 l 0,0.015 3.395,0 0,-1.474 C 3.019,-0.718 2.832,-0.624 2.59,-0.624 l -1.303,0 0,-0.975 0.874,0 c 0.219,0 0.32,0.132 0.437,0.273 l 0,-1.748 c -0.117,0.14 -0.218,0.273 -0.437,0.273 l -0.874,0 0,-0.975 1.327,0 c 0.242,0 0.429,0.094 0.585,0.273 l 0,-1.475 -3.394,0 C -0.047,-4.892 0,-4.697 0,-4.4 L 0,0 Z"
           style="fill:#000000;fill-opacity:1;fill-rule:nonzero;stroke:none"
           id="path4940" />
      </g>
      <g
         id="g4942"
         transform="matrix(1.25,0,0,-1.25,-250.14826,-27.159155)"
         style="fill:#000000">
        <path
           d="m 0,0 c 0,0.297 -0.047,0.491 -0.195,0.577 l 1.475,0 c 0.616,-1.092 1.217,-2.184 1.591,-3.105 l 0.016,0 0,2.528 c 0,0.297 -0.047,0.491 -0.195,0.577 l 1.677,0 C 4.221,0.491 4.174,0.297 4.174,0 l 0,-4.4 c 0,-0.297 0.047,-0.492 0.195,-0.578 l -1.475,0 c -0.569,1.163 -1.287,2.247 -1.591,3.012 l -0.016,0 0,-2.434 c 0,-0.297 0.047,-0.492 0.195,-0.578 l -1.677,0 C -0.047,-4.892 0,-4.697 0,-4.4 L 0,0 Z"
           style="fill:#000000;fill-opacity:1;fill-rule:nonzero;stroke:none"
           id="path4944" />
      </g>
      <g
         id="g4946"
         transform="matrix(1.25,0,0,-1.25,-236.71139,-26.03778)"
         style="fill:#000000">
        <path
           d="m 0,0 c -0.203,0.164 -0.452,0.398 -0.827,0.398 -0.312,0 -0.374,-0.148 -0.374,-0.289 0,-0.624 1.81,-0.835 1.81,-2.512 0,-1.108 -0.757,-1.802 -1.951,-1.802 -0.312,0 -0.577,0.093 -0.819,0.093 -0.125,0 -0.281,-0.055 -0.351,-0.093 l 0,1.856 c 0.289,-0.366 0.601,-0.655 1.069,-0.655 0.421,0 0.71,0.258 0.71,0.648 0,0.897 -1.81,1.053 -1.81,2.395 0,0.866 0.561,1.56 1.474,1.56 0.336,0 0.531,-0.093 0.765,-0.093 0.125,0 0.203,0.008 0.288,0.093 L 0,1.599 0,0 Z"
           style="fill:#000000;fill-opacity:1;fill-rule:nonzero;stroke:none"
           id="path4948" />
      </g>
    </g>
  </g>
</svg>
