solid EJJBOT ALL PARTS
facet normal -0.8871732583462884 -0.46143646331345545 0.0
  outer loop
    vertex 338.05615568057453 235.92283534340336 10.150000000000041
    vertex 338.40192233803174 235.42865937083494 6.150000000000041
    vertex 338.40192233803174 235.42865937083494 10.150000000000041
  endloop
endfacet
facet normal -0.7375150178194525 -0.6753307326716094 0.0
  outer loop
    vertex 338.40192233803174 235.42865937083494 6.150000000000041
    vertex 338.05615568057453 235.92283534340336 10.150000000000041
    vertex 338.05615568057453 235.92283534340336 6.150000000000041
  endloop
endfacet
facet normal 0.21609606154025257 -0.9763721074399818 0.0
  outer loop
    vertex 340.6051215355074 234.7331409046045 10.150000000000041
    vertex 340.00426926059464 234.68078618174914 6.150000000000041
    vertex 340.6051215355074 234.7331409046045 6.150000000000041
  endloop
endfacet
facet normal -0.04397092971125361 -0.9990328109428278 0.0
  outer loop
    vertex 340.00426926059464 234.68078618174914 6.150000000000041
    vertex 340.6051215355074 234.7331409046045 10.150000000000041
    vertex 340.00426926059464 234.68078618174914 10.150000000000041
  endloop
endfacet
facet normal 0.0 0.0 -1.0
  outer loop
    vertex 337.9026593998507 237.68444507856157 6.150000000000041
    vertex 337.85007288959974 236.48966367415008 6.150000000000041
    vertex 337.7977181667443 237.0905159490628 6.150000000000041
  endloop
endfacet
facet normal 0.0 0.0 -1.0
  outer loop
    vertex 337.85007288959974 236.48966367415008 6.150000000000041
    vertex 337.9026593998507 237.68444507856157 6.150000000000041
    vertex 338.05615568057453 235.92283534340336 6.150000000000041
  endloop
endfacet
facet normal 0.0 0.0 -1.0
  outer loop
    vertex 338.05615568057453 235.92283534340336 6.150000000000041
    vertex 337.9026593998507 237.68444507856157 6.150000000000041
    vertex 338.15774501730624 238.2309757739854 6.150000000000041
  endloop
endfacet
facet normal 0.0 0.0 -1.0
  outer loop
    vertex 338.05615568057453 235.92283534340336 6.150000000000041
    vertex 338.15774501730624 238.2309757739854 6.150000000000041
    vertex 338.40192233803174 235.42865937083494 6.150000000000041
  endloop
endfacet
facet normal 0.0 0.0 -1.0
  outer loop
    vertex 338.40192233803174 235.42865937083494 6.150000000000041
    vertex 338.15774501730624 238.2309757739854 6.150000000000041
    vertex 338.4258585973263 236.98892661233114 6.150000000000041
  endloop
endfacet
facet normal 0.0 0.0 -1.0
  outer loop
    vertex 338.4258585973263 236.98892661233114 6.150000000000041
    vertex 338.15774501730624 238.2309757739854 6.150000000000041
    vertex 338.5455913558302 238.69286287162572 6.150000000000041
  endloop
endfacet
facet normal 0.0 0.0 -1.0
  outer loop
    vertex 338.4258585973263 236.98892661233114 6.150000000000041
    vertex 338.5455913558302 238.69286287162572 6.150000000000041
    vertex 338.48310320916073 237.42374260810337 6.150000000000041
  endloop
endfacet
facet normal 0.0 0.0 -1.0
  outer loop
    vertex 338.48310320916073 237.42374260810337 6.150000000000041
    vertex 338.5455913558302 238.69286287162572 6.150000000000041
    vertex 338.65093591896846 237.82892661233117 6.150000000000041
  endloop
endfacet
facet normal 0.0 0.0 -1.0
  outer loop
    vertex 338.65093591896846 237.82892661233117 6.150000000000041
    vertex 338.5455913558302 238.69286287162572 6.150000000000041
    vertex 339.0397673283985 239.03862952908298 6.150000000000041
  endloop
endfacet
facet normal 0.0 0.0 -1.0
  outer loop
    vertex 338.65093591896846 237.82892661233117 6.150000000000041
    vertex 339.0397673283985 239.03862952908298 6.150000000000041
    vertex 338.917919204933 238.1768660047246 6.150000000000041
  endloop
endfacet
facet normal 0.0 0.0 -1.0
  outer loop
    vertex 338.917919204933 238.1768660047246 6.150000000000041
    vertex 339.0397673283985 239.03862952908298 6.150000000000041
    vertex 339.2658585973263 238.443849290689 6.150000000000041
  endloop
endfacet
facet normal 0.0 0.0 -1.0
  outer loop
    vertex 339.2658585973263 238.443849290689 6.150000000000041
    vertex 339.0397673283985 239.03862952908298 6.150000000000041
    vertex 339.6065956591453 239.24471232005774 6.150000000000041
  endloop
endfacet
facet normal 0.0 0.0 -1.0
  outer loop
    vertex 339.2658585973263 238.443849290689 6.150000000000041
    vertex 339.6065956591453 239.24471232005774 6.150000000000041
    vertex 339.6710426015541 238.61168200049678 6.150000000000041
  endloop
endfacet
facet normal 0.0 0.0 -1.0
  outer loop
    vertex 339.6710426015541 238.61168200049678 6.150000000000041
    vertex 339.6065956591453 239.24471232005774 6.150000000000041
    vertex 340.20744793405794 239.29706704291317 6.150000000000041
  endloop
endfacet
facet normal 0.0 0.0 -1.0
  outer loop
    vertex 339.6710426015541 238.61168200049678 6.150000000000041
    vertex 340.20744793405794 239.29706704291317 6.150000000000041
    vertex 340.1058585973264 238.66892661233115 6.150000000000041
  endloop
endfacet
facet normal 0.0 0.0 -1.0
  outer loop
    vertex 340.1058585973264 238.66892661233115 6.150000000000041
    vertex 340.20744793405794 239.29706704291317 6.150000000000041
    vertex 340.54067459309863 238.61168200049678 6.150000000000041
  endloop
endfacet
facet normal 0.0 0.0 -1.0
  outer loop
    vertex 340.54067459309863 238.61168200049678 6.150000000000041
    vertex 340.20744793405794 239.29706704291317 6.150000000000041
    vertex 340.80137706355686 239.19212580980678 6.150000000000041
  endloop
endfacet
facet normal 0.0 0.0 -1.0
  outer loop
    vertex 340.54067459309863 238.61168200049678 6.150000000000041
    vertex 340.80137706355686 239.19212580980678 6.150000000000041
    vertex 340.9458585973264 238.443849290689 6.150000000000041
  endloop
endfacet
facet normal 0.0 0.0 -1.0
  outer loop
    vertex 340.9458585973264 238.443849290689 6.150000000000041
    vertex 340.80137706355686 239.19212580980678 6.150000000000041
    vertex 341.3479077589806 238.93704019235128 6.150000000000041
  endloop
endfacet
facet normal 0.0 0.0 -1.0
  outer loop
    vertex 340.9458585973264 238.443849290689 6.150000000000041
    vertex 341.3479077589806 238.93704019235128 6.150000000000041
    vertex 341.29379798971974 238.1768660047246 6.150000000000041
  endloop
endfacet
facet normal 0.0 0.0 -1.0
  outer loop
    vertex 341.29379798971974 238.1768660047246 6.150000000000041
    vertex 341.3479077589806 238.93704019235128 6.150000000000041
    vertex 341.5607812756841 237.82892661233117 6.150000000000041
  endloop
endfacet
facet normal 0.0 0.0 -1.0
  outer loop
    vertex 341.5607812756841 237.82892661233117 6.150000000000041
    vertex 341.3479077589806 238.93704019235128 6.150000000000041
    vertex 341.80979485662084 238.54919385382732 6.150000000000041
  endloop
endfacet
facet normal 0.0 0.0 -1.0
  outer loop
    vertex 341.5607812756841 237.82892661233117 6.150000000000041
    vertex 341.80979485662084 238.54919385382732 6.150000000000041
    vertex 341.728613985492 237.42374260810337 6.150000000000041
  endloop
endfacet
facet normal 0.0 0.0 -1.0
  outer loop
    vertex 341.728613985492 237.42374260810337 6.150000000000041
    vertex 341.80979485662084 238.54919385382732 6.150000000000041
    vertex 341.7858585973263 236.98892661233114 6.150000000000041
  endloop
endfacet
facet normal 0.0 0.0 -1.0
  outer loop
    vertex 338.40192233803174 235.42865937083494 6.150000000000041
    vertex 338.48310320916073 236.5541106165589 6.150000000000041
    vertex 338.8638094356721 235.04081303231098 6.150000000000041
  endloop
endfacet
facet normal 0.0 0.0 -1.0
  outer loop
    vertex 338.48310320916073 236.5541106165589 6.150000000000041
    vertex 338.40192233803174 235.42865937083494 6.150000000000041
    vertex 338.4258585973263 236.98892661233114 6.150000000000041
  endloop
endfacet
facet normal 0.0 0.0 -1.0
  outer loop
    vertex 338.8638094356721 235.04081303231098 6.150000000000041
    vertex 338.48310320916073 236.5541106165589 6.150000000000041
    vertex 338.65093591896846 236.14892661233114 6.150000000000041
  endloop
endfacet
facet normal 0.0 0.0 -1.0
  outer loop
    vertex 338.8638094356721 235.04081303231098 6.150000000000041
    vertex 338.65093591896846 236.14892661233114 6.150000000000041
    vertex 338.917919204933 235.80098721993772 6.150000000000041
  endloop
endfacet
facet normal 0.0 0.0 -1.0
  outer loop
    vertex 338.8638094356721 235.04081303231098 6.150000000000041
    vertex 338.917919204933 235.80098721993772 6.150000000000041
    vertex 339.4103401310959 234.78572741485547 6.150000000000041
  endloop
endfacet
facet normal 0.0 0.0 -1.0
  outer loop
    vertex 339.4103401310959 234.78572741485547 6.150000000000041
    vertex 338.917919204933 235.80098721993772 6.150000000000041
    vertex 339.2658585973263 235.53400393397325 6.150000000000041
  endloop
endfacet
facet normal 0.0 0.0 -1.0
  outer loop
    vertex 339.4103401310959 234.78572741485547 6.150000000000041
    vertex 339.2658585973263 235.53400393397325 6.150000000000041
    vertex 339.6710426015541 235.36617122416547 6.150000000000041
  endloop
endfacet
facet normal 0.0 0.0 -1.0
  outer loop
    vertex 339.4103401310959 234.78572741485547 6.150000000000041
    vertex 339.6710426015541 235.36617122416547 6.150000000000041
    vertex 340.00426926059464 234.68078618174914 6.150000000000041
  endloop
endfacet
facet normal 0.0 0.0 -1.0
  outer loop
    vertex 340.00426926059464 234.68078618174914 6.150000000000041
    vertex 339.6710426015541 235.36617122416547 6.150000000000041
    vertex 340.1058585973264 235.3089266123311 6.150000000000041
  endloop
endfacet
facet normal 0.0 0.0 -1.0
  outer loop
    vertex 340.00426926059464 234.68078618174914 6.150000000000041
    vertex 340.1058585973264 235.3089266123311 6.150000000000041
    vertex 340.6051215355074 234.7331409046045 6.150000000000041
  endloop
endfacet
facet normal 0.0 0.0 -1.0
  outer loop
    vertex 340.6051215355074 234.7331409046045 6.150000000000041
    vertex 340.1058585973264 235.3089266123311 6.150000000000041
    vertex 340.54067459309863 235.36617122416547 6.150000000000041
  endloop
endfacet
facet normal 0.0 0.0 -1.0
  outer loop
    vertex 340.6051215355074 234.7331409046045 6.150000000000041
    vertex 340.54067459309863 235.36617122416547 6.150000000000041
    vertex 340.94585859732626 235.53400393397325 6.150000000000041
  endloop
endfacet
facet normal 0.0 0.0 -1.0
  outer loop
    vertex 340.6051215355074 234.7331409046045 6.150000000000041
    vertex 340.94585859732626 235.53400393397325 6.150000000000041
    vertex 341.17194986625407 234.93922369557933 6.150000000000041
  endloop
endfacet
facet normal 0.0 0.0 -1.0
  outer loop
    vertex 341.17194986625407 234.93922369557933 6.150000000000041
    vertex 340.94585859732626 235.53400393397325 6.150000000000041
    vertex 341.29379798971974 235.80098721993772 6.150000000000041
  endloop
endfacet
facet normal 0.0 0.0 -1.0
  outer loop
    vertex 341.17194986625407 234.93922369557933 6.150000000000041
    vertex 341.29379798971974 235.80098721993772 6.150000000000041
    vertex 341.66612583882255 235.28499035303653 6.150000000000041
  endloop
endfacet
facet normal 0.0 0.0 -1.0
  outer loop
    vertex 341.66612583882255 235.28499035303653 6.150000000000041
    vertex 341.29379798971974 235.80098721993772 6.150000000000041
    vertex 341.5607812756841 236.14892661233114 6.150000000000041
  endloop
endfacet
facet normal 0.0 0.0 -1.0
  outer loop
    vertex 341.66612583882255 235.28499035303653 6.150000000000041
    vertex 341.5607812756841 236.14892661233114 6.150000000000041
    vertex 341.728613985492 236.5541106165589 6.150000000000041
  endloop
endfacet
facet normal 0.0 0.0 -1.0
  outer loop
    vertex 341.66612583882255 235.28499035303653 6.150000000000041
    vertex 341.728613985492 236.5541106165589 6.150000000000041
    vertex 342.0539721773465 235.74687745067692 6.150000000000041
  endloop
endfacet
facet normal 0.0 0.0 -1.0
  outer loop
    vertex 342.0539721773465 235.74687745067692 6.150000000000041
    vertex 341.728613985492 236.5541106165589 6.150000000000041
    vertex 341.7858585973263 236.98892661233114 6.150000000000041
  endloop
endfacet
facet normal 0.0 0.0 -1.0
  outer loop
    vertex 342.0539721773465 235.74687745067692 6.150000000000041
    vertex 341.7858585973263 236.98892661233114 6.150000000000041
    vertex 341.80979485662084 238.54919385382732 6.150000000000041
  endloop
endfacet
facet normal 0.0 0.0 -1.0
  outer loop
    vertex 342.0539721773465 235.74687745067692 6.150000000000041
    vertex 341.80979485662084 238.54919385382732 6.150000000000041
    vertex 342.15556151407816 238.0550178812589 6.150000000000041
  endloop
endfacet
facet normal 0.0 0.0 -1.0
  outer loop
    vertex 342.0539721773465 235.74687745067692 6.150000000000041
    vertex 342.15556151407816 238.0550178812589 6.150000000000041
    vertex 342.30905779480196 236.2934081461007 6.150000000000041
  endloop
endfacet
facet normal 0.0 0.0 -1.0
  outer loop
    vertex 342.30905779480196 236.2934081461007 6.150000000000041
    vertex 342.15556151407816 238.0550178812589 6.150000000000041
    vertex 342.361644305053 237.48818955051223 6.150000000000041
  endloop
endfacet
facet normal 0.0 0.0 -1.0
  outer loop
    vertex 342.30905779480196 236.2934081461007 6.150000000000041
    vertex 342.361644305053 237.48818955051223 6.150000000000041
    vertex 342.41399902790835 236.88733727559946 6.150000000000041
  endloop
endfacet
facet normal -0.04397092971125361 -0.9990328109428278 0.0
  outer loop
    vertex 340.00426926059464 234.68078618174914 10.150000000000041
    vertex 339.4103401310959 234.78572741485547 6.150000000000041
    vertex 340.00426926059464 234.68078618174914 6.150000000000041
  endloop
endfacet
facet normal -0.30104137476834986 -0.9536110793597052 0.0
  outer loop
    vertex 339.4103401310959 234.78572741485547 6.150000000000041
    vertex 340.00426926059464 234.68078618174914 10.150000000000041
    vertex 339.4103401310959 234.78572741485547 10.150000000000041
  endloop
endfacet
facet normal 0.0 0.0 1.0
  outer loop
    vertex 338.40192233803174 235.42865937083494 10.150000000000041
    vertex 338.48310320916073 236.5541106165589 10.150000000000041
    vertex 338.4258585973263 236.98892661233114 10.150000000000041
  endloop
endfacet
facet normal 0.0 0.0 1.0
  outer loop
    vertex 338.48310320916073 236.5541106165589 10.150000000000041
    vertex 338.40192233803174 235.42865937083494 10.150000000000041
    vertex 338.8638094356721 235.04081303231098 10.150000000000041
  endloop
endfacet
facet normal 0.0 0.0 1.0
  outer loop
    vertex 338.48310320916073 236.5541106165589 10.150000000000041
    vertex 338.8638094356721 235.04081303231098 10.150000000000041
    vertex 338.65093591896846 236.14892661233114 10.150000000000041
  endloop
endfacet
facet normal 0.0 0.0 1.0
  outer loop
    vertex 338.65093591896846 236.14892661233114 10.150000000000041
    vertex 338.8638094356721 235.04081303231098 10.150000000000041
    vertex 338.917919204933 235.80098721993772 10.150000000000041
  endloop
endfacet
facet normal 0.0 0.0 1.0
  outer loop
    vertex 338.917919204933 235.80098721993772 10.150000000000041
    vertex 338.8638094356721 235.04081303231098 10.150000000000041
    vertex 339.4103401310959 234.78572741485547 10.150000000000041
  endloop
endfacet
facet normal 0.0 0.0 1.0
  outer loop
    vertex 338.917919204933 235.80098721993772 10.150000000000041
    vertex 339.4103401310959 234.78572741485547 10.150000000000041
    vertex 339.2658585973263 235.53400393397325 10.150000000000041
  endloop
endfacet
facet normal 0.0 0.0 1.0
  outer loop
    vertex 339.2658585973263 235.53400393397325 10.150000000000041
    vertex 339.4103401310959 234.78572741485547 10.150000000000041
    vertex 339.6710426015541 235.36617122416547 10.150000000000041
  endloop
endfacet
facet normal 0.0 0.0 1.0
  outer loop
    vertex 339.6710426015541 235.36617122416547 10.150000000000041
    vertex 339.4103401310959 234.78572741485547 10.150000000000041
    vertex 340.00426926059464 234.68078618174914 10.150000000000041
  endloop
endfacet
facet normal 0.0 0.0 1.0
  outer loop
    vertex 339.6710426015541 235.36617122416547 10.150000000000041
    vertex 340.00426926059464 234.68078618174914 10.150000000000041
    vertex 340.1058585973264 235.3089266123311 10.150000000000041
  endloop
endfacet
facet normal 0.0 0.0 1.0
  outer loop
    vertex 340.1058585973264 235.3089266123311 10.150000000000041
    vertex 340.00426926059464 234.68078618174914 10.150000000000041
    vertex 340.6051215355074 234.7331409046045 10.150000000000041
  endloop
endfacet
facet normal 0.0 0.0 1.0
  outer loop
    vertex 340.1058585973264 235.3089266123311 10.150000000000041
    vertex 340.6051215355074 234.7331409046045 10.150000000000041
    vertex 340.54067459309863 235.36617122416547 10.150000000000041
  endloop
endfacet
facet normal 0.0 0.0 1.0
  outer loop
    vertex 340.54067459309863 235.36617122416547 10.150000000000041
    vertex 340.6051215355074 234.7331409046045 10.150000000000041
    vertex 340.94585859732626 235.53400393397325 10.150000000000041
  endloop
endfacet
facet normal 0.0 0.0 1.0
  outer loop
    vertex 340.94585859732626 235.53400393397325 10.150000000000041
    vertex 340.6051215355074 234.7331409046045 10.150000000000041
    vertex 341.17194986625407 234.93922369557933 10.150000000000041
  endloop
endfacet
facet normal 0.0 0.0 1.0
  outer loop
    vertex 340.94585859732626 235.53400393397325 10.150000000000041
    vertex 341.17194986625407 234.93922369557933 10.150000000000041
    vertex 341.29379798971974 235.80098721993772 10.150000000000041
  endloop
endfacet
facet normal 0.0 0.0 1.0
  outer loop
    vertex 341.29379798971974 235.80098721993772 10.150000000000041
    vertex 341.17194986625407 234.93922369557933 10.150000000000041
    vertex 341.66612583882255 235.28499035303653 10.150000000000041
  endloop
endfacet
facet normal 0.0 0.0 1.0
  outer loop
    vertex 341.29379798971974 235.80098721993772 10.150000000000041
    vertex 341.66612583882255 235.28499035303653 10.150000000000041
    vertex 341.5607812756841 236.14892661233114 10.150000000000041
  endloop
endfacet
facet normal 0.0 0.0 1.0
  outer loop
    vertex 341.5607812756841 236.14892661233114 10.150000000000041
    vertex 341.66612583882255 235.28499035303653 10.150000000000041
    vertex 341.728613985492 236.5541106165589 10.150000000000041
  endloop
endfacet
facet normal 0.0 0.0 1.0
  outer loop
    vertex 341.728613985492 236.5541106165589 10.150000000000041
    vertex 341.66612583882255 235.28499035303653 10.150000000000041
    vertex 342.0539721773465 235.74687745067692 10.150000000000041
  endloop
endfacet
facet normal 0.0 0.0 1.0
  outer loop
    vertex 341.728613985492 236.5541106165589 10.150000000000041
    vertex 342.0539721773465 235.74687745067692 10.150000000000041
    vertex 341.7858585973263 236.98892661233114 10.150000000000041
  endloop
endfacet
facet normal 0.0 0.0 1.0
  outer loop
    vertex 341.7858585973263 236.98892661233114 10.150000000000041
    vertex 342.0539721773465 235.74687745067692 10.150000000000041
    vertex 341.80979485662084 238.54919385382732 10.150000000000041
  endloop
endfacet
facet normal 0.0 0.0 1.0
  outer loop
    vertex 341.80979485662084 238.54919385382732 10.150000000000041
    vertex 342.0539721773465 235.74687745067692 10.150000000000041
    vertex 342.15556151407816 238.0550178812589 10.150000000000041
  endloop
endfacet
facet normal 0.0 0.0 1.0
  outer loop
    vertex 342.15556151407816 238.0550178812589 10.150000000000041
    vertex 342.0539721773465 235.74687745067692 10.150000000000041
    vertex 342.30905779480196 236.2934081461007 10.150000000000041
  endloop
endfacet
facet normal 0.0 0.0 1.0
  outer loop
    vertex 342.15556151407816 238.0550178812589 10.150000000000041
    vertex 342.30905779480196 236.2934081461007 10.150000000000041
    vertex 342.361644305053 237.48818955051223 10.150000000000041
  endloop
endfacet
facet normal 0.0 0.0 1.0
  outer loop
    vertex 342.361644305053 237.48818955051223 10.150000000000041
    vertex 342.30905779480196 236.2934081461007 10.150000000000041
    vertex 342.41399902790835 236.88733727559946 10.150000000000041
  endloop
endfacet
facet normal 0.0 0.0 1.0
  outer loop
    vertex 337.85007288959974 236.48966367415008 10.150000000000041
    vertex 337.9026593998507 237.68444507856157 10.150000000000041
    vertex 337.7977181667443 237.0905159490628 10.150000000000041
  endloop
endfacet
facet normal 0.0 0.0 1.0
  outer loop
    vertex 337.9026593998507 237.68444507856157 10.150000000000041
    vertex 337.85007288959974 236.48966367415008 10.150000000000041
    vertex 338.05615568057453 235.92283534340336 10.150000000000041
  endloop
endfacet
facet normal 0.0 0.0 1.0
  outer loop
    vertex 337.9026593998507 237.68444507856157 10.150000000000041
    vertex 338.05615568057453 235.92283534340336 10.150000000000041
    vertex 338.15774501730624 238.2309757739854 10.150000000000041
  endloop
endfacet
facet normal 0.0 0.0 1.0
  outer loop
    vertex 338.15774501730624 238.2309757739854 10.150000000000041
    vertex 338.05615568057453 235.92283534340336 10.150000000000041
    vertex 338.40192233803174 235.42865937083494 10.150000000000041
  endloop
endfacet
facet normal 0.0 0.0 1.0
  outer loop
    vertex 338.15774501730624 238.2309757739854 10.150000000000041
    vertex 338.40192233803174 235.42865937083494 10.150000000000041
    vertex 338.4258585973263 236.98892661233114 10.150000000000041
  endloop
endfacet
facet normal 0.0 0.0 1.0
  outer loop
    vertex 338.15774501730624 238.2309757739854 10.150000000000041
    vertex 338.4258585973263 236.98892661233114 10.150000000000041
    vertex 338.5455913558302 238.69286287162572 10.150000000000041
  endloop
endfacet
facet normal 0.0 0.0 1.0
  outer loop
    vertex 338.5455913558302 238.69286287162572 10.150000000000041
    vertex 338.4258585973263 236.98892661233114 10.150000000000041
    vertex 338.48310320916073 237.42374260810337 10.150000000000041
  endloop
endfacet
facet normal 0.0 0.0 1.0
  outer loop
    vertex 338.5455913558302 238.69286287162572 10.150000000000041
    vertex 338.48310320916073 237.42374260810337 10.150000000000041
    vertex 338.65093591896846 237.82892661233117 10.150000000000041
  endloop
endfacet
facet normal 0.0 0.0 1.0
  outer loop
    vertex 338.5455913558302 238.69286287162572 10.150000000000041
    vertex 338.65093591896846 237.82892661233117 10.150000000000041
    vertex 339.0397673283985 239.03862952908298 10.150000000000041
  endloop
endfacet
facet normal 0.0 0.0 1.0
  outer loop
    vertex 339.0397673283985 239.03862952908298 10.150000000000041
    vertex 338.65093591896846 237.82892661233117 10.150000000000041
    vertex 338.917919204933 238.1768660047246 10.150000000000041
  endloop
endfacet
facet normal 0.0 0.0 1.0
  outer loop
    vertex 339.0397673283985 239.03862952908298 10.150000000000041
    vertex 338.917919204933 238.1768660047246 10.150000000000041
    vertex 339.2658585973263 238.443849290689 10.150000000000041
  endloop
endfacet
facet normal 0.0 0.0 1.0
  outer loop
    vertex 339.0397673283985 239.03862952908298 10.150000000000041
    vertex 339.2658585973263 238.443849290689 10.150000000000041
    vertex 339.6065956591453 239.24471232005774 10.150000000000041
  endloop
endfacet
facet normal 0.0 0.0 1.0
  outer loop
    vertex 339.6065956591453 239.24471232005774 10.150000000000041
    vertex 339.2658585973263 238.443849290689 10.150000000000041
    vertex 339.6710426015541 238.61168200049678 10.150000000000041
  endloop
endfacet
facet normal 0.0 0.0 1.0
  outer loop
    vertex 339.6065956591453 239.24471232005774 10.150000000000041
    vertex 339.6710426015541 238.61168200049678 10.150000000000041
    vertex 340.20744793405794 239.29706704291317 10.150000000000041
  endloop
endfacet
facet normal 0.0 0.0 1.0
  outer loop
    vertex 340.20744793405794 239.29706704291317 10.150000000000041
    vertex 339.6710426015541 238.61168200049678 10.150000000000041
    vertex 340.1058585973264 238.66892661233115 10.150000000000041
  endloop
endfacet
facet normal 0.0 0.0 1.0
  outer loop
    vertex 340.20744793405794 239.29706704291317 10.150000000000041
    vertex 340.1058585973264 238.66892661233115 10.150000000000041
    vertex 340.54067459309863 238.61168200049678 10.150000000000041
  endloop
endfacet
facet normal 0.0 0.0 1.0
  outer loop
    vertex 340.20744793405794 239.29706704291317 10.150000000000041
    vertex 340.54067459309863 238.61168200049678 10.150000000000041
    vertex 340.80137706355686 239.19212580980678 10.150000000000041
  endloop
endfacet
facet normal 0.0 0.0 1.0
  outer loop
    vertex 340.80137706355686 239.19212580980678 10.150000000000041
    vertex 340.54067459309863 238.61168200049678 10.150000000000041
    vertex 340.9458585973264 238.443849290689 10.150000000000041
  endloop
endfacet
facet normal 0.0 0.0 1.0
  outer loop
    vertex 340.80137706355686 239.19212580980678 10.150000000000041
    vertex 340.9458585973264 238.443849290689 10.150000000000041
    vertex 341.3479077589806 238.93704019235128 10.150000000000041
  endloop
endfacet
facet normal 0.0 0.0 1.0
  outer loop
    vertex 341.3479077589806 238.93704019235128 10.150000000000041
    vertex 340.9458585973264 238.443849290689 10.150000000000041
    vertex 341.29379798971974 238.1768660047246 10.150000000000041
  endloop
endfacet
facet normal 0.0 0.0 1.0
  outer loop
    vertex 341.3479077589806 238.93704019235128 10.150000000000041
    vertex 341.29379798971974 238.1768660047246 10.150000000000041
    vertex 341.5607812756841 237.82892661233117 10.150000000000041
  endloop
endfacet
facet normal 0.0 0.0 1.0
  outer loop
    vertex 341.3479077589806 238.93704019235128 10.150000000000041
    vertex 341.5607812756841 237.82892661233117 10.150000000000041
    vertex 341.80979485662084 238.54919385382732 10.150000000000041
  endloop
endfacet
facet normal 0.0 0.0 1.0
  outer loop
    vertex 341.80979485662084 238.54919385382732 10.150000000000041
    vertex 341.5607812756841 237.82892661233117 10.150000000000041
    vertex 341.728613985492 237.42374260810337 10.150000000000041
  endloop
endfacet
facet normal 0.0 0.0 1.0
  outer loop
    vertex 341.80979485662084 238.54919385382732 10.150000000000041
    vertex 341.728613985492 237.42374260810337 10.150000000000041
    vertex 341.7858585973263 236.98892661233114 10.150000000000041
  endloop
endfacet
facet normal -0.25881904510252374 -0.9659258262890675 0.0
  outer loop
    vertex 340.54067459309863 238.61168200049678 10.150000000000041
    vertex 340.1058585973264 238.66892661233115 6.150000000000041
    vertex 340.54067459309863 238.61168200049678 6.150000000000041
  endloop
endfacet
facet normal 0.0 -1.0 0.0
  outer loop
    vertex 340.1058585973264 238.66892661233115 6.150000000000041
    vertex 340.54067459309863 238.61168200049678 10.150000000000041
    vertex 340.1058585973264 238.66892661233115 10.150000000000041
  endloop
endfacet
facet normal -0.5000000000000259 -0.8660254037844237 0.0
  outer loop
    vertex 340.9458585973264 238.443849290689 10.150000000000041
    vertex 340.54067459309863 238.61168200049678 6.150000000000041
    vertex 340.9458585973264 238.443849290689 6.150000000000041
  endloop
endfacet
facet normal -0.25881904510252374 -0.9659258262890675 0.0
  outer loop
    vertex 340.54067459309863 238.61168200049678 6.150000000000041
    vertex 340.9458585973264 238.443849290689 10.150000000000041
    vertex 340.54067459309863 238.61168200049678 10.150000000000041
  endloop
endfacet
facet normal -0.7071067811865624 -0.7071067811865326 0.0
  outer loop
    vertex 341.29379798971974 238.1768660047246 10.150000000000041
    vertex 340.9458585973264 238.443849290689 6.150000000000041
    vertex 341.29379798971974 238.1768660047246 6.150000000000041
  endloop
endfacet
facet normal -0.5000000000000259 -0.8660254037844237 0.0
  outer loop
    vertex 340.9458585973264 238.443849290689 6.150000000000041
    vertex 341.29379798971974 238.1768660047246 10.150000000000041
    vertex 340.9458585973264 238.443849290689 10.150000000000041
  endloop
endfacet
facet normal -0.7071067811865624 -0.7071067811865326 0.0
  outer loop
    vertex 341.29379798971974 238.1768660047246 10.150000000000041
    vertex 341.5607812756841 237.82892661233117 6.150000000000041
    vertex 341.5607812756841 237.82892661233117 10.150000000000041
  endloop
endfacet
facet normal -0.8660254037844308 -0.5000000000000135 0.0
  outer loop
    vertex 341.5607812756841 237.82892661233117 6.150000000000041
    vertex 341.29379798971974 238.1768660047246 10.150000000000041
    vertex 341.29379798971974 238.1768660047246 6.150000000000041
  endloop
endfacet
facet normal -0.8660254037844308 -0.5000000000000135 0.0
  outer loop
    vertex 341.5607812756841 237.82892661233117 10.150000000000041
    vertex 341.728613985492 237.42374260810337 6.150000000000041
    vertex 341.728613985492 237.42374260810337 10.150000000000041
  endloop
endfacet
facet normal -0.9659258262890549 -0.2588190451025706 0.0
  outer loop
    vertex 341.728613985492 237.42374260810337 6.150000000000041
    vertex 341.5607812756841 237.82892661233117 10.150000000000041
    vertex 341.5607812756841 237.82892661233117 6.150000000000041
  endloop
endfacet
facet normal -0.9659258262890549 -0.2588190451025706 0.0
  outer loop
    vertex 341.728613985492 237.42374260810337 10.150000000000041
    vertex 341.7858585973263 236.98892661233114 6.150000000000041
    vertex 341.7858585973263 236.98892661233114 10.150000000000041
  endloop
endfacet
facet normal -1.0 0.0 0.0
  outer loop
    vertex 341.7858585973263 236.98892661233114 6.150000000000041
    vertex 341.728613985492 237.42374260810337 10.150000000000041
    vertex 341.728613985492 237.42374260810337 6.150000000000041
  endloop
endfacet
facet normal -1.0 0.0 0.0
  outer loop
    vertex 341.7858585973263 236.98892661233114 10.150000000000041
    vertex 341.728613985492 236.5541106165589 6.150000000000041
    vertex 341.728613985492 236.5541106165589 10.150000000000041
  endloop
endfacet
facet normal -0.9659258262890549 0.25881904510257064 0.0
  outer loop
    vertex 341.728613985492 236.5541106165589 6.150000000000041
    vertex 341.7858585973263 236.98892661233114 10.150000000000041
    vertex 341.7858585973263 236.98892661233114 6.150000000000041
  endloop
endfacet
facet normal -0.9659258262890549 0.25881904510257064 0.0
  outer loop
    vertex 341.728613985492 236.5541106165589 10.150000000000041
    vertex 341.5607812756841 236.14892661233114 6.150000000000041
    vertex 341.5607812756841 236.14892661233114 10.150000000000041
  endloop
endfacet
facet normal -0.8660254037844307 0.5000000000000137 0.0
  outer loop
    vertex 341.5607812756841 236.14892661233114 6.150000000000041
    vertex 341.728613985492 236.5541106165589 10.150000000000041
    vertex 341.728613985492 236.5541106165589 6.150000000000041
  endloop
endfacet
facet normal -0.8660254037844307 0.5000000000000137 0.0
  outer loop
    vertex 341.5607812756841 236.14892661233114 10.150000000000041
    vertex 341.29379798971974 235.80098721993772 6.150000000000041
    vertex 341.29379798971974 235.80098721993772 10.150000000000041
  endloop
endfacet
facet normal -0.7071067811865404 0.7071067811865547 0.0
  outer loop
    vertex 341.29379798971974 235.80098721993772 6.150000000000041
    vertex 341.5607812756841 236.14892661233114 10.150000000000041
    vertex 341.5607812756841 236.14892661233114 6.150000000000041
  endloop
endfacet
facet normal -0.5000000000000159 0.8660254037844295 0.0
  outer loop
    vertex 340.94585859732626 235.53400393397325 10.150000000000041
    vertex 341.29379798971974 235.80098721993772 6.150000000000041
    vertex 340.94585859732626 235.53400393397325 6.150000000000041
  endloop
endfacet
facet normal -0.7071067811865404 0.7071067811865547 0.0
  outer loop
    vertex 341.29379798971974 235.80098721993772 6.150000000000041
    vertex 340.94585859732626 235.53400393397325 10.150000000000041
    vertex 341.29379798971974 235.80098721993772 10.150000000000041
  endloop
endfacet
facet normal -0.2588190451025427 0.9659258262890624 0.0
  outer loop
    vertex 340.54067459309863 235.36617122416547 10.150000000000041
    vertex 340.94585859732626 235.53400393397325 6.150000000000041
    vertex 340.54067459309863 235.36617122416547 6.150000000000041
  endloop
endfacet
facet normal -0.5000000000000159 0.8660254037844295 0.0
  outer loop
    vertex 340.94585859732626 235.53400393397325 6.150000000000041
    vertex 340.54067459309863 235.36617122416547 10.150000000000041
    vertex 340.94585859732626 235.53400393397325 10.150000000000041
  endloop
endfacet
facet normal 0.0 1.0 0.0
  outer loop
    vertex 340.1058585973264 235.3089266123311 10.150000000000041
    vertex 340.54067459309863 235.36617122416547 6.150000000000041
    vertex 340.1058585973264 235.3089266123311 6.150000000000041
  endloop
endfacet
facet normal -0.2588190451025427 0.9659258262890624 0.0
  outer loop
    vertex 340.54067459309863 235.36617122416547 6.150000000000041
    vertex 340.1058585973264 235.3089266123311 10.150000000000041
    vertex 340.54067459309863 235.36617122416547 10.150000000000041
  endloop
endfacet
facet normal 0.25881904510252374 0.9659258262890675 0.0
  outer loop
    vertex 339.6710426015541 235.36617122416547 10.150000000000041
    vertex 340.1058585973264 235.3089266123311 6.150000000000041
    vertex 339.6710426015541 235.36617122416547 6.150000000000041
  endloop
endfacet
facet normal 0.0 1.0 0.0
  outer loop
    vertex 340.1058585973264 235.3089266123311 6.150000000000041
    vertex 339.6710426015541 235.36617122416547 10.150000000000041
    vertex 340.1058585973264 235.3089266123311 10.150000000000041
  endloop
endfacet
facet normal 0.5000000000000259 0.8660254037844237 0.0
  outer loop
    vertex 339.2658585973263 235.53400393397325 10.150000000000041
    vertex 339.6710426015541 235.36617122416547 6.150000000000041
    vertex 339.2658585973263 235.53400393397325 6.150000000000041
  endloop
endfacet
facet normal 0.25881904510252374 0.9659258262890675 0.0
  outer loop
    vertex 339.6710426015541 235.36617122416547 6.150000000000041
    vertex 339.2658585973263 235.53400393397325 10.150000000000041
    vertex 339.6710426015541 235.36617122416547 10.150000000000041
  endloop
endfacet
facet normal 0.7071067811865624 0.7071067811865326 0.0
  outer loop
    vertex 338.917919204933 235.80098721993772 10.150000000000041
    vertex 339.2658585973263 235.53400393397325 6.150000000000041
    vertex 338.917919204933 235.80098721993772 6.150000000000041
  endloop
endfacet
facet normal 0.5000000000000259 0.8660254037844237 0.0
  outer loop
    vertex 339.2658585973263 235.53400393397325 6.150000000000041
    vertex 338.917919204933 235.80098721993772 10.150000000000041
    vertex 339.2658585973263 235.53400393397325 10.150000000000041
  endloop
endfacet
facet normal 0.8660254037844308 0.5000000000000135 0.0
  outer loop
    vertex 338.65093591896846 236.14892661233114 6.150000000000041
    vertex 338.917919204933 235.80098721993772 10.150000000000041
    vertex 338.917919204933 235.80098721993772 6.150000000000041
  endloop
endfacet
facet normal 0.7071067811865624 0.7071067811865326 0.0
  outer loop
    vertex 338.917919204933 235.80098721993772 10.150000000000041
    vertex 338.65093591896846 236.14892661233114 6.150000000000041
    vertex 338.65093591896846 236.14892661233114 10.150000000000041
  endloop
endfacet
facet normal 0.9659258262890549 0.2588190451025706 0.0
  outer loop
    vertex 338.48310320916073 236.5541106165589 6.150000000000041
    vertex 338.65093591896846 236.14892661233114 10.150000000000041
    vertex 338.65093591896846 236.14892661233114 6.150000000000041
  endloop
endfacet
facet normal 0.8660254037844308 0.5000000000000135 0.0
  outer loop
    vertex 338.65093591896846 236.14892661233114 10.150000000000041
    vertex 338.48310320916073 236.5541106165589 6.150000000000041
    vertex 338.48310320916073 236.5541106165589 10.150000000000041
  endloop
endfacet
facet normal 1.0 0.0 0.0
  outer loop
    vertex 338.4258585973263 236.98892661233114 6.150000000000041
    vertex 338.48310320916073 236.5541106165589 10.150000000000041
    vertex 338.48310320916073 236.5541106165589 6.150000000000041
  endloop
endfacet
facet normal 0.9659258262890549 0.2588190451025706 0.0
  outer loop
    vertex 338.48310320916073 236.5541106165589 10.150000000000041
    vertex 338.4258585973263 236.98892661233114 6.150000000000041
    vertex 338.4258585973263 236.98892661233114 10.150000000000041
  endloop
endfacet
facet normal 0.9659258262890549 -0.25881904510257064 0.0
  outer loop
    vertex 338.48310320916073 237.42374260810337 6.150000000000041
    vertex 338.4258585973263 236.98892661233114 10.150000000000041
    vertex 338.4258585973263 236.98892661233114 6.150000000000041
  endloop
endfacet
facet normal 1.0 0.0 0.0
  outer loop
    vertex 338.4258585973263 236.98892661233114 10.150000000000041
    vertex 338.48310320916073 237.42374260810337 6.150000000000041
    vertex 338.48310320916073 237.42374260810337 10.150000000000041
  endloop
endfacet
facet normal 0.8660254037844307 -0.5000000000000137 0.0
  outer loop
    vertex 338.65093591896846 237.82892661233117 6.150000000000041
    vertex 338.48310320916073 237.42374260810337 10.150000000000041
    vertex 338.48310320916073 237.42374260810337 6.150000000000041
  endloop
endfacet
facet normal 0.9659258262890549 -0.25881904510257064 0.0
  outer loop
    vertex 338.48310320916073 237.42374260810337 10.150000000000041
    vertex 338.65093591896846 237.82892661233117 6.150000000000041
    vertex 338.65093591896846 237.82892661233117 10.150000000000041
  endloop
endfacet
facet normal 0.7071067811865404 -0.7071067811865547 0.0
  outer loop
    vertex 338.917919204933 238.1768660047246 6.150000000000041
    vertex 338.65093591896846 237.82892661233117 10.150000000000041
    vertex 338.65093591896846 237.82892661233117 6.150000000000041
  endloop
endfacet
facet normal 0.8660254037844307 -0.5000000000000137 0.0
  outer loop
    vertex 338.65093591896846 237.82892661233117 10.150000000000041
    vertex 338.917919204933 238.1768660047246 6.150000000000041
    vertex 338.917919204933 238.1768660047246 10.150000000000041
  endloop
endfacet
facet normal 0.5000000000000159 -0.8660254037844295 0.0
  outer loop
    vertex 339.2658585973263 238.443849290689 10.150000000000041
    vertex 338.917919204933 238.1768660047246 6.150000000000041
    vertex 339.2658585973263 238.443849290689 6.150000000000041
  endloop
endfacet
facet normal 0.7071067811865404 -0.7071067811865547 0.0
  outer loop
    vertex 338.917919204933 238.1768660047246 6.150000000000041
    vertex 339.2658585973263 238.443849290689 10.150000000000041
    vertex 338.917919204933 238.1768660047246 10.150000000000041
  endloop
endfacet
facet normal 0.2588190451025427 -0.9659258262890624 0.0
  outer loop
    vertex 339.6710426015541 238.61168200049678 10.150000000000041
    vertex 339.2658585973263 238.443849290689 6.150000000000041
    vertex 339.6710426015541 238.61168200049678 6.150000000000041
  endloop
endfacet
facet normal 0.5000000000000159 -0.8660254037844295 0.0
  outer loop
    vertex 339.2658585973263 238.443849290689 6.150000000000041
    vertex 339.6710426015541 238.61168200049678 10.150000000000041
    vertex 339.2658585973263 238.443849290689 10.150000000000041
  endloop
endfacet
facet normal 0.0 -1.0 0.0
  outer loop
    vertex 340.1058585973264 238.66892661233115 10.150000000000041
    vertex 339.6710426015541 238.61168200049678 6.150000000000041
    vertex 340.1058585973264 238.66892661233115 6.150000000000041
  endloop
endfacet
facet normal 0.2588190451025427 -0.9659258262890624 0.0
  outer loop
    vertex 339.6710426015541 238.61168200049678 6.150000000000041
    vertex 340.1058585973264 238.66892661233115 10.150000000000041
    vertex 339.6710426015541 238.61168200049678 10.150000000000041
  endloop
endfacet
facet normal 0.4614364633134405 -0.8871732583462961 0.0
  outer loop
    vertex 341.17194986625407 234.93922369557933 10.150000000000041
    vertex 340.6051215355074 234.7331409046045 6.150000000000041
    vertex 341.17194986625407 234.93922369557933 6.150000000000041
  endloop
endfacet
facet normal 0.21609606154025257 -0.9763721074399818 0.0
  outer loop
    vertex 340.6051215355074 234.7331409046045 6.150000000000041
    vertex 341.17194986625407 234.93922369557933 10.150000000000041
    vertex 340.6051215355074 234.7331409046045 10.150000000000041
  endloop
endfacet
facet normal 0.6753307326716333 -0.7375150178194305 0.0
  outer loop
    vertex 341.66612583882255 235.28499035303653 10.150000000000041
    vertex 341.17194986625407 234.93922369557933 6.150000000000041
    vertex 341.66612583882255 235.28499035303653 6.150000000000041
  endloop
endfacet
facet normal 0.4614364633134405 -0.8871732583462961 0.0
  outer loop
    vertex 341.17194986625407 234.93922369557933 6.150000000000041
    vertex 341.66612583882255 235.28499035303653 10.150000000000041
    vertex 341.17194986625407 234.93922369557933 10.150000000000041
  endloop
endfacet
facet normal 0.8432023286350192 -0.5375963476294097 0.0
  outer loop
    vertex 342.0539721773465 235.74687745067692 6.150000000000041
    vertex 341.66612583882255 235.28499035303653 10.150000000000041
    vertex 341.66612583882255 235.28499035303653 6.150000000000041
  endloop
endfacet
facet normal 0.6753307326716333 -0.7375150178194305 0.0
  outer loop
    vertex 341.66612583882255 235.28499035303653 10.150000000000041
    vertex 342.0539721773465 235.74687745067692 6.150000000000041
    vertex 342.0539721773465 235.74687745067692 10.150000000000041
  endloop
endfacet
facet normal 0.9536110793596974 -0.3010413747683745 0.0
  outer loop
    vertex 342.30905779480196 236.2934081461007 6.150000000000041
    vertex 342.0539721773465 235.74687745067692 10.150000000000041
    vertex 342.0539721773465 235.74687745067692 6.150000000000041
  endloop
endfacet
facet normal 0.8432023286350192 -0.5375963476294097 0.0
  outer loop
    vertex 342.0539721773465 235.74687745067692 10.150000000000041
    vertex 342.30905779480196 236.2934081461007 6.150000000000041
    vertex 342.30905779480196 236.2934081461007 10.150000000000041
  endloop
endfacet
facet normal 0.9990328109428279 -0.04397092971125258 0.0
  outer loop
    vertex 342.41399902790835 236.88733727559946 6.150000000000041
    vertex 342.30905779480196 236.2934081461007 10.150000000000041
    vertex 342.30905779480196 236.2934081461007 6.150000000000041
  endloop
endfacet
facet normal 0.9536110793596974 -0.3010413747683745 0.0
  outer loop
    vertex 342.30905779480196 236.2934081461007 10.150000000000041
    vertex 342.41399902790835 236.88733727559946 6.150000000000041
    vertex 342.41399902790835 236.88733727559946 10.150000000000041
  endloop
endfacet
facet normal 0.9763721074399816 0.21609606154025365 0.0
  outer loop
    vertex 342.361644305053 237.48818955051223 6.150000000000041
    vertex 342.41399902790835 236.88733727559946 10.150000000000041
    vertex 342.41399902790835 236.88733727559946 6.150000000000041
  endloop
endfacet
facet normal 0.9990328109428279 -0.04397092971125258 0.0
  outer loop
    vertex 342.41399902790835 236.88733727559946 10.150000000000041
    vertex 342.361644305053 237.48818955051223 6.150000000000041
    vertex 342.361644305053 237.48818955051223 10.150000000000041
  endloop
endfacet
facet normal 0.8871732583462884 0.46143646331345545 0.0
  outer loop
    vertex 342.15556151407816 238.0550178812589 6.150000000000041
    vertex 342.361644305053 237.48818955051223 10.150000000000041
    vertex 342.361644305053 237.48818955051223 6.150000000000041
  endloop
endfacet
facet normal 0.9763721074399816 0.21609606154025365 0.0
  outer loop
    vertex 342.361644305053 237.48818955051223 10.150000000000041
    vertex 342.15556151407816 238.0550178812589 6.150000000000041
    vertex 342.15556151407816 238.0550178812589 10.150000000000041
  endloop
endfacet
facet normal 0.7375150178194525 0.6753307326716094 0.0
  outer loop
    vertex 341.80979485662084 238.54919385382732 6.150000000000041
    vertex 342.15556151407816 238.0550178812589 10.150000000000041
    vertex 342.15556151407816 238.0550178812589 6.150000000000041
  endloop
endfacet
facet normal 0.8871732583462884 0.46143646331345545 0.0
  outer loop
    vertex 342.15556151407816 238.0550178812589 10.150000000000041
    vertex 341.80979485662084 238.54919385382732 6.150000000000041
    vertex 341.80979485662084 238.54919385382732 10.150000000000041
  endloop
endfacet
facet normal 0.5375963476294093 0.8432023286350194 0.0
  outer loop
    vertex 341.3479077589806 238.93704019235128 10.150000000000041
    vertex 341.80979485662084 238.54919385382732 6.150000000000041
    vertex 341.3479077589806 238.93704019235128 6.150000000000041
  endloop
endfacet
facet normal 0.7375150178194525 0.6753307326716094 0.0
  outer loop
    vertex 341.80979485662084 238.54919385382732 6.150000000000041
    vertex 341.3479077589806 238.93704019235128 10.150000000000041
    vertex 341.80979485662084 238.54919385382732 10.150000000000041
  endloop
endfacet
facet normal 0.30104137476834986 0.9536110793597052 0.0
  outer loop
    vertex 340.80137706355686 239.19212580980678 10.150000000000041
    vertex 341.3479077589806 238.93704019235128 6.150000000000041
    vertex 340.80137706355686 239.19212580980678 6.150000000000041
  endloop
endfacet
facet normal 0.5375963476294093 0.8432023286350194 0.0
  outer loop
    vertex 341.3479077589806 238.93704019235128 6.150000000000041
    vertex 340.80137706355686 239.19212580980678 10.150000000000041
    vertex 341.3479077589806 238.93704019235128 10.150000000000041
  endloop
endfacet
facet normal -0.6753307326716333 0.7375150178194305 0.0
  outer loop
    vertex 338.5455913558302 238.69286287162572 10.150000000000041
    vertex 339.0397673283985 239.03862952908298 6.150000000000041
    vertex 338.5455913558302 238.69286287162572 6.150000000000041
  endloop
endfacet
facet normal -0.4614364633134405 0.8871732583462961 0.0
  outer loop
    vertex 339.0397673283985 239.03862952908298 6.150000000000041
    vertex 338.5455913558302 238.69286287162572 10.150000000000041
    vertex 339.0397673283985 239.03862952908298 10.150000000000041
  endloop
endfacet
facet normal -0.30104137476834986 -0.9536110793597052 0.0
  outer loop
    vertex 339.4103401310959 234.78572741485547 10.150000000000041
    vertex 338.8638094356721 235.04081303231098 6.150000000000041
    vertex 339.4103401310959 234.78572741485547 6.150000000000041
  endloop
endfacet
facet normal -0.5375963476294093 -0.8432023286350194 0.0
  outer loop
    vertex 338.8638094356721 235.04081303231098 6.150000000000041
    vertex 339.4103401310959 234.78572741485547 10.150000000000041
    vertex 338.8638094356721 235.04081303231098 10.150000000000041
  endloop
endfacet
facet normal -0.6753307326716333 0.7375150178194305 0.0
  outer loop
    vertex 338.5455913558302 238.69286287162572 10.150000000000041
    vertex 338.15774501730624 238.2309757739854 6.150000000000041
    vertex 338.15774501730624 238.2309757739854 10.150000000000041
  endloop
endfacet
facet normal -0.8432023286350373 0.5375963476293812 0.0
  outer loop
    vertex 338.15774501730624 238.2309757739854 6.150000000000041
    vertex 338.5455913558302 238.69286287162572 10.150000000000041
    vertex 338.5455913558302 238.69286287162572 6.150000000000041
  endloop
endfacet
facet normal -0.8432023286350373 0.5375963476293812 0.0
  outer loop
    vertex 338.15774501730624 238.2309757739854 10.150000000000041
    vertex 337.9026593998507 237.68444507856157 6.150000000000041
    vertex 337.9026593998507 237.68444507856157 10.150000000000041
  endloop
endfacet
facet normal -0.9536110793596965 0.3010413747683774 0.0
  outer loop
    vertex 337.9026593998507 237.68444507856157 6.150000000000041
    vertex 338.15774501730624 238.2309757739854 10.150000000000041
    vertex 338.15774501730624 238.2309757739854 6.150000000000041
  endloop
endfacet
facet normal -0.9536110793596965 0.3010413747683774 0.0
  outer loop
    vertex 337.9026593998507 237.68444507856157 10.150000000000041
    vertex 337.7977181667443 237.0905159490628 6.150000000000041
    vertex 337.7977181667443 237.0905159490628 10.150000000000041
  endloop
endfacet
facet normal -0.9990328109428263 0.04397092971128941 0.0
  outer loop
    vertex 337.7977181667443 237.0905159490628 6.150000000000041
    vertex 337.9026593998507 237.68444507856157 10.150000000000041
    vertex 337.9026593998507 237.68444507856157 6.150000000000041
  endloop
endfacet
facet normal -0.9763721074399816 -0.2160960615402536 0.0
  outer loop
    vertex 337.85007288959974 236.48966367415008 10.150000000000041
    vertex 338.05615568057453 235.92283534340336 6.150000000000041
    vertex 338.05615568057453 235.92283534340336 10.150000000000041
  endloop
endfacet
facet normal -0.8871732583462884 -0.46143646331345545 0.0
  outer loop
    vertex 338.05615568057453 235.92283534340336 6.150000000000041
    vertex 337.85007288959974 236.48966367415008 10.150000000000041
    vertex 337.85007288959974 236.48966367415008 6.150000000000041
  endloop
endfacet
facet normal -0.9990328109428263 0.04397092971128941 0.0
  outer loop
    vertex 337.7977181667443 237.0905159490628 10.150000000000041
    vertex 337.85007288959974 236.48966367415008 6.150000000000041
    vertex 337.85007288959974 236.48966367415008 10.150000000000041
  endloop
endfacet
facet normal -0.9763721074399816 -0.2160960615402536 0.0
  outer loop
    vertex 337.85007288959974 236.48966367415008 6.150000000000041
    vertex 337.7977181667443 237.0905159490628 10.150000000000041
    vertex 337.7977181667443 237.0905159490628 6.150000000000041
  endloop
endfacet
facet normal 0.04397092971125361 0.9990328109428278 0.0
  outer loop
    vertex 340.20744793405794 239.29706704291317 10.150000000000041
    vertex 340.80137706355686 239.19212580980678 6.150000000000041
    vertex 340.20744793405794 239.29706704291317 6.150000000000041
  endloop
endfacet
facet normal 0.30104137476834986 0.9536110793597052 0.0
  outer loop
    vertex 340.80137706355686 239.19212580980678 6.150000000000041
    vertex 340.20744793405794 239.29706704291317 10.150000000000041
    vertex 340.80137706355686 239.19212580980678 10.150000000000041
  endloop
endfacet
facet normal -0.5375963476294093 -0.8432023286350194 0.0
  outer loop
    vertex 338.8638094356721 235.04081303231098 10.150000000000041
    vertex 338.40192233803174 235.42865937083494 6.150000000000041
    vertex 338.8638094356721 235.04081303231098 6.150000000000041
  endloop
endfacet
facet normal -0.7375150178194525 -0.6753307326716094 0.0
  outer loop
    vertex 338.40192233803174 235.42865937083494 6.150000000000041
    vertex 338.8638094356721 235.04081303231098 10.150000000000041
    vertex 338.40192233803174 235.42865937083494 10.150000000000041
  endloop
endfacet
facet normal -0.21609606154025257 0.9763721074399818 0.0
  outer loop
    vertex 339.6065956591453 239.24471232005774 10.150000000000041
    vertex 340.20744793405794 239.29706704291317 6.150000000000041
    vertex 339.6065956591453 239.24471232005774 6.150000000000041
  endloop
endfacet
facet normal 0.04397092971125361 0.9990328109428278 0.0
  outer loop
    vertex 340.20744793405794 239.29706704291317 6.150000000000041
    vertex 339.6065956591453 239.24471232005774 10.150000000000041
    vertex 340.20744793405794 239.29706704291317 10.150000000000041
  endloop
endfacet
facet normal -0.4614364633134405 0.8871732583462961 0.0
  outer loop
    vertex 339.0397673283985 239.03862952908298 10.150000000000041
    vertex 339.6065956591453 239.24471232005774 6.150000000000041
    vertex 339.0397673283985 239.03862952908298 6.150000000000041
  endloop
endfacet
facet normal -0.21609606154025257 0.9763721074399818 0.0
  outer loop
    vertex 339.6065956591453 239.24471232005774 6.150000000000041
    vertex 339.0397673283985 239.03862952908298 10.150000000000041
    vertex 339.6065956591453 239.24471232005774 10.150000000000041
  endloop
endfacet
endsolid EJJBOT ALL PARTS
